<?xml version="1.0" encoding="utf-8"?>
<svg version="1.1" xmlns:xlink="http://www.w3.org/1999/xlink" width="75px" height="70px" xmlns="http://www.w3.org/2000/svg">
  <g transform="matrix(1 0 0 1 -1048 -139 )">
    <path d="M 5.80344827586214 9.65827163194444  C 6.38512617719141 4.40551563305054  10.8142012637411 0.431541915077332  16.0862068965517 1  L 58.9137931034483 1  C 64.1857987362589 0.431541915077347  68.6148738228086 4.40551563305056  69.1965517241379 9.65827163194444  L 74.5586207165948 58.0533333333333  C 74.6006944702713 58.4332740585422  74.6217796218095 58.8152562988786  74.6217796218095 59.197530948764  C 74.6217796218095 64.9249283544166  69.9902425510936 69.5679013191343  64.2769520356027 69.5679013191343  C 64.2765887223441 69.5679013191343  64.2762254091617 69.5679012999476  64.2758620959052 69  L 10.7241379040948 69  C 10.7237745908382 69.5679012999476  10.7234112776559 69.5679013191343  10.7230479643973 69.5679013191343  C 5.00975744890638 69.5679013191343  0.378220378190349 64.9249283544166  0.378220378190349 59.1975309487639  C 0.378220378190349 58.8152562988785  0.399305529728736 58.4332740585422  0.44137928340524 58.0533333333333  L 5.80344827586214 9.65827163194444  Z M 58.9137931034483 4  L 16.0862068965517 4  C 12.5707501914094 3.88864779663379  9.6177347139884 6.53922439570449  9.23103450969825 10.0419753356481  L 3.86896551724135 58.437037037037  C 3.84108596170097 58.6895714902232  3.82711438943306 58.9434546141748  3.82711438943306 59.1975309073829  C 3.82711438943306 63.0157958295696  6.91480575784897 66.1111111272903  10.7236660866313 66.1111111272903  C 10.7238233591553 66.1111111272903  10.7239806315713 66.1111111218972  10.7241379040948 66  L 64.2758620959052 66  C 64.2760193683392 66.1111111218972  64.2761766409343 66.1111111272903  64.2763339133687 66.1111111272903  C 68.085194242151 66.1111111272903  71.1728856105669 63.0157958295696  71.1728856105669 59.1975309073829  C 71.1728856105669 58.9434546141748  71.1589140382989 58.6895714902232  71.1310344827587 58.437037037037  L 65.7689654903018 10.0419753356481  C 65.3822652860116 6.53922439570448  62.4292498085906 3.88864779663379  58.9137931034483 4  Z " fill-rule="nonzero" fill="#ffffff" stroke="none" transform="matrix(1 0 0 1 1048 139 )" />
  </g>
</svg>