<?xml version="1.0" encoding="utf-8"?>
<svg version="1.1" xmlns:xlink="http://www.w3.org/1999/xlink" width="39px" height="21px" xmlns="http://www.w3.org/2000/svg">
  <g transform="matrix(1 0 0 1 -1066 -159 )">
    <path d="M 0.433333306250006 1.7500000102539  C 0.433333306250006 12.3814814388336  8.9697707549351 21  19.5 21  C 30.0302292450649 21  38.56666669375 12.3814814388336  38.56666669375 1.7500000102539  C 38.56666669375 0.783501692386949  37.7906269207273 0  36.8333333468751 0  C 35.8760397730227 0  35.1 0.783501692386949  35.1 1.7500000102539  C 35.0999999999999 10.4484848030997  28.1156420973604 17.4999999794922  19.5 17.4999999794922  C 10.8843579026396 17.4999999794922  3.90000000000009 10.4484848030997  3.90000000000009 1.7500000102539  C 3.90000000000009 0.783501692386935  3.12396022697726 0  2.16666665312493 0  C 1.20937307927272 0  0.433333306250006 0.783501692386935  0.433333306250006 1.7500000102539  Z " fill-rule="nonzero" fill="#ffffff" stroke="none" transform="matrix(1 0 0 1 1066 159 )" />
  </g>
</svg>