<?xml version="1.0" encoding="utf-8"?>
<svg version="1.1" xmlns:xlink="http://www.w3.org/1999/xlink" width="57px" height="49px" xmlns="http://www.w3.org/2000/svg">
  <g transform="matrix(1 0 0 1 -166 -240 )">
    <path d="M 55.3388571428571 46.5881111111111  C 56.5114285714286 45.2378888888889  57.0325714285714 43.4956666666667  56.8588571428571 41.6227777777777  L 53.2977142857143 6.73477777777776  C 52.9502857142857 3.07611111111112  49.8668571428572 0.201444444444462  46.3491428571429 1  L 10.6508571428571 1  C 7.13314285714284 0.201444444444462  4.04971428571429 3.07611111111112  3.70228571428572 6.73477777777776  L 0.141142857142853 41.6227777777777  C -0.0325714285714298 43.4956666666666  0.488571428571419 45.2378888888889  1.66114285714286 46.5881111111111  C 2.79028571428572 47.8947777777777  4.44057142857142 48.6352222222222  6.22114285714284 48  L 50.8222857142857 48  C 52.6028571428571 48.6352222222222  54.2097142857143 47.8947777777777  55.3388571428571 46.5881111111111  Z M 52.6028571428571 42.1018888888889  C 52.6462857142857 42.6681111111111  52.516 43.1907777777778  52.1685714285714 43.5827777777777  C 51.8211428571429 43.9747777777777  51.3434285714286 44.1925555555555  50.8222857142857 44  L 6.1777142857143 44  C 5.61314285714286 44.1925555555555  5.13542857142858 43.9747777777777  4.78799999999998 43.5827777777777  C 4.44057142857142 43.1907777777778  4.3102857142857 42.6681111111111  4.35371428571429 42.1018888888889  L 7.91485714285716 7.21388888888887  C 8.04514285714288 5.82011111111112  9.30457142857142 4.68766666666664  10.6074285714286 5  L 46.3491428571429 5  C 47.6954285714286 4.68766666666664  48.9114285714286 5.86366666666666  49.0417142857143 7.21388888888887  L 52.6028571428571 42.1018888888889  Z " fill-rule="nonzero" fill="#ffffff" stroke="none" transform="matrix(1 0 0 1 166 240 )" />
  </g>
</svg>