<?xml version="1.0" encoding="utf-8"?>
<svg version="1.1" xmlns:xlink="http://www.w3.org/1999/xlink" width="27px" height="28px" xmlns="http://www.w3.org/2000/svg">
  <g transform="matrix(1 0 0 1 -182 -225 )">
    <path d="M 26 13.636  C 26.2689230769231 6.33359999999999  20.376 0.375200000000007  13.1538461538462 0.375200000000007  C 5.93169230769232 0.375200000000007  0.0387692307692191 6.33359999999999  0 13.636  L 0 25.6424  C 0.0387692307692191 26.4488  0.481846153846163 27.2104  1.19076923076923 27.6136  C 1.89969230769231 28.0168  2.74153846153845 28.0168  3.45046153846155 27.6136  C 4.15938461538462 27.2104  4.60246153846151 26.4488  5 25.6424  L 5 12.292  C 4.60246153846151 8.26000000000002  8.45723076923079 4.94479999999999  13.1981538461538 4.94479999999999  C 17.9390769230769 4.94479999999999  21.7495384615385 8.26000000000002  21.7495384615385 12.292  L 21.7495384615385 25.6872  C 21.7495384615385 26.4936  22.1926153846154 27.2552  22.9015384615385 27.6584  C 23.6104615384616 28.0616  24.4523076923077 28.0616  25.1612307692308 27.6584  C 25.8701538461538 27.2552  26.3132307692308 26.4936  26 25.6872  L 26 13.636  Z " fill-rule="nonzero" fill="#ffffff" stroke="none" transform="matrix(1 0 0 1 182 225 )" />
  </g>
</svg>