<?xml version="1.0" encoding="utf-8"?>
<svg version="1.1" xmlns:xlink="http://www.w3.org/1999/xlink" width="12px" height="6px" xmlns="http://www.w3.org/2000/svg">
  <g transform="matrix(1 0 0 1 -348 -101 )">
    <path d="M 11.8797595190381 0.618556701030928  C 11.9599198396794 0.687285223367696  12 0.766323024054982  12 0.855670103092784  C 12 0.945017182130584  11.9599198396794 1.02405498281787  11.8797595190381 1.09278350515464  L 6.27655310621242 5.89690721649484  C 6.19639278557114 5.96563573883161  6.10420841683367 6  6 6  C 5.89579158316633 6  5.80360721442886 5.96563573883161  5.72344689378757 5.89690721649484  L 0.120240480961924 1.09278350515464  C 0.0400801603206414 1.02405498281787  0 0.945017182130584  0 0.855670103092784  C 0 0.766323024054982  0.0400801603206414 0.687285223367696  0.120240480961924 0.618556701030928  L 0.721442885771543 0.103092783505155  C 0.801603206412826 0.0343642611683841  0.893787575150301 0  0.997995991983968 0  C 1.10220440881764 0  1.19438877755511 0.0343642611683841  1.27454909819639 0.103092783505155  L 6 4.15463917525773  L 10.7254509018036 0.103092783505155  C 10.8056112224449 0.0343642611683841  10.8977955911824 0  11.002004008016 0  C 11.1062124248497 0  11.1983967935872 0.0343642611683841  11.2785571142285 0.103092783505155  L 11.8797595190381 0.618556701030928  Z " fill-rule="nonzero" fill="#7f7f7f" stroke="none" transform="matrix(1 0 0 1 348 101 )" />
  </g>
</svg>