<?xml version="1.0" encoding="utf-8"?>
<svg version="1.1" xmlns:xlink="http://www.w3.org/1999/xlink" width="37px" height="34px" xmlns="http://www.w3.org/2000/svg">
  <g transform="matrix(1 0 0 1 -10 -137 )">
    <path d="M 11.3147321428571 1.34709821428571  C 13.5997023809524 0.449032738095238  15.9947916666667 0  18.5 0  C 21.0052083333333 0  23.4002976190476 0.449032738095238  25.6852678571429 1.34709821428571  C 27.9702380952381 2.24516369047619  29.9386160714286 3.453125  31.5904017857143 4.97098214285714  C 33.2421875 6.48883928571429  34.5567336309524 8.29761904761904  35.5340401785714 10.3973214285714  C 36.5113467261905 12.4970238095238  37 14.6979166666667  37 17  C 37 19.2894345238095  36.5147879464286 21.4840029761905  35.5443638392857 23.5837053571429  C 34.5739397321429 25.6834077380952  33.2628348214286 27.4921875  31.6110491071429 29.0100446428571  C 29.9592633928571 30.5279017857143  27.9908854166667 31.739025297619  25.7059151785714 32.6434151785714  C 23.4209449404762 33.5478050595238  21.0189732142857 34  18.5 34  C 15.9810267857143 34  13.5790550595238 33.5509672619048  11.2940848214286 32.6529017857143  C 9.00911458333333 31.7548363095238  7.04417782738095 30.543712797619  5.39927455357143 29.01953125  C 3.7543712797619 27.495349702381  2.44326636904762 25.6865699404762  1.46595982142857 23.5931919642857  C 0.488653273809524 21.4998139880952  0 19.3020833333333  0 17  C 0 14.6979166666667  0.488653273809524 12.4970238095238  1.46595982142857 10.3973214285714  C 2.44326636904762 8.29761904761904  3.7578125 6.48883928571429  5.40959821428571 4.97098214285714  C 7.06138392857143 3.453125  9.02976190476191 2.24516369047619  11.3147321428571 1.34709821428571  Z M 24.9626116071429 19.4285714285714  C 28.2661830357143 19.4285714285714  30.3722098214286 21.4966517857143  31.2806919642857 25.6328125  C 33.3316592261905 23.039806547619  34.3571428571429 20.1622023809524  34.3571428571429 17  C 34.3571428571429 15.0267857142857  33.9373139880952 13.1421130952381  33.09765625 11.3459821428571  C 32.2579985119048 9.54985119047619  31.1292782738095 8.00037202380952  29.7114955357143 6.69754464285714  C 28.2937127976191 5.39471726190476  26.6075148809524 4.35751488095238  24.6529017857143 3.5859375  C 22.6982886904762 2.81436011904762  20.6473214285714 2.42857142857143  18.5 2.42857142857143  C 16.3526785714286 2.42857142857143  14.3017113095238 2.81436011904762  12.3470982142857 3.5859375  C 10.3924851190476 4.35751488095238  8.70628720238095 5.39471726190476  7.28850446428571 6.69754464285714  C 5.87072172619048 8.00037202380952  4.74200148809524 9.54985119047619  3.90234375 11.3459821428571  C 3.06268601190476 13.1421130952381  2.64285714285714 15.0267857142857  2.64285714285714 17  C 2.64285714285714 20.1622023809524  3.66834077380952 23.039806547619  5.71930803571429 25.6328125  C 6.62779017857143 21.4966517857143  8.73381696428572 19.4285714285714  12.0373883928571 19.4285714285714  C 13.840587797619 21.047619047619  15.9947916666667 21.8571428571429  18.5 21.8571428571429  C 21.0052083333333 21.8571428571429  23.159412202381 21.047619047619  24.9626116071429 19.4285714285714  Z M 24.1057477678571 18.5083705357143  C 25.654296875 17.0853794642857  26.4285714285714 15.3683035714286  26.4285714285714 13.3571428571429  C 26.4285714285714 11.3459821428571  25.654296875 9.62890625  24.1057477678571 8.20591517857143  C 22.5571986607143 6.78292410714286  20.6886160714286 6.07142857142857  18.5 6.07142857142857  C 16.3113839285714 6.07142857142857  14.4428013392857 6.78292410714286  12.8942522321429 8.20591517857143  C 11.345703125 9.62890625  10.5714285714286 11.3459821428571  10.5714285714286 13.3571428571429  C 10.5714285714286 15.3683035714286  11.345703125 17.0853794642857  12.8942522321429 18.5083705357143  C 14.4428013392857 19.9313616071429  16.3113839285714 20.6428571428571  18.5 20.6428571428571  C 20.6886160714286 20.6428571428571  22.5571986607143 19.9313616071429  24.1057477678571 18.5083705357143  Z " fill-rule="nonzero" fill="#000000" stroke="none" transform="matrix(1 0 0 1 10 137 )" />
  </g>
</svg>