<?xml version="1.0" encoding="utf-8"?>
<svg version="1.1" xmlns:xlink="http://www.w3.org/1999/xlink" width="17px" height="14px" xmlns="http://www.w3.org/2000/svg">
  <g transform="matrix(1 0 0 1 -345 -56 )">
    <path d="M 11.3526405451448 12.0703125  C 11.4105621805792 12.1171875  11.4395229982964 12.1770833333333  11.4395229982964 12.25  L 11.4395229982964 13.75  C 11.4395229982964 13.8229166666667  11.4105621805792 13.8828125  11.3526405451448 13.9296875  C 11.2947189097104 13.9765625  11.2207079310998 14  11.1306076093129 14  L 8.65928449744463 14  C 8.56918417565777 14  8.49517319704713 13.9765625  8.43725156161272 13.9296875  C 8.37932992617831 13.8828125  8.3503691084611 13.8229166666667  8.3503691084611 13.75  L 8.3503691084611 12.25  C 8.3503691084611 12.1770833333333  8.37932992617831 12.1171875  8.43725156161272 12.0703125  C 8.49517319704713 12.0234375  8.56918417565777 12  8.65928449744463 12  L 11.1306076093129 12  C 11.2207079310998 12  11.2947189097104 12.0234375  11.3526405451448 12.0703125  Z M 6.71890971039182 11.0703125  C 6.77683134582623 11.1171875  6.80579216354344 11.1770833333333  6.80579216354344 11.25  C 6.80579216354344 11.3125  6.77361347719099 11.375  6.70925610448609 11.4375  L 3.6297558205565 13.9296875  C 3.5653984478516 13.9765625  3.49138746924096 14  3.40772288472459 14  C 3.33049403747871 14  3.25648305886807 13.9765625  3.18568994889267 13.9296875  L 0.0965360590573538 11.4296875  C 0 11.3463541666667  -0.0225250804467159 11.2552083333333  0.0289608177172061 11.15625  C 0.0804467158811282 11.0520833333333  0.176982774938482 11  0.318568994889267 11  L 2.17206132879046 11  L 2.17206132879046 0.250000000000001  C 2.17206132879046 0.177083333333332  2.20102214650767 0.1171875  2.25894378194208 0.0703124999999996  C 2.31686541737649 0.0234374999999993  2.39087639598713 0  2.48097671777399 0  L 4.33446905167518 0  C 4.42456937346205 0  4.49858035207269 0.0234374999999993  4.5565019875071 0.0703124999999996  C 4.61442362294151 0.1171875  4.64338444065872 0.177083333333332  4.64338444065872 0.250000000000001  L 4.64338444065872 11  L 6.49687677455991 11  C 6.58697709634677 11  6.66098807495741 11.0234375  6.71890971039182 11.0703125  Z M 13.206132879046 8.0703125  C 13.2640545144804 8.1171875  13.2930153321976 8.17708333333333  13.2930153321976 8.25  L 13.2930153321976 9.75  C 13.2930153321976 9.82291666666666  13.2640545144804 9.8828125  13.206132879046 9.9296875  C 13.1482112436116 9.9765625  13.0742002650009 10  12.9840999432141 10  L 8.65928449744463 10  C 8.56918417565777 10  8.49517319704713 9.9765625  8.43725156161272 9.9296875  C 8.37932992617831 9.8828125  8.3503691084611 9.82291666666666  8.3503691084611 9.75  L 8.3503691084611 8.25  C 8.3503691084611 8.17708333333333  8.37932992617831 8.1171875  8.43725156161272 8.0703125  C 8.49517319704713 8.0234375  8.56918417565777 8  8.65928449744463 8  L 12.9840999432141 8  C 13.0742002650009 8  13.1482112436116 8.0234375  13.206132879046 8.0703125  Z M 15.0596252129472 4.0703125  C 15.1175468483816 4.1171875  15.1465076660988 4.17708333333333  15.1465076660988 4.25  L 15.1465076660988 5.75  C 15.1465076660988 5.82291666666667  15.1175468483816 5.8828125  15.0596252129472 5.9296875  C 15.0017035775128 5.9765625  14.9276925989021 6  14.8375922771153 6  L 8.65928449744463 6  C 8.56918417565777 6  8.49517319704713 5.9765625  8.43725156161272 5.9296875  C 8.37932992617831 5.8828125  8.3503691084611 5.82291666666667  8.3503691084611 5.75  L 8.3503691084611 4.25  C 8.3503691084611 4.17708333333333  8.37932992617831 4.1171875  8.43725156161272 4.0703125  C 8.49517319704713 4.0234375  8.56918417565777 4  8.65928449744463 4  L 14.8375922771153 4  C 14.9276925989021 4  15.0017035775128 4.0234375  15.0596252129472 4.0703125  Z M 16.9131175468484 0.0703124999999996  C 16.9710391822828 0.1171875  17 0.177083333333332  17 0.250000000000001  L 17 1.75  C 17 1.82291666666667  16.9710391822828 1.8828125  16.9131175468484 1.9296875  C 16.855195911414 1.9765625  16.7811849328033 2  16.6910846110165 2  L 8.65928449744463 2  C 8.56918417565777 2  8.49517319704713 1.9765625  8.43725156161272 1.9296875  C 8.37932992617831 1.8828125  8.3503691084611 1.82291666666667  8.3503691084611 1.75  L 8.3503691084611 0.250000000000001  C 8.3503691084611 0.177083333333332  8.37932992617831 0.1171875  8.43725156161272 0.0703124999999996  C 8.49517319704713 0.0234374999999993  8.56918417565777 0  8.65928449744463 0  L 16.6910846110165 0  C 16.7811849328033 0  16.855195911414 0.0234374999999993  16.9131175468484 0.0703124999999996  Z " fill-rule="nonzero" fill="#7f7f7f" stroke="none" transform="matrix(1 0 0 1 345 56 )" />
  </g>
</svg>