<?xml version="1.0" encoding="utf-8"?>
<svg version="1.1" xmlns:xlink="http://www.w3.org/1999/xlink" width="17px" height="17px" xmlns="http://www.w3.org/2000/svg">
  <g transform="matrix(1 0 0 1 -809 -208 )">
    <path d="M 12.5065104166667 11.5104166666667  C 12.6467013888889 11.3702256944444  12.716796875 11.2005208333333  12.716796875 11.0013020833333  C 12.716796875 10.8094618055556  12.6467013888889 10.6434461805556  12.5065104166667 10.5032552083333  L 10.5032552083333 8.5  L 12.5065104166667 6.49674479166667  C 12.6467013888889 6.35655381944444  12.716796875 6.19053819444444  12.716796875 5.99869791666667  C 12.716796875 5.79947916666667  12.6467013888889 5.62977430555555  12.5065104166667 5.48958333333333  L 11.5104166666667 4.49348958333333  C 11.3702256944444 4.35329861111111  11.2005208333333 4.283203125  11.0013020833333 4.283203125  C 10.8094618055556 4.283203125  10.6434461805556 4.35329861111111  10.5032552083333 4.49348958333333  L 8.5 6.49674479166667  L 6.49674479166667 4.49348958333333  C 6.35655381944444 4.35329861111111  6.19053819444444 4.283203125  5.99869791666667 4.283203125  C 5.79947916666667 4.283203125  5.62977430555556 4.35329861111111  5.48958333333333 4.49348958333333  L 4.49348958333333 5.48958333333333  C 4.35329861111111 5.62977430555555  4.283203125 5.79947916666667  4.283203125 5.99869791666667  C 4.283203125 6.19053819444444  4.35329861111111 6.35655381944444  4.49348958333333 6.49674479166667  L 6.49674479166667 8.5  L 4.49348958333333 10.5032552083333  C 4.35329861111111 10.6434461805556  4.283203125 10.8094618055556  4.283203125 11.0013020833333  C 4.283203125 11.2005208333333  4.35329861111111 11.3702256944444  4.49348958333333 11.5104166666667  L 5.48958333333333 12.5065104166667  C 5.62977430555556 12.6467013888889  5.79947916666667 12.716796875  5.99869791666667 12.716796875  C 6.19053819444444 12.716796875  6.35655381944444 12.6467013888889  6.49674479166667 12.5065104166667  L 8.5 10.5032552083333  L 10.5032552083333 12.5065104166667  C 10.6434461805556 12.6467013888889  10.8094618055556 12.716796875  11.0013020833333 12.716796875  C 11.2005208333333 12.716796875  11.3702256944444 12.6467013888889  11.5104166666667 12.5065104166667  L 12.5065104166667 11.5104166666667  Z M 15.8600260416667 4.2333984375  C 16.6200086805556 5.53569878472222  17 6.95789930555555  17 8.5  C 17 10.0421006944444  16.6200086805556 11.4643012152778  15.8600260416667 12.7666015625  C 15.1000434027778 14.0689019097222  14.0689019097222 15.1000434027778  12.7666015625 15.8600260416667  C 11.4643012152778 16.6200086805556  10.0421006944444 17  8.5 17  C 6.95789930555556 17  5.53569878472222 16.6200086805556  4.2333984375 15.8600260416667  C 2.93109809027778 15.1000434027778  1.89995659722222 14.0689019097222  1.13997395833333 12.7666015625  C 0.379991319444444 11.4643012152778  0 10.0421006944444  0 8.5  C 0 6.95789930555555  0.379991319444444 5.53569878472222  1.13997395833333 4.2333984375  C 1.89995659722222 2.93109809027778  2.93109809027778 1.89995659722222  4.2333984375 1.13997395833333  C 5.53569878472222 0.379991319444443  6.95789930555556 0  8.5 0  C 10.0421006944444 0  11.4643012152778 0.379991319444443  12.7666015625 1.13997395833333  C 14.0689019097222 1.89995659722222  15.1000434027778 2.93109809027778  15.8600260416667 4.2333984375  Z " fill-rule="nonzero" fill="#aaaaaa" stroke="none" transform="matrix(1 0 0 1 809 208 )" />
  </g>
</svg>