<?xml version="1.0" encoding="utf-8"?>
<svg version="1.1" xmlns:xlink="http://www.w3.org/1999/xlink" width="18px" height="18px" xmlns="http://www.w3.org/2000/svg">
  <g transform="matrix(1 0 0 1 -88 -24 )">
    <path d="M 0.111111104166639 9  C 0.111111104166639 4.09088889583339  4.09088889583336 0.111111104166611  9 0.111111104166611  C 13.9091111041666 0.111111104166611  17.8888888958333 4.090888875  17.8888888958333 9  C 17.8888888958333 13.909111125  13.9091111041666 17.8888888958334  9 17.8888888958334  C 4.09088889583336 17.8888888958334  0.111111104166639 13.9091111041666  0.111111104166639 9  Z M 9 12.3333333333333  C 8.63181016677947 12.3333333333333  8.33333333333331 12.6318101667795  8.33333333333331 13  C 8.33333333333331 13.3681898332205  8.63181016677947 13.6666666666667  9 13.6666666666667  C 9.36818983322053 13.6666666666667  9.66666666666669 13.3681898332205  9.66666666666669 13  C 9.66666666666669 12.6318101667795  9.36818983322053 12.3333333333333  9 12.3333333333333  Z M 8.94755556249999 4.55555556250006  C 7.93888889583332 4.55555556250006  7.01533333333333 5.05888889583333  6.47644443749999 5.87666666666664  C 6.33479995972812 6.09143447598372  6.22282403315472 6.32435637068406  6.14355556250001 6.56911110416668  C 6.12213340122338 6.63537358384156  6.11122394044156 6.70458296827709  6.11122394044156 6.77422221875005  C 6.11122394044156 7.14247246799638  6.40974975075358 7.44099827830841  6.77800000000002 7.44099827830841  C 7.06722677902314 7.44099827830841  7.32347359614727 7.25453565725715  7.41244443749997 6.9793333333333  C 7.4544444375 6.84933333333338  7.51422220833331 6.72511110416662  7.59000000000003 6.61022222916669  C 7.88333333333333 6.16488889583339  8.38977777083335 5.8888888958333  8.94755556249999 5.8888888958333  C 9.83911110416665 5.8888888958333  10.5555555625 6.58888889583335  10.5555555625 7.44444443750002  C 10.5555555625 8.2999999791667  9.83888889583335 9  8.94733333333335 9  C 8.57914350011282 9  8.28066666666666 9.29847683344607  8.28066666666666 9.66666666666669  L 8.28066666666666 11.0000000000001  C 8.28066666666666 11.3681898332205  8.57914350011282 11.6666666666666  8.94733333333335 11.6666666666666  C 9.31552316655387 11.6666666666666  9.61399999999998 11.3681898332205  9.61399999999998 11.0000000000001  L 9.61399999999998 10.2586666666667  C 10.9155555625 9.96244443750005  11.8888888958333 8.81733333333335  11.8888888958333 7.44444443750002  C 11.8888888958333 5.84533333333339  10.5684444583333 4.55555554166668  8.94733333333335 4.55555556250006  Z " fill-rule="nonzero" fill="#cccccc" stroke="none" transform="matrix(1 0 0 1 88 24 )" />
  </g>
</svg>