<?xml version="1.0" encoding="utf-8"?>
<svg version="1.1" xmlns:xlink="http://www.w3.org/1999/xlink" width="8px" height="16px" xmlns="http://www.w3.org/2000/svg">
  <g transform="matrix(1 0 0 1 -352 -17 )">
    <path d="M 7.64273333333335 8.241  C 7.63673333333332 8.24698333333333  7.62846666666667 8.24848333333334  7.6225 8.25413333333333  L 1.63728333333336 14.8318166666667  C 1.27575000000002 15.18585  0.692999999999984 15.1899666666667  0.336383333333345 14.84045  C -0.0202499999999759 14.4909166666667  -0.0165000000000077 13.9205666666667  0.345383333333359 13.5661333333333  L 5.76279999999997 7.61245000000001  L 0.334499999999991 1.64711666666666  C -0.0269999999999868 1.29273333333333  -0.0273833333333187 0.718966666666674  0.333750000000009 0.364966666666675  C 0.695266666666669 0.0113333333333401  1.28103333333331 0.0117000000000047  1.64291666666668 0.365716666666671  L 7.64235000000002 6.95918333333333  C 8.00386666666668 7.31319999999999  8.00423333333333 7.88733333333333  7.64271666666667 8.24098333333333  Z " fill-rule="nonzero" fill="#cccccc" stroke="none" transform="matrix(1 0 0 1 352 17 )" />
  </g>
</svg>