<?xml version="1.0" encoding="utf-8"?>
<svg version="1.1" xmlns:xlink="http://www.w3.org/1999/xlink" width="22px" height="22px" xmlns="http://www.w3.org/2000/svg">
  <g transform="matrix(1 0 0 1 -126 -17 )">
    <path d="M 6.775 10.09  C 6.775 9.375  6.19 8.79  5.475 8.79  C 4.76 8.79  4.175 9.375  4.175 10.09  C 4.175 10.805  4.76 11.39  5.475 11.39  C 6.19 11.39  6.775 10.805  6.775 10.09  Z M 11.975 10.09  C 11.975 9.375  11.39 8.79  10.675 8.79  C 9.96 8.79  9.375 9.375  9.375 10.09  C 9.375 10.805  9.96 11.39  10.675 11.39  C 11.39 11.39  11.975 10.805  11.975 10.09  Z M 17.175 10.09  C 17.175 9.375  16.59 8.79  15.875 8.79  C 15.16 8.79  14.575 9.375  14.575 10.09  C 14.575 10.805  15.16 11.39  15.875 11.39  C 16.59 11.39  17.175 10.805  17.175 10.09  Z M 21.075 10.09  C 21.075 5.02  16.395 0.99  10.675 0.99  C 4.955 0.99  0.274999999999999 5.085  0.274999999999999 10.09  C 0.274999999999999 12.95  1.77 15.55  4.175 17.175  L 4.175 21.79  L 8.725 18.995  C 9.375 19.125  10.025 19.19  10.675 19.19  C 16.395 19.19  21.075 15.095  21.075 10.09  Z M 19.775 10.09  C 19.775 14.38  15.68 17.89  10.675 17.89  C 9.895 17.89  9.18 17.825  8.465 17.63  L 5.41 19.45  L 5.475 16.46  C 3.135 15.03  1.575 12.69  1.575 10.09  C 1.575 5.8  5.67 2.29  10.675 2.29  C 15.68 2.29  19.775 5.8  19.775 10.09  Z " fill-rule="nonzero" fill="#cccccc" stroke="none" transform="matrix(1 0 0 1 126 17 )" />
  </g>
</svg>