<?xml version="1.0" encoding="utf-8"?>
<svg version="1.1" xmlns:xlink="http://www.w3.org/1999/xlink" width="65px" height="65px" xmlns="http://www.w3.org/2000/svg">
  <g transform="matrix(1 0 0 1 -295 -13 )">
    <path d="M 64.7603217857143 32.5550084263393  C 64.7603217857143 50.3480419029018  50.3199809095982 64.7747977064732  32.5058645814732 64.7747977064732  C 14.6933814508929 64.7747977064732  0.258162806919639 50.3479676897321  0.258162806919639 32.5550084263393  C 0.258162806919639 18.8974054575893  8.75907920758928 7.22908795200894  20.7647221930804 2.53986157924108  C 24.3921599274553 1.07653369977678  28.3551415904018 0.268407343749999  32.5066811439732 0.268407343749999  C 36.6633429296875 0.268407343749999  40.6229097712054 1.07571713727679  44.2537623270089 2.53986157924108  C 56.2586630357143 7.22908795200893  64.7603217857143 18.8974796707589  64.7603217857143 32.5550084263393  Z M 20.1104115904018 25.7600211607143  C 20.1104115904018 31.1897455245536  22.8924567857143 35.8907753459821  26.9366519587054 38.1918495591518  C 28.6138519642857 39.1462196037946  30.5023258370536 39.6966007924107  32.5058645814732 39.6966007924107  C 34.4391024162946 39.6966007924107  36.2617295479911 39.1817784486607  37.8949821540179 38.2924385100447  C 42.0347182589286 36.0353116964286  44.9064398046875 31.2768236886161  44.9064398046875 25.7609120089286  C 44.9064398046875 18.0808162611607  39.3448733872768 11.8294546819197  32.5059387946429 11.8294546819197  C 25.6711613727679 11.828638046875  20.1104115904018 18.0800738392857  20.1104115904018 25.7600211607143  Z M 32.6368900725446 62.6868533426339  C 42.0592160044643 62.6868533426339  50.4645172600446 58.3535856138393  55.9736734375 51.5721833482143  C 55.3228518694196 46.2227816462054  50.1102659542411 41.6688863616072  42.7329763337054 39.3973579129464  C 39.9466996819196 41.9038413392857  36.3868903850446 43.4120073939732  32.5049738058036 43.4120073939732  C 28.5368699107143 43.4120073939732  24.9044583705357 41.8227021149553  22.091085859375 39.2071668247768  C 14.9148256417411 41.2553952455357  9.65844089843749 45.4332141685268  8.42598511160714 50.4393513783482  C 13.8928270870536 57.86578484375  22.7039731082589 62.6868533426339  32.6368900725446 62.6868533426339  Z " fill-rule="nonzero" fill="#ffffff" stroke="none" transform="matrix(1 0 0 1 295 13 )" />
  </g>
</svg>