<?xml version="1.0" encoding="utf-8"?>
<svg version="1.1" xmlns:xlink="http://www.w3.org/1999/xlink" width="28px" height="18px" xmlns="http://www.w3.org/2000/svg">
  <g transform="matrix(1 0 0 1 -319 -249 )">
    <path d="M 27.2961956521739 7.9602053915276  C 27.7653985507246 8.22978177150192  28 8.57637997432606  28 9  C 28 9.41591784338896  27.7653985507246 9.76636713735558  27.2961956521739 10.0513478818999  L 14.9130434782609 17.5725288831836  C 14.4184782608696 17.8575096277279  13.8414855072464 18  13.1820652173913 18  C 12.5353260869565 18  11.9646739130435 17.8575096277279  11.4701086956522 17.5725288831836  L 10.0434782608696 16.7060333761232  C 9.56159420289855 16.413350449294  9.32065217391304 16.0629011553273  9.32065217391304 15.6546854942234  C 9.32065217391304 15.2464698331194  9.56159420289855 14.8960205391528  10.0434782608696 14.6033376123235  L 15.616847826087 11  L 2.22554347826087 11  C 1.5661231884058 11.2182284980745  1.03034420289855 11.0738125802311  0.61820652173913 10.7849807445443  C 0.20606884057971 10.4961489088575  0 10.1476251604621  0 9.73940949935815  L 0 8.26059050064185  C 0 7.85237483953787  0.20606884057971 7.50385109114249  0.61820652173913 7.21501925545571  C 1.03034420289855 6.92618741976893  1.5661231884058 6.78177150192555  2.22554347826087 7  L 15.616847826087 7  L 10.0434782608696 3.38510911424904  C 9.56159420289855 3.10783055198973  9.32065217391304 2.7612323491656  9.32065217391304 2.34531450577664  C 9.32065217391304 1.92939666238768  9.56159420289855 1.58279845956354  10.0434782608696 1.30551989730424  L 11.4701086956522 0.439024390243903  C 11.9519927536232 0.146341463414633  12.5226449275362 0  13.1820652173913 0  C 13.8541666666667 0  14.4311594202899 0.146341463414633  14.9130434782609 0.439024390243903  L 27.2961956521739 7.9602053915276  Z " fill-rule="nonzero" fill="#ffffff" stroke="none" transform="matrix(1 0 0 1 319 249 )" />
  </g>
</svg>