<?xml version="1.0" encoding="utf-8"?>
<svg version="1.1" xmlns:xlink="http://www.w3.org/1999/xlink" width="23px" height="23px" xmlns="http://www.w3.org/2000/svg">
  <g transform="matrix(1 0 0 1 -26 -7 )">
    <path d="M 26 7  L 49 7  L 49 30  L 26 30  L 26 7  " fill-rule="nonzero" fill="#cccccc" stroke="none" />
    <path d="M 28 9  L 47 9  L 47 28  L 28 28  L 28 9  " fill-rule="nonzero" fill="#ffffff" stroke="none" />
    <path d="M 39.685 13.9  C 38.719 13.9  37.96 13.141  37.96 12.175  C 37.96 11.209  38.719 10.45  39.685 10.45  C 40.651 10.45  41.41 11.209  41.41 12.175  C 41.41 13.141  40.651 13.9  39.685 13.9  " fill-rule="nonzero" fill="#cccccc" stroke="none" />
    <path d="M 29 28  L 29 18.1  L 33.5 13.6  L 39.8 17.2  L 43.4 16.3  L 47 17.2  L 47 28  L 29 28  " fill-rule="nonzero" fill="#169bd5" stroke="none" />
  </g>
</svg>