<?xml version="1.0" encoding="utf-8"?>
<svg version="1.1" xmlns:xlink="http://www.w3.org/1999/xlink" width="12px" height="10px" xmlns="http://www.w3.org/2000/svg">
  <g transform="matrix(1 0 0 1 -70 -208 )">
    <path d="M 9.3515625 5.70963541666667  C 9.45052083333333 5.62717013888889  9.5 5.52951388888889  9.5 5.41666666666667  L 9.5 4.58333333333333  C 9.5 4.47048611111111  9.45052083333333 4.37282986111111  9.3515625 4.29036458333333  C 9.25260416666667 4.20789930555556  9.13541666666667 4.16666666666667  9 4.16666666666667  L 7 4.16666666666667  L 7 2.5  C 7 2.38715277777778  6.95052083333333 2.28949652777778  6.8515625 2.20703125  C 6.75260416666667 2.12456597222222  6.63541666666667 2.08333333333333  6.5 2.08333333333333  L 5.5 2.08333333333333  C 5.36458333333333 2.08333333333333  5.24739583333333 2.12456597222222  5.1484375 2.20703125  C 5.04947916666667 2.28949652777778  5 2.38715277777778  5 2.5  L 5 4.16666666666667  L 3 4.16666666666667  C 2.86458333333333 4.16666666666667  2.74739583333333 4.20789930555556  2.6484375 4.29036458333333  C 2.54947916666667 4.37282986111111  2.5 4.47048611111111  2.5 4.58333333333333  L 2.5 5.41666666666667  C 2.5 5.52951388888889  2.54947916666667 5.62717013888889  2.6484375 5.70963541666667  C 2.74739583333333 5.79210069444444  2.86458333333333 5.83333333333333  3 5.83333333333333  L 5 5.83333333333333  L 5 7.5  C 5 7.61284722222222  5.04947916666667 7.71050347222222  5.1484375 7.79296875  C 5.24739583333333 7.87543402777778  5.36458333333333 7.91666666666667  5.5 7.91666666666667  L 6.5 7.91666666666667  C 6.63541666666667 7.91666666666667  6.75260416666667 7.87543402777778  6.8515625 7.79296875  C 6.95052083333333 7.71050347222222  7 7.61284722222222  7 7.5  L 7 5.83333333333333  L 9 5.83333333333333  C 9.13541666666667 5.83333333333333  9.25260416666667 5.79210069444444  9.3515625 5.70963541666667  Z M 11.1953125 2.490234375  C 11.7317708333333 3.25629340277778  12 4.09288194444444  12 5  C 12 5.90711805555556  11.7317708333333 6.74370659722222  11.1953125 7.509765625  C 10.6588541666667 8.27582465277778  9.93098958333333 8.88237847222222  9.01171875 9.32942708333333  C 8.09244791666667 9.77647569444444  7.08854166666667 10  6 10  C 4.91145833333333 10  3.90755208333333 9.77647569444444  2.98828125 9.32942708333333  C 2.06901041666667 8.88237847222222  1.34114583333333 8.27582465277778  0.8046875 7.509765625  C 0.268229166666667 6.74370659722222  0 5.90711805555556  0 5  C 0 4.09288194444444  0.268229166666667 3.25629340277778  0.8046875 2.490234375  C 1.34114583333333 1.72417534722222  2.06901041666667 1.11762152777778  2.98828125 0.670572916666666  C 3.90755208333333 0.223524305555555  4.91145833333333 0  6 0  C 7.08854166666667 0  8.09244791666667 0.223524305555555  9.01171875 0.670572916666666  C 9.93098958333333 1.11762152777778  10.6588541666667 1.72417534722222  11.1953125 2.490234375  Z " fill-rule="nonzero" fill="#ffffff" stroke="none" transform="matrix(1 0 0 1 70 208 )" />
  </g>
</svg>