<?xml version="1.0" encoding="utf-8"?>
<svg version="1.1" xmlns:xlink="http://www.w3.org/1999/xlink" width="55px" height="56px" xmlns="http://www.w3.org/2000/svg">
  <g transform="matrix(1 0 0 1 -20 -48 )">
    <path d="M 20 48  L 75 48  L 75 104  L 20 104  L 20 48  " fill-rule="nonzero" fill="#cccccc" stroke="none" />
    <path d="M 24 52  L 71 52  L 71 100  L 24 100  L 24 52  " fill-rule="nonzero" fill="#ffffff" stroke="none" />
    <path d="M 52.725 64.65  C 50.415 64.65  48.6 62.835  48.6 60.525  C 48.6 58.215  50.415 56.4  52.725 56.4  C 55.035 56.4  56.85 58.215  56.85 60.525  C 56.85 62.835  55.035 64.65  52.725 64.65  " fill-rule="nonzero" fill="#cccccc" stroke="none" />
    <path d="M 26 99  L 26 74.25  L 37 63  L 52.4 72  L 61.2 69.75  L 70 72  L 70 99  L 26 99  " fill-rule="nonzero" fill="#169bd5" stroke="none" />
  </g>
</svg>