<?xml version="1.0" encoding="utf-8"?>
<svg version="1.1" xmlns:xlink="http://www.w3.org/1999/xlink" width="42px" height="35px" xmlns="http://www.w3.org/2000/svg">
  <g transform="matrix(1 0 0 1 -91 -160 )">
    <path d="M 40.776 33.2772222222222  C 41.64 32.3127777777778  42.024 31.0683333333333  41.896 29.7305555555556  L 39.272 4.81055555555554  C 39.016 2.19722222222225  36.744 0.14388888888891  34.152 0.14388888888891  L 7.84799999999998 0.14388888888891  C 5.256 0.14388888888891  2.98399999999999 2.19722222222225  2.72799999999999 4.81055555555554  L 0.103999999999999 29.7305555555556  C -0.0240000000000009 31.0683333333333  0.359999999999999 32.3127777777778  1.224 33.2772222222222  C 2.056 34.2105555555555  3.27199999999999 34.7394444444444  4.58399999999999 34.7394444444444  L 37.448 34.7394444444444  C 38.76 34.7394444444444  39.944 34.2105555555555  40.776 33.2772222222222  Z M 38.76 30.0727777777778  C 38.792 30.4772222222222  38.696 30.8505555555556  38.44 31.1305555555555  C 38.184 31.4105555555555  37.832 31.5661111111111  37.448 31  L 4.55199999999999 31  C 4.13600000000001 31.5661111111111  3.78400000000001 31.4105555555555  3.52799999999999 31.1305555555555  C 3.27199999999999 30.8505555555556  3.17599999999999 30.4772222222222  3.208 30.0727777777778  L 5.83200000000001 5.15277777777777  C 5.92800000000001 4.15722222222223  6.85599999999999 3.3483333333333  7.81599999999999 4  L 34.152 4  C 35.144 3.3483333333333  36.04 4.1883333333333  36.136 5.15277777777777  L 38.76 30.0727777777778  Z " fill-rule="nonzero" fill="#ffffff" stroke="none" transform="matrix(1 0 0 1 91 160 )" />
  </g>
</svg>