<?xml version="1.0" encoding="utf-8"?>
<svg version="1.1" xmlns:xlink="http://www.w3.org/1999/xlink" width="19px" height="20px" xmlns="http://www.w3.org/2000/svg">
  <g transform="matrix(1 0 0 1 -103 -149 )">
    <path d="M 18.5167179487179 9.73999999999998  C 18.4855384615385 4.524  14.3386666666667 0.268000000000001  9.25641025641025 0.268000000000001  C 4.17415384615386 0.268000000000001  0.0272820512820431 4.524  0.0272820512820431 9.73999999999998  L 0.0272820512820431 18.316  C 0.0272820512820431 18.892  0.339076923076931 19.436  0.837948717948706 19.724  C 1.33682051282051 20.012  1.92923076923077 20.012  2.42810256410257 19.724  C 2.92697435897436 19.436  3.23876923076922 18.892  3.23876923076922 18.316  L 3.23876923076922 8.77999999999997  C 3.23876923076922 5.90000000000001  5.95138461538463 3.53200000000001  9.28758974358975 3.53200000000001  C 12.6237948717949 3.53200000000001  15.3052307692308 5.90000000000001  15.3052307692308 8.77999999999997  L 15.3052307692308 18.348  C 15.3052307692308 18.924  15.6170256410256 19.468  16.1158974358974 19.756  C 16.6147692307692 20.044  17.2071794871795 20.044  17.7060512820513 19.756  C 18.2049230769231 19.468  18.5167179487179 18.924  18.5167179487179 18.348  L 18.5167179487179 9.73999999999998  Z " fill-rule="nonzero" fill="#ffffff" stroke="none" transform="matrix(1 0 0 1 103 149 )" />
  </g>
</svg>