<?xml version="1.0" encoding="utf-8"?>
<svg version="1.1" xmlns:xlink="http://www.w3.org/1999/xlink" width="18px" height="16px" xmlns="http://www.w3.org/2000/svg">
  <g transform="matrix(1 0 0 1 -81 -186 )">
    <path d="M 9.44196428571428 15.8125  C 9.32142857142857 15.9375  9.17410714285714 16  9 16  C 8.82589285714286 16  8.67857142857143 15.9375  8.55803571428571 15.8125  L 2.29017857142857 9.54166666666667  C 2.22321428571429 9.48611111111111  2.13113839285714 9.39583333333333  2.01395089285714 9.27083333333333  C 1.89676339285714 9.14583333333333  1.7109375 8.91840277777778  1.45647321428571 8.58854166666667  C 1.20200892857143 8.25868055555555  0.974330357142857 7.92013888888889  0.7734375 7.57291666666667  C 0.572544642857143 7.22569444444444  0.393415178571429 6.80555555555556  0.236049107142857 6.3125  C 0.0786830357142857 5.81944444444444  0 5.34027777777778  0 4.875  C 0 3.34722222222222  0.425223214285714 2.15277777777778  1.27566964285714 1.29166666666667  C 2.12611607142857 0.430555555555555  3.30133928571429 0  4.80133928571429 0  C 5.21651785714286 0  5.64006696428571 0.0746527777777768  6.07198660714286 0.223958333333334  C 6.50390625 0.373263888888888  6.90569196428571 0.574652777777777  7.27734375 0.828125  C 7.64899553571429 1.08159722222222  7.96875 1.31944444444444  8.23660714285714 1.54166666666667  C 8.50446428571429 1.76388888888889  8.75892857142857 2  9 2.25  C 9.24107142857143 2  9.49553571428572 1.76388888888889  9.76339285714286 1.54166666666667  C 10.03125 1.31944444444444  10.3510044642857 1.08159722222222  10.72265625 0.828125  C 11.0943080357143 0.574652777777777  11.49609375 0.373263888888888  11.9280133928571 0.223958333333334  C 12.3599330357143 0.0746527777777768  12.7834821428571 0  13.1986607142857 0  C 14.6986607142857 0  15.8738839285714 0.430555555555555  16.7243303571429 1.29166666666667  C 17.5747767857143 2.15277777777778  18 3.34722222222222  18 4.875  C 18 6.40972222222222  17.2332589285714 7.97222222222222  15.6997767857143 9.5625  L 9.44196428571428 15.8125  Z " fill-rule="nonzero" fill="#d9001b" stroke="none" transform="matrix(1 0 0 1 81 186 )" />
  </g>
</svg>