<?xml version="1.0" encoding="utf-8"?>
<svg version="1.1" xmlns:xlink="http://www.w3.org/1999/xlink" width="19px" height="16px" xmlns="http://www.w3.org/2000/svg">
  <g transform="matrix(1 0 0 1 -81 -187 )">
    <path d="M 15.6495535714286 8.58333333333333  C 16.9784226190476 7.27777777777778  17.6428571428571 6.04166666666667  17.6428571428571 4.875  C 17.6428571428571 4.3125  17.5668712797619 3.81597222222222  17.4148995535714 3.38541666666667  C 17.262927827381 2.95486111111111  17.0685453869048 2.61284722222222  16.8317522321429 2.359375  C 16.594959077381 2.10590277777778  16.3069196428571 1.89930555555556  15.9676339285714 1.73958333333333  C 15.6283482142857 1.57986111111111  15.296130952381 1.47222222222222  14.9709821428571 1.41666666666667  C 14.6458333333333 1.36111111111111  14.2994791666667 1.33333333333333  13.9319196428571 1.33333333333333  C 13.5643601190476 1.33333333333333  13.1685267857143 1.421875  12.7444196428571 1.59895833333333  C 12.3203125 1.77604166666667  11.9297805059524 1.99826388888889  11.5728236607143 2.265625  C 11.2158668154762 2.53298611111111  10.91015625 2.78298611111111  10.6556919642857 3.015625  C 10.4012276785714 3.24826388888889  10.1891741071429 3.46180555555556  10.01953125 3.65625  C 9.89229910714286 3.80902777777778  9.71912202380953 3.88541666666667  9.5 3.88541666666667  C 9.28087797619048 3.88541666666667  9.10770089285714 3.80902777777778  8.98046875 3.65625  C 8.81082589285714 3.46180555555556  8.59877232142857 3.24826388888889  8.34430803571429 3.015625  C 8.08984375 2.78298611111111  7.78413318452381 2.53298611111111  7.42717633928571 2.265625  C 7.07021949404762 1.99826388888889  6.6796875 1.77604166666667  6.25558035714286 1.59895833333333  C 5.83147321428571 1.421875  5.43563988095238 1.33333333333333  5.06808035714286 1.33333333333333  C 4.70052083333333 1.33333333333333  4.35416666666667 1.36111111111111  4.02901785714286 1.41666666666667  C 3.70386904761905 1.47222222222222  3.37165178571429 1.57986111111111  3.03236607142857 1.73958333333333  C 2.69308035714286 1.89930555555556  2.40504092261905 2.10590277777778  2.16824776785714 2.359375  C 1.93145461309524 2.61284722222222  1.73707217261905 2.95486111111111  1.58510044642857 3.38541666666667  C 1.4331287202381 3.81597222222222  1.35714285714286 4.3125  1.35714285714286 4.875  C 1.35714285714286 6.04166666666667  2.01804315476191 7.27430555555556  3.33984375 8.57291666666667  L 9.5 14.40625  L 15.6495535714286 8.58333333333333  Z M 17.6534598214286 1.29166666666667  C 18.5511532738095 2.15277777777778  19 3.34722222222222  19 4.875  C 19 6.40972222222222  18.190662202381 7.97222222222222  16.5719866071429 9.5625  L 9.96651785714286 15.8125  C 9.83928571428572 15.9375  9.68377976190476 16  9.5 16  C 9.31622023809524 16  9.16071428571429 15.9375  9.03348214285714 15.8125  L 2.41741071428571 9.54166666666667  C 2.34672619047619 9.48611111111111  2.2495349702381 9.39583333333333  2.12583705357143 9.27083333333333  C 2.00213913690476 9.14583333333333  1.80598958333333 8.91840277777778  1.53738839285714 8.58854166666667  C 1.26878720238095 8.25868055555555  1.02845982142857 7.92013888888889  0.81640625 7.57291666666667  C 0.604352678571428 7.22569444444444  0.415271577380952 6.80555555555556  0.249162946428571 6.3125  C 0.0830543154761905 5.81944444444444  0 5.34027777777778  0 4.875  C 0 3.34722222222222  0.448846726190476 2.15277777777778  1.34654017857143 1.29166666666667  C 2.24423363095238 0.430555555555555  3.48474702380952 0  5.06808035714286 0  C 5.50632440476191 0  5.95340401785714 0.0746527777777768  6.40931919642857 0.223958333333334  C 6.865234375 0.373263888888888  7.28934151785714 0.574652777777777  7.681640625 0.828125  C 8.07393973214286 1.08159722222222  8.41145833333334 1.31944444444444  8.69419642857143 1.54166666666667  C 8.97693452380953 1.76388888888889  9.24553571428571 2  9.5 2.25  C 9.75446428571428 2  10.0230654761905 1.76388888888889  10.3058035714286 1.54166666666667  C 10.5885416666667 1.31944444444444  10.9260602678571 1.08159722222222  11.318359375 0.828125  C 11.7106584821429 0.574652777777777  12.134765625 0.373263888888888  12.5906808035714 0.223958333333334  C 13.0465959821429 0.0746527777777768  13.4936755952381 0  13.9319196428571 0  C 15.5152529761905 0  16.7557663690476 0.430555555555555  17.6534598214286 1.29166666666667  Z " fill-rule="nonzero" fill="#7f7f7f" stroke="none" transform="matrix(1 0 0 1 81 187 )" />
  </g>
</svg>