<?xml version="1.0" encoding="utf-8"?>
<svg version="1.1" xmlns:xlink="http://www.w3.org/1999/xlink" width="4px" height="6px" xmlns="http://www.w3.org/2000/svg">
  <g transform="matrix(1 0 0 1 -290 -130 )">
    <path d="M 3.90627983072917 2.93502728515625  C 3.90627983072917 1.34116580078125  3.0418033203125 0.0444510351562428  1.9794023046875 0.0444510156249862  C 0.917014622395834 0.0444510156249862  0.0525381119791689 1.34116578125  0.0525381119791689 2.93502728515625  C 0.0525381119791689 4.52860880859376  0.917014622395834 5.82534357421875  1.9794023046875 5.82534355468749  C 3.04178998697917 5.82534353515624  3.90627983072917 4.5286087890625  3.90627983072917 2.93502728515625  Z M 3.17528170572917 2.93502728515625  C 3.1752950390625 3.92415650390626  2.6388351171875 4.72884638671874  1.9794023046875 4.72884636718751  C 1.31998282552083 4.72884636718751  0.783522903645834 3.924156484375  0.783522916666666 2.93502728515625  C 0.783522916666666 1.94589806640624  1.31998283854167 1.14092822265624  1.9794023046875 1.14092822265624  C 2.63882178385417 1.14092822265624  3.17528170572917 1.94589806640624  3.17528170572917 2.93502728515625  Z " fill-rule="nonzero" fill="#999999" stroke="none" transform="matrix(1 0 0 1 290 130 )" />
  </g>
</svg>