<?xml version="1.0" encoding="utf-8"?>
<svg version="1.1" xmlns:xlink="http://www.w3.org/1999/xlink" width="31px" height="30px" xmlns="http://www.w3.org/2000/svg">
  <g transform="matrix(1 0 0 1 -8 -7 )">
    <path d="M 9.47991071428572 1.18861607142857  C 11.3943452380952 0.396205357142857  13.4010416666667 0  15.5 0  C 17.5989583333333 0  19.6056547619048 0.396205357142857  21.5200892857143 1.18861607142857  C 23.4345238095238 1.98102678571428  25.0837053571429 3.046875  26.4676339285714 4.38616071428571  C 27.8515625 5.72544642857143  28.9529389880952 7.32142857142857  29.7717633928571 9.17410714285714  C 30.5905877976191 11.0267857142857  31 12.96875  31 15  C 31 17.0200892857143  30.5934709821429 18.9564732142857  29.7804129464286 20.8091517857143  C 28.9673549107143 22.6618303571429  27.8688616071429 24.2578125  26.4849330357143 25.5970982142857  C 25.1010044642857 26.9363839285714  23.4518229166667 28.0050223214286  21.5373883928571 28.8030133928571  C 19.6229538690476 29.6010044642857  17.6104910714286 30  15.5 30  C 13.3895089285714 30  11.3770461309524 29.6037946428571  9.46261160714286 28.8113839285714  C 7.54817708333333 28.0189732142857  5.9018787202381 26.9503348214286  4.52371651785714 25.60546875  C 3.14555431547619 24.2606026785714  2.04706101190476 22.6646205357143  1.22823660714286 20.8175223214286  C 0.409412202380952 18.9704241071429  0 17.03125  0 15  C 0 12.96875  0.409412202380952 11.0267857142857  1.22823660714286 9.17410714285714  C 2.04706101190476 7.32142857142857  3.1484375 5.72544642857143  4.53236607142857 4.38616071428571  C 5.91629464285714 3.046875  7.56547619047619 1.98102678571428  9.47991071428572 1.18861607142857  Z M 20.9146205357143 17.1428571428571  C 23.6824776785714 17.1428571428571  25.4469866071429 18.9676339285714  26.2081473214286 22.6171875  C 27.9265252976191 20.3292410714286  28.7857142857143 17.7901785714286  28.7857142857143 15  C 28.7857142857143 13.2589285714286  28.4339657738095 11.5959821428571  27.73046875 10.0111607142857  C 27.0269717261905 8.42633928571428  26.081287202381 7.05915178571428  24.8934151785714 5.90959821428571  C 23.7055431547619 4.76004464285714  22.2927827380952 3.84486607142857  20.6551339285714 3.1640625  C 19.0174851190476 2.48325892857143  17.2991071428571 2.14285714285714  15.5 2.14285714285714  C 13.7008928571429 2.14285714285714  11.9825148809524 2.48325892857143  10.3448660714286 3.1640625  C 8.70721726190476 3.84486607142857  7.2944568452381 4.76004464285714  6.10658482142857 5.90959821428571  C 4.91871279761905 7.05915178571428  3.97302827380952 8.42633928571428  3.26953125 10.0111607142857  C 2.56603422619048 11.5959821428571  2.21428571428571 13.2589285714286  2.21428571428571 15  C 2.21428571428571 17.7901785714286  3.07347470238095 20.3292410714286  4.79185267857143 22.6171875  C 5.55301339285714 18.9676339285714  7.31752232142857 17.1428571428571  10.0853794642857 17.1428571428571  C 11.5961681547619 18.5714285714286  13.4010416666667 19.2857142857143  15.5 19.2857142857143  C 17.5989583333333 19.2857142857143  19.4038318452381 18.5714285714286  20.9146205357143 17.1428571428571  Z M 20.1967075892857 16.3309151785714  C 21.494140625 15.0753348214286  22.1428571428571 13.5602678571429  22.1428571428571 11.7857142857143  C 22.1428571428571 10.0111607142857  21.494140625 8.49609375  20.1967075892857 7.24051339285714  C 18.8992745535714 5.98493303571429  17.3337053571429 5.35714285714286  15.5 5.35714285714286  C 13.6662946428571 5.35714285714286  12.1007254464286 5.98493303571429  10.8032924107143 7.24051339285714  C 9.505859375 8.49609375  8.85714285714286 10.0111607142857  8.85714285714286 11.7857142857143  C 8.85714285714286 13.5602678571429  9.505859375 15.0753348214286  10.8032924107143 16.3309151785714  C 12.1007254464286 17.5864955357143  13.6662946428571 18.2142857142857  15.5 18.2142857142857  C 17.3337053571429 18.2142857142857  18.8992745535714 17.5864955357143  20.1967075892857 16.3309151785714  Z " fill-rule="nonzero" fill="#aaaaaa" stroke="none" transform="matrix(1 0 0 1 8 7 )" />
  </g>
</svg>