<?xml version="1.0" encoding="utf-8"?>
<svg version="1.1" xmlns:xlink="http://www.w3.org/1999/xlink" width="15px" height="15px" xmlns="http://www.w3.org/2000/svg">
  <g transform="matrix(1 0 0 1 -20 -22 )">
    <path d="M 7.5 14.3303571428571  C 7.59615384615385 14.3303571428571  7.64423076923077 14.2857142857143  7.64423076923077 14.1964285714286  C 7.64423076923077 14.1071428571429  7.59615384615385 14.0625  7.5 14.0625  C 7.14543269230769 14.0625  6.84044471153846 13.9439174107143  6.58503605769231 13.7067522321429  C 6.32962740384615 13.4695870535714  6.20192307692308 13.1863839285714  6.20192307692308 12.8571428571429  C 6.20192307692308 12.7678571428571  6.15384615384615 12.7232142857143  6.05769230769231 12.7232142857143  C 5.96153846153846 12.7232142857143  5.91346153846154 12.7678571428571  5.91346153846154 12.8571428571429  C 5.91346153846154 13.2645089285714  6.06820913461539 13.6118861607143  6.37770432692308 13.8992745535714  C 6.68719951923077 14.1866629464286  7.06129807692308 14.3303571428571  7.5 14.3303571428571  Z M 14.1796875 11.0491071428571  C 14.4260817307692 11.3058035714286  14.6995192307692 11.5513392857143  15 11.7857142857143  C 15 12.0758928571429  14.8858173076923 12.3270089285714  14.6574519230769 12.5390625  C 14.4290865384615 12.7511160714286  14.1586538461538 12.8571428571429  13.8461538461538 12.8571428571429  L 9.80769230769231 12.8571428571429  C 9.80769230769231 13.4486607142857  9.58233173076923 13.9536830357143  9.13161057692308 14.3722098214286  C 8.68088942307692 14.7907366071429  8.13701923076923 15  7.5 15  C 6.86298076923077 15  6.31911057692308 14.7907366071429  5.86838942307692 14.3722098214286  C 5.41766826923077 13.9536830357143  5.19230769230769 13.4486607142857  5.19230769230769 12.8571428571429  L 1.15384615384615 12.8571428571429  C 0.841346153846154 12.8571428571429  0.570913461538462 12.7511160714286  0.342548076923077 12.5390625  C 0.114182692307692 12.3270089285714  0 12.0758928571429  0 11.7857142857143  C 0.300480769230769 11.5513392857143  0.573918269230769 11.3058035714286  0.8203125 11.0491071428571  C 1.06670673076923 10.7924107142857  1.32211538461538 10.458984375  1.58653846153846 10.048828125  C 1.85096153846154 9.638671875  2.07481971153846 9.19642857142857  2.25811298076923 8.72209821428572  C 2.44140625 8.24776785714286  2.59164663461538 7.67299107142857  2.70883413461538 6.99776785714286  C 2.82602163461538 6.32254464285714  2.88461538461538 5.59709821428571  2.88461538461538 4.82142857142857  C 2.88461538461538 3.97321428571428  3.23617788461538 3.18498883928571  3.93930288461538 2.45675223214286  C 4.64242788461538 1.728515625  5.56490384615385 1.28627232142857  6.70673076923077 1.13002232142857  C 6.65865384615385 1.02399553571428  6.63461538461538 0.915178571428572  6.63461538461538 0.803571428571429  C 6.63461538461538 0.580357142857142  6.71875 0.390624999999999  6.88701923076923 0.234375  C 7.05528846153846 0.0781250000000006  7.25961538461539 0  7.5 0  C 7.74038461538462 0  7.94471153846154 0.0781250000000006  8.11298076923077 0.234375  C 8.28125 0.390624999999999  8.36538461538462 0.580357142857142  8.36538461538462 0.803571428571429  C 8.36538461538462 0.915178571428572  8.34134615384615 1.02399553571428  8.29326923076923 1.13002232142857  C 9.43509615384616 1.28627232142857  10.3575721153846 1.728515625  11.0606971153846 2.45675223214286  C 11.7638221153846 3.18498883928571  12.1153846153846 3.97321428571428  12.1153846153846 4.82142857142857  C 12.1153846153846 5.59709821428571  12.1739783653846 6.32254464285714  12.2911658653846 6.99776785714286  C 12.4083533653846 7.67299107142857  12.55859375 8.24776785714286  12.7418870192308 8.72209821428572  C 12.9251802884615 9.19642857142857  13.1490384615385 9.638671875  13.4134615384615 10.048828125  C 13.6778846153846 10.458984375  13.9332932692308 10.7924107142857  14.1796875 11.0491071428571  Z " fill-rule="nonzero" fill="#ffffff" stroke="none" transform="matrix(1 0 0 1 20 22 )" />
  </g>
</svg>