<?xml version="1.0" encoding="utf-8"?>
<svg version="1.1" xmlns:xlink="http://www.w3.org/1999/xlink" width="14px" height="12px" xmlns="http://www.w3.org/2000/svg">
  <g transform="matrix(1 0 0 1 -285 -127 )">
    <path d="M 13.7708238888889 5.93474730468751  L 13.69274375 5.71069240234374  C 12.685229921875 2.81797638671875  9.92315260416667 0.797682656250004  6.97596935546875 0.797682656250004  C 4.02878610677083 0.797682656250004  1.26672434461805 2.81797638671875  0.259210516493054 5.71069240234374  L 0.181130377604166 5.93474730468751  L 0.259210516493054 6.15880220703124  C 1.11910310980903 8.62776568359374  3.70232711588542 11.12696578125  6.97596935546875 11.12696578125  C 10.2496115950521 11.12696578125  12.8328356011285 8.62776568359374  13.69274375 6.15880220703124  L 13.7708238888889 5.93474730468751  Z M 12.8307669552951 5.93502728515625  C 12.0070992100694 8.00591533203124  9.78553246744792 10.03048859375  6.97596935546875 10.03048859375  C 4.16642179904514 10.03048859375  1.94483951605903 8.00591535156249  1.12117175564236 5.93502728515625  C 1.93692261935764 3.89117619140626  4.15558079210069 1.89415986328126  6.97596935546875 1.89415986328126  C 9.7963579188368 1.89415986328126  12.0150160915799 3.89117619140626  12.8307669552951 5.93502728515625  Z " fill-rule="nonzero" fill="#999999" stroke="none" transform="matrix(1 0 0 1 285 127 )" />
  </g>
</svg>