<?xml version="1.0" encoding="utf-8"?>
<svg version="1.1" xmlns:xlink="http://www.w3.org/1999/xlink" width="12px" height="12px" xmlns="http://www.w3.org/2000/svg">
  <g transform="matrix(1 0 0 1 -195 -127 )">
    <path d="M 9.88392857142857 6.4375  C 10.7232142857143 5.45833333333333  11.1428571428571 4.53125  11.1428571428571 3.65625  C 11.1428571428571 3.234375  11.0948660714286 2.86197916666667  10.9988839285714 2.5390625  C 10.9029017857143 2.21614583333333  10.7801339285714 1.95963541666667  10.6305803571429 1.76953125  C 10.4810267857143 1.57942708333333  10.2991071428571 1.42447916666667  10.0848214285714 1.3046875  C 9.87053571428572 1.18489583333333  9.66071428571429 1.10416666666667  9.45535714285714 1.0625  C 9.25 1.02083333333333  9.03125 1  8.79910714285714 1  C 8.56696428571429 1  8.31696428571428 1.06640625  8.04910714285714 1.19921875  C 7.78125 1.33203125  7.53459821428571 1.49869791666667  7.30915178571428 1.69921875  C 7.08370535714286 1.89973958333333  6.890625 2.08723958333333  6.72991071428572 2.26171875  C 6.56919642857143 2.43619791666667  6.43526785714286 2.59635416666667  6.328125 2.7421875  C 6.24776785714286 2.85677083333333  6.13839285714286 2.9140625  6 2.9140625  C 5.86160714285714 2.9140625  5.75223214285714 2.85677083333333  5.671875 2.7421875  C 5.56473214285714 2.59635416666667  5.43080357142857 2.43619791666667  5.27008928571429 2.26171875  C 5.109375 2.08723958333333  4.91629464285714 1.89973958333333  4.69084821428571 1.69921875  C 4.46540178571429 1.49869791666667  4.21875 1.33203125  3.95089285714286 1.19921875  C 3.68303571428571 1.06640625  3.43303571428572 1  3.20089285714286 1  C 2.96875 1  2.75 1.02083333333333  2.54464285714286 1.0625  C 2.33928571428571 1.10416666666667  2.12946428571429 1.18489583333333  1.91517857142857 1.3046875  C 1.70089285714286 1.42447916666667  1.51897321428571 1.57942708333333  1.36941964285714 1.76953125  C 1.21986607142857 1.95963541666667  1.09709821428571 2.21614583333333  1.00111607142857 2.5390625  C 0.905133928571429 2.86197916666667  0.857142857142857 3.234375  0.857142857142857 3.65625  C 0.857142857142857 4.53125  1.27455357142857 5.45572916666667  2.109375 6.4296875  L 6 10.8046875  L 9.88392857142857 6.4375  Z M 11.1495535714286 0.96875  C 11.7165178571429 1.61458333333333  12 2.51041666666667  12 3.65625  C 12 4.80729166666667  11.4888392857143 5.97916666666667  10.4665178571429 7.171875  L 6.29464285714286 11.859375  C 6.21428571428572 11.953125  6.11607142857143 12  6 12  C 5.88392857142857 12  5.78571428571429 11.953125  5.70535714285714 11.859375  L 1.52678571428571 7.15625  C 1.48214285714286 7.11458333333333  1.42075892857143 7.046875  1.34263392857143 6.953125  C 1.26450892857143 6.859375  1.140625 6.68880208333333  0.970982142857143 6.44140625  C 0.801339285714286 6.19401041666667  0.649553571428571 5.94010416666667  0.515625 5.6796875  C 0.381696428571429 5.41927083333333  0.262276785714286 5.10416666666667  0.157366071428571 4.734375  C 0.0524553571428571 4.36458333333333  0 4.00520833333333  0 3.65625  C 0 2.51041666666667  0.283482142857143 1.61458333333333  0.850446428571429 0.96875  C 1.41741071428571 0.322916666666667  2.20089285714286 0  3.20089285714286 0  C 3.47767857142857 0  3.76004464285714 0.0559895833333326  4.04799107142857 0.16796875  C 4.3359375 0.279947916666666  4.60379464285714 0.430989583333333  4.8515625 0.62109375  C 5.09933035714286 0.811197916666666  5.3125 0.989583333333332  5.49107142857143 1.15625  C 5.66964285714286 1.32291666666667  5.83928571428571 1.5  6 1.6875  C 6.16071428571428 1.5  6.33035714285714 1.32291666666667  6.50892857142857 1.15625  C 6.6875 0.989583333333332  6.90066964285714 0.811197916666666  7.1484375 0.62109375  C 7.39620535714286 0.430989583333333  7.6640625 0.279947916666666  7.95200892857143 0.16796875  C 8.23995535714286 0.0559895833333326  8.52232142857143 0  8.79910714285714 0  C 9.79910714285714 0  10.5825892857143 0.322916666666667  11.1495535714286 0.96875  Z " fill-rule="nonzero" fill="#999999" stroke="none" transform="matrix(1 0 0 1 195 127 )" />
  </g>
</svg>