<?xml version="1.0" encoding="utf-8"?>
<svg version="1.1" xmlns:xlink="http://www.w3.org/1999/xlink" width="110px" height="111px" xmlns="http://www.w3.org/2000/svg">
  <g transform="matrix(1 0 0 1 -8 -83 )">
    <path d="M 8 83  L 118 83  L 118 194  L 8 194  L 8 83  " fill-rule="nonzero" fill="#cccccc" stroke="none" />
    <path d="M 16 91  L 110 91  L 110 186  L 16 186  L 16 91  " fill-rule="nonzero" fill="#ffffff" stroke="none" />
    <path d="M 73.45 116.15  C 68.83 116.15  65.2 112.52  65.2 107.9  C 65.2 103.28  68.83 99.65  73.45 99.65  C 78.07 99.65  81.7 103.28  81.7 107.9  C 81.7 112.52  78.07 116.15  73.45 116.15  " fill-rule="nonzero" fill="#cccccc" stroke="none" />
    <path d="M 19 183  L 19 134.05  L 41 111.8  L 71.8 129.6  L 89.4 125.15  L 107 129.6  L 107 183  L 19 183  " fill-rule="nonzero" fill="#169bd5" stroke="none" />
  </g>
</svg>