<?xml version="1.0" encoding="utf-8"?>
<svg version="1.1" xmlns:xlink="http://www.w3.org/1999/xlink" width="22px" height="23px" xmlns="http://www.w3.org/2000/svg">
  <g transform="matrix(1 0 0 1 -17 -18 )">
    <path d="M 28 18  C 34.16 18  39 23.06  39 29.5  C 39 35.94  34.16 41  28 41  C 21.84 41  17 35.94  17 29.5  C 17 23.06  21.84 18  28 18  Z " fill-rule="nonzero" fill="#f3b64d" stroke="none" />
    <path d="M 28 18.5  C 33.88 18.5  38.5 23.34  38.5 29.5  C 38.5 35.66  33.88 40.5  28 40.5  C 22.12 40.5  17.5 35.66  17.5 29.5  C 17.5 23.34  22.12 18.5  28 18.5  Z " stroke-width="1" stroke="#f3b64d" fill="none" />
  </g>
</svg>