<?xml version="1.0" encoding="utf-8"?>
<svg version="1.1" xmlns:xlink="http://www.w3.org/1999/xlink" width="15px" height="14px" xmlns="http://www.w3.org/2000/svg">
  <g transform="matrix(1 0 0 1 -19 -199 )">
    <path d="M 7.5 13.375  C 7.59615384615385 13.375  7.64423076923077 13.3333333333333  7.64423076923077 13.25  C 7.64423076923077 13.1666666666667  7.59615384615385 13.125  7.5 13.125  C 7.14543269230769 13.125  6.84044471153846 13.0143229166667  6.58503605769231 12.79296875  C 6.32962740384615 12.5716145833333  6.20192307692308 12.3072916666667  6.20192307692308 12  C 6.20192307692308 11.9166666666667  6.15384615384615 11.875  6.05769230769231 11.875  C 5.96153846153846 11.875  5.91346153846154 11.9166666666667  5.91346153846154 12  C 5.91346153846154 12.3802083333333  6.06820913461539 12.7044270833333  6.37770432692308 12.97265625  C 6.68719951923077 13.2408854166667  7.06129807692308 13.375  7.5 13.375  Z M 14.1796875 10.3125  C 14.4260817307692 10.5520833333333  14.6995192307692 10.78125  15 11  C 15 11.2708333333333  14.8858173076923 11.5052083333333  14.6574519230769 11.703125  C 14.4290865384615 11.9010416666667  14.1586538461538 12  13.8461538461538 12  L 9.80769230769231 12  C 9.80769230769231 12.5520833333333  9.58233173076923 13.0234375  9.13161057692308 13.4140625  C 8.68088942307692 13.8046875  8.13701923076923 14  7.5 14  C 6.86298076923077 14  6.31911057692308 13.8046875  5.86838942307692 13.4140625  C 5.41766826923077 13.0234375  5.19230769230769 12.5520833333333  5.19230769230769 12  L 1.15384615384615 12  C 0.841346153846154 12  0.570913461538462 11.9010416666667  0.342548076923077 11.703125  C 0.114182692307692 11.5052083333333  0 11.2708333333333  0 11  C 0.300480769230769 10.78125  0.573918269230769 10.5520833333333  0.8203125 10.3125  C 1.06670673076923 10.0729166666667  1.32211538461538 9.76171875  1.58653846153846 9.37890625  C 1.85096153846154 8.99609375  2.07481971153846 8.58333333333333  2.25811298076923 8.140625  C 2.44140625 7.69791666666667  2.59164663461538 7.16145833333333  2.70883413461538 6.53125  C 2.82602163461538 5.90104166666667  2.88461538461538 5.22395833333333  2.88461538461538 4.5  C 2.88461538461538 3.70833333333333  3.23617788461538 2.97265625  3.93930288461538 2.29296875  C 4.64242788461538 1.61328125  5.56490384615385 1.20052083333333  6.70673076923077 1.0546875  C 6.65865384615385 0.955729166666665  6.63461538461538 0.854166666666667  6.63461538461538 0.75  C 6.63461538461538 0.541666666666666  6.71875 0.364583333333333  6.88701923076923 0.21875  C 7.05528846153846 0.0729166666666672  7.25961538461539 0  7.5 0  C 7.74038461538462 0  7.94471153846154 0.0729166666666672  8.11298076923077 0.21875  C 8.28125 0.364583333333333  8.36538461538462 0.541666666666666  8.36538461538462 0.75  C 8.36538461538462 0.854166666666667  8.34134615384615 0.955729166666665  8.29326923076923 1.0546875  C 9.43509615384616 1.20052083333333  10.3575721153846 1.61328125  11.0606971153846 2.29296875  C 11.7638221153846 2.97265625  12.1153846153846 3.70833333333333  12.1153846153846 4.5  C 12.1153846153846 5.22395833333333  12.1739783653846 5.90104166666667  12.2911658653846 6.53125  C 12.4083533653846 7.16145833333333  12.55859375 7.69791666666667  12.7418870192308 8.140625  C 12.9251802884615 8.58333333333333  13.1490384615385 8.99609375  13.4134615384615 9.37890625  C 13.6778846153846 9.76171875  13.9332932692308 10.0729166666667  14.1796875 10.3125  Z " fill-rule="nonzero" fill="#ffffff" stroke="none" transform="matrix(1 0 0 1 19 199 )" />
  </g>
</svg>