<?xml version="1.0" encoding="utf-8"?>
<svg version="1.1" xmlns:xlink="http://www.w3.org/1999/xlink" width="21px" height="20px" xmlns="http://www.w3.org/2000/svg">
  <g transform="matrix(1 0 0 1 -260 -35 )">
    <path d="M 270.5 35  C 276.38 35  281 39.4  281 45  C 281 50.6  276.38 55  270.5 55  C 264.62 55  260 50.6  260 45  C 260 39.4  264.62 35  270.5 35  Z " fill-rule="nonzero" fill="#ffffff" stroke="none" />
    <path d="M 270.5 35.5  C 276.1 35.5  280.5 39.68  280.5 45  C 280.5 50.32  276.1 54.5  270.5 54.5  C 264.9 54.5  260.5 50.32  260.5 45  C 260.5 39.68  264.9 35.5  270.5 35.5  Z " stroke-width="1" stroke="#aaaaaa" fill="none" />
  </g>
</svg>