<?xml version="1.0" encoding="utf-8"?>
<svg version="1.1" xmlns:xlink="http://www.w3.org/1999/xlink" width="13px" height="14px" xmlns="http://www.w3.org/2000/svg">
  <g transform="matrix(1 0 0 1 -264 -38 )">
    <path d="M 7.97265625 8.5859375  C 8.65755208333333 7.84835737179487  9 6.96073717948718  9 5.92307692307692  C 9 4.88541666666667  8.65755208333333 3.99779647435897  7.97265625 3.26021634615385  C 7.28776041666667 2.52263621794872  6.46354166666667 2.15384615384615  5.5 2.15384615384615  C 4.53645833333333 2.15384615384615  3.71223958333333 2.52263621794872  3.02734375 3.26021634615385  C 2.34244791666667 3.99779647435897  2 4.88541666666667  2 5.92307692307692  C 2 6.96073717948718  2.34244791666667 7.84835737179487  3.02734375 8.5859375  C 3.71223958333333 9.32351762820513  4.53645833333333 9.69230769230769  5.5 9.69230769230769  C 6.46354166666667 9.69230769230769  7.28776041666667 9.32351762820513  7.97265625 8.5859375  Z M 12.7109375 12.1658653846154  C 12.9036458333333 12.3733974358974  13 12.6258012820513  13 12.9230769230769  C 13 13.2147435897436  12.9010416666667 13.4671474358974  12.703125 13.6802884615385  C 12.5052083333333 13.8934294871795  12.2708333333333 14  12 14  C 11.71875 14  11.484375 13.8934294871795  11.296875 13.6802884615385  L 8.6171875 10.8028846153846  C 7.68489583333333 11.4983974358974  6.64583333333333 11.8461538461538  5.5 11.8461538461538  C 4.75520833333333 11.8461538461538  4.04296875 11.6905048076923  3.36328125 11.3792067307692  C 2.68359375 11.0679086538462  2.09765625 10.6472355769231  1.60546875 10.1171875  C 1.11328125 9.58713942307692  0.72265625 8.95612980769231  0.43359375 8.22415865384615  C 0.14453125 7.4921875  0 6.72516025641026  0 5.92307692307692  C 0 5.12099358974359  0.14453125 4.35396634615385  0.43359375 3.62199519230769  C 0.72265625 2.89002403846154  1.11328125 2.25901442307692  1.60546875 1.72896634615385  C 2.09765625 1.19891826923077  2.68359375 0.778245192307692  3.36328125 0.466947115384616  C 4.04296875 0.155649038461538  4.75520833333333 0  5.5 0  C 6.24479166666667 0  6.95703125 0.155649038461538  7.63671875 0.466947115384616  C 8.31640625 0.778245192307692  8.90234375 1.19891826923077  9.39453125 1.72896634615385  C 9.88671875 2.25901442307692  10.27734375 2.89002403846154  10.56640625 3.62199519230769  C 10.85546875 4.35396634615385  11 5.12099358974359  11 5.92307692307692  C 11 7.15705128205128  10.6770833333333 8.27604166666667  10.03125 9.28004807692308  L 12.7109375 12.1658653846154  Z " fill-rule="nonzero" fill="#aaaaaa" stroke="none" transform="matrix(1 0 0 1 264 38 )" />
  </g>
</svg>