<?xml version="1.0" encoding="utf-8"?>
<svg version="1.1" xmlns:xlink="http://www.w3.org/1999/xlink" width="20px" height="19px" xmlns="http://www.w3.org/2000/svg">
  <g transform="matrix(1 0 0 1 -342 -117 )">
    <path d="M 14.7135416666667 12.8645833333333  C 14.8784722222222 12.7078993055556  14.9609375 12.5182291666667  14.9609375 12.2955729166667  C 14.9609375 12.0811631944444  14.8784722222222 11.8956163194444  14.7135416666667 11.7389322916667  L 12.3567708333333 9.5  L 14.7135416666667 7.26106770833333  C 14.8784722222222 7.10438368055555  14.9609375 6.91883680555555  14.9609375 6.70442708333333  C 14.9609375 6.48177083333333  14.8784722222222 6.29210069444444  14.7135416666667 6.13541666666667  L 13.5416666666667 5.02213541666667  C 13.3767361111111 4.86545138888889  13.1770833333333 4.787109375  12.9427083333333 4.787109375  C 12.7170138888889 4.787109375  12.5217013888889 4.86545138888889  12.3567708333333 5.02213541666667  L 10 7.26106770833333  L 7.64322916666667 5.02213541666667  C 7.47829861111111 4.86545138888889  7.28298611111111 4.787109375  7.05729166666667 4.787109375  C 6.82291666666667 4.787109375  6.62326388888889 4.86545138888889  6.45833333333333 5.02213541666667  L 5.28645833333333 6.13541666666667  C 5.12152777777778 6.29210069444444  5.0390625 6.48177083333333  5.0390625 6.70442708333333  C 5.0390625 6.91883680555555  5.12152777777778 7.10438368055555  5.28645833333333 7.26106770833333  L 7.64322916666667 9.5  L 5.28645833333333 11.7389322916667  C 5.12152777777778 11.8956163194444  5.0390625 12.0811631944444  5.0390625 12.2955729166667  C 5.0390625 12.5182291666667  5.12152777777778 12.7078993055556  5.28645833333333 12.8645833333333  L 6.45833333333333 13.9778645833333  C 6.62326388888889 14.1345486111111  6.82291666666667 14.212890625  7.05729166666667 14.212890625  C 7.28298611111111 14.212890625  7.47829861111111 14.1345486111111  7.64322916666667 13.9778645833333  L 10 11.7389322916667  L 12.3567708333333 13.9778645833333  C 12.5217013888889 14.1345486111111  12.7170138888889 14.212890625  12.9427083333333 14.212890625  C 13.1770833333333 14.212890625  13.3767361111111 14.1345486111111  13.5416666666667 13.9778645833333  L 14.7135416666667 12.8645833333333  Z M 18.6588541666667 4.7314453125  C 19.5529513888889 6.18695746527778  20 7.77647569444444  20 9.5  C 20 11.2235243055556  19.5529513888889 12.8130425347222  18.6588541666667 14.2685546875  C 17.7647569444444 15.7240668402778  16.5516493055556 16.8765190972222  15.01953125 17.7259114583333  C 13.4874131944444 18.5753038194444  11.8142361111111 19  10 19  C 8.18576388888889 19  6.51258680555556 18.5753038194444  4.98046875 17.7259114583333  C 3.44835069444444 16.8765190972222  2.23524305555556 15.7240668402778  1.34114583333333 14.2685546875  C 0.447048611111111 12.8130425347222  0 11.2235243055556  0 9.5  C 0 7.77647569444444  0.447048611111111 6.18695746527778  1.34114583333333 4.7314453125  C 2.23524305555556 3.27593315972222  3.44835069444444 2.12348090277778  4.98046875 1.27408854166667  C 6.51258680555556 0.424696180555554  8.18576388888889 0  10 0  C 11.8142361111111 0  13.4874131944444 0.424696180555554  15.01953125 1.27408854166667  C 16.5516493055556 2.12348090277778  17.7647569444444 3.27593315972222  18.6588541666667 4.7314453125  Z " fill-rule="nonzero" fill="#aaaaaa" stroke="none" transform="matrix(1 0 0 1 342 117 )" />
  </g>
</svg>