<?xml version="1.0" encoding="utf-8"?>
<svg version="1.1" xmlns:xlink="http://www.w3.org/1999/xlink" width="21px" height="21px" xmlns="http://www.w3.org/2000/svg">
  <g transform="matrix(1 0 0 1 -27 -27 )">
    <path d="M 21 1.6765167371506  C 20.9999788739076 0.714123675489081  20.1743987730499 0  19.2512714703256 0  L 1.67820965391501 0  C 0.755103477283132 0  0 0.714123675489081  0 1.6765167371506  L 0 18.4864460842536  C 0 19.4488171564495  0.755082351190737 20.2363636363637  1.67820965391501 20  L 19.3913159857351 20  C 20.314422162367 20.2363636363637  21 19.4488171564495  21 18.4864460842536  L 21 1.6765167371506  Z M 4.19100180869266 5.16539782020794  C 4.19100180869266 3.6866475234829  5.34362716042774 2.48795093465933  6.76531041857363 2.48795093465933  C 8.18697255062712 2.48795093465933  9.33961902845463 3.68666953444363  9.33961902845463 5.16539782020794  C 9.33961902845463 6.64412610597221  8.18699367671951 7.84284470575651  6.76531041857363 7.84284470575651  C 5.34362716042778 7.84284470575651  4.19100180869266 6.64412610597221  4.19100180869266 5.16539782020794  Z M 18.9522477610135 18.1116994390569  C 18.9337569163208 18.1069702852596  2.3717755293513 18.1142949698305  2.36378747089688 18.1142949698305  C 2.1707639817985 18.1142949698305  1.97624010646671 18.0450734000657  1.818233022581 17.903462853189  C 1.46618810804638 17.5890953471623  1.42519122203909 17.0368845784839  1.72721570381798 16.6699025146473  L 5.58616387020437 10.6155124477373  C 5.87271942650087 10.2667871216639  6.36876061283627 10.2084755941305  6.72329917036467 10.4817544830736  L 10.1281962518811 13.1138675164518  L 16.2289344879029 5.90032974231222  C 16.5179625404496 5.52296555538118  18.050654389587 3.74548694865829  18.9477465610111 5.76138071610129  C 18.9487397764692 5.75825728768573  18.9497541386709 8.4268397531737  18.950747354129 11.151622112637  C 18.9517405695872 13.9935774357699  18.9522477610135 18.1116994390569  18.9522477610135 18.1116994390569  Z " fill-rule="nonzero" fill="#fafbfc" stroke="none" transform="matrix(1 0 0 1 27 27 )" />
  </g>
</svg>