<?xml version="1.0" encoding="utf-8"?>
<svg version="1.1" xmlns:xlink="http://www.w3.org/1999/xlink" width="76px" height="36px" xmlns="http://www.w3.org/2000/svg">
  <defs>
    <mask fill="white" id="clip17">
      <path d="M 75 0  L 0 0  L 0 35  L 75 35  L 75 0  Z " fill-rule="evenodd" />
    </mask>
  </defs>
  <g transform="matrix(1 0 0 1 -28 -275 )">
    <path d="M 75 0  L 0 0  L 0 35  L 75 35  L 75 0  Z " fill-rule="nonzero" fill="#ffffff" stroke="none" transform="matrix(1 0 0 1 28 275 )" />
    <path d="M 75 0  L 0 0  L 0 35  L 75 35  L 75 0  Z " stroke-width="2" stroke="#999999" fill="none" transform="matrix(1 0 0 1 28 275 )" mask="url(#clip17)" />
    <path d="M 8.5 0  L 8.5 35  M 67.5 0  L 67.5 35  " stroke-width="1" stroke="#999999" fill="none" transform="matrix(1 0 0 1 28 275 )" mask="url(#clip17)" />
  </g>
</svg>