<?xml version="1.0" encoding="utf-8"?>
<svg version="1.1" xmlns:xlink="http://www.w3.org/1999/xlink" width="9px" height="16px" xmlns="http://www.w3.org/2000/svg">
  <g transform="matrix(1 0 0 1 -3 3 )">
    <path d="M 8.20787438095238 8.70555295238097  C 8.32139639682538 8.59203093650791  8.32215980952378 8.40824188888888  8.20961238095236 8.29379403174602  L 0.911798634920615 0.87323228571438  C 0.798585238095228 0.758134698412789  0.613480507936487 0.756559142857213  0.498334206349199 0.869788777777842  C 0.383204142857124 0.983002174603257  0.381661063492061 1.16812314285721  0.494890698412689 1.28325320634929  L 7.58937511111111 8.49707461904762  L 0.402484523809505 15.6839976984126  C 0.288312793650789 15.7981694285714  0.288312793650789 15.9832903968254  0.402484523809505 16.0974621269841  C 0.459578507936499 16.154556111111  0.534409809523794 16.183094984127  0.609224857142834 16.183094984127  C 0.684039904761903 16.183094984127  0.758871206349198 16.1545398730158  0.815965190476163 16.0974621269841  L 8.20787438095238 8.70555295238097  Z " fill-rule="nonzero" fill="#727272" stroke="none" transform="matrix(1 0 0 1 3 -3 )" />
  </g>
</svg>