<?xml version="1.0" encoding="utf-8"?>
<svg version="1.1" xmlns:xlink="http://www.w3.org/1999/xlink" width="80px" height="77px" xmlns="http://www.w3.org/2000/svg">
  <g transform="matrix(1 0 0 1 -120 -122 )">
    <path d="M 80 6.31213249772202  C 79.999919519648 2.68869565066677  76.8548524687615 0  73.3381770298118 0  L 6.39317963396201 0  C 2.8765846753642 0  0 2.68869565066677  0 6.31213249772202  L 0 69.6019875674632  C 0 73.2253416235634  2.87650419501233 76.1904761904761  6.39317963396201 76  L 73.8716799456576 76  C 77.3882749042552 76.1904761904761  80 73.2253416235634  80 69.6019875674632  L 80 6.31213249772202  Z M 15.965721175972 19.4478675470971  C 15.965721175972 13.8803312397422  20.3566748968677 9.36720499080241  25.7726111183758 9.36720499080241  C 31.188466859532 9.36720499080241  35.5795010607795 13.8804141116264  35.5795010607795 19.4478675470971  C 35.5795010607795 25.0153209825675  31.1885473398839 29.5285301033917  25.7726111183758 29.5285301033917  C 20.3566748968677 29.5285301033917  15.965721175972 25.0153209825675  15.965721175972 19.4478675470971  Z M 72.1990390895754 68.191055946477  C 72.1285977764601 68.1732505499014  9.0353353499097 68.2008281925764  9.00490465103582 68.2008281925764  C 8.26957707351801 68.2008281925764  7.52853373892077 67.940207042561  6.92660199078483 67.4070393651064  C 5.58547850684329 66.2234368951474  5.42929989348215 64.1443478760357  6.579869347878 62.7626501214633  L 21.2806242674453 39.9677018526027  C 22.372264481908 38.6547412273316  24.2619451917572 38.4351966920584  25.612568268056 39.4640993672389  L 38.583604769071 49.374078699686  L 61.8245123348682 22.214906829396  C 62.9255715826654 20.7941200904268  68.7643976746169 14.1018633244312  72.1818916609946 21.6917598518338  C 72.1856753389305 21.6800000563188  72.1895395758891 31.7272878226707  72.1933232538249 41.9861697647739  C 72.1971069317606 52.6862111987228  72.1990390895754 68.191055946477  72.1990390895754 68.191055946477  Z " fill-rule="nonzero" fill="#fafafa" stroke="none" transform="matrix(1 0 0 1 120 122 )" />
  </g>
</svg>