<?xml version="1.0" encoding="utf-8"?>
<svg version="1.1" xmlns:xlink="http://www.w3.org/1999/xlink" width="40px" height="27px" xmlns="http://www.w3.org/2000/svg">
  <g transform="matrix(1 0 0 1 -98 -22 )">
    <path d="M 14.3344933763587 26.5507116593071  C 14.1648258322011 26.7222475373641  13.94123828125 26.8082327190897  13.7176072944973 26.8082327190897  C 13.4977998046875 26.8082327190897  13.2779488790761 26.7252454993207  13.1089764775815 26.5588800526495  L 13.0494081606658 26.5002241847826  C 13.0450198284647 26.4958792883832  13.0406749320652 26.4915344344429  13.0363735139266 26.4871026664402  L 1.08803969938859 14.2085579144022  C 0.753918393342389 13.8651820227582  0.761391601562508 13.3159456946332  1.10476749320652 12.9818244310462  C 1.44809994904891 12.6477900390625  1.99733623471467 12.6552197690217  2.33145754076087 12.9985522248641  L 13.7213873556386 24.7032685971467  L 37.7356708984375 0.417821076766305  C 38.0725729025136 0.0771390115489154  38.6218092306386 0.0740541355298951  38.9624478600543 0.41091270380435  C 39.3031733610734 0.747771272078804  39.3062148012908 1.29705103600544  38.9693562330163 1.63773310122282  L 14.3344933763587 26.5507116593071  Z " fill-rule="nonzero" fill="#ffffff" stroke="none" transform="matrix(1 0 0 1 98 22 )" />
  </g>
</svg>