<?xml version="1.0" encoding="utf-8"?>
<svg version="1.1" xmlns:xlink="http://www.w3.org/1999/xlink" width="24px" height="26px" xmlns="http://www.w3.org/2000/svg">
  <g transform="matrix(1 0 0 1 -13 -12 )">
    <path d="M 1.76947265624995 14.88958984375  C 0.882128906250045 17.0998046875  0.7353515625 19.2071875  1.45001953124995 19.598681640625  C 1.94443359375009 19.87041015625  2.71417968749995 19.248759765625  3.43877929687505 18.1179296875  C 3.72629882812498 19.356455078125  4.43487304687505 20.46765625  5.44825195312501 21.365986328125  C 4.38711914062503 21.7795703125  3.69205078125003 22.45509765625  3.69205078125003 23.218779296875  C 3.69205078125003 24.47693359375  5.56939453125005 25.49259765625  7.88478515625002 25.49259765625  C 9.97379882812504 25.49259765625  11.704306640625 24.6677734375  12.023642578125 23.581064453125  L 12.520546875 23.581064453125  C 12.846181640625 24.6677734375  14.57291015625 25.49259765625  16.664326171875 25.49259765625  C 18.982294921875 25.49259765625  20.8571484375001 24.476875  20.8571484375001 23.218779296875  C 20.8571484375001 22.45509765625  20.163310546875 21.78455078125  19.09974609375 21.365986328125  C 20.1094335937501 20.46765625  20.8229296875001 19.356455078125  21.10798828125 18.1179296875  C 21.83244140625 19.248759765625  22.59861328125 19.87041015625  23.0954882812499 19.598681640625  C 23.81384765625 19.2071875  23.670673828125 17.0998046875  22.7748046874999 14.88958984375  C 22.07484375 13.159052734375  21.126357421875 11.881474609375  20.4031054687499 11.59515625  C 20.412890625 11.489921875  20.421474609375 11.373583984375  20.421474609375 11.2622265625  C 20.421474609375 10.591533203125  20.24279296875 9.97234374999999  19.93810546875 9.46808593750001  C 19.944287109375 9.42777343750001  19.944287109375 9.3898046875  19.944287109375 9.34943359375001  C 19.944287109375 9.039765625  19.87453125 8.75218749999999  19.75458984375 8.50372070312503  C 19.57224609375 3.99891601562501  16.78564453125 0.416904296875003  12.273486328125 0.416904296875003  C 7.76250000000005 0.416904296875003  4.97220703125004 3.99897460937498  4.78986328124995 8.50372070312503  C 4.67238281250002 8.75584960937499  4.60019531250009 9.04474609375001  4.60019531250009 9.353154296875  C 4.60019531250009 9.393525390625  4.60019531250009 9.43143554687501  4.60511718750001 9.47189453125  C 4.30658203124995 9.97240234374999  4.1278125 10.59162109375  4.1278125 11.2646875  C 4.1278125 11.3773046875  4.13387695312497 11.48986328125  4.14131835937496 11.60001953125  C 3.42035156249995 11.883935546875  2.46829101562491 13.159111328125  1.76944335937503 14.88958984375  Z " fill-rule="nonzero" fill="#ffffff" stroke="none" transform="matrix(1 0 0 1 13 12 )" />
  </g>
</svg>