<?xml version="1.0" encoding="utf-8"?>
<svg version="1.1" xmlns:xlink="http://www.w3.org/1999/xlink" width="18px" height="16px" xmlns="http://www.w3.org/2000/svg">
  <g transform="matrix(1 0 0 1 -19 -13 )">
    <path d="M 3.12714843749998 15.7491319444445  L 4.57734374999998 14.1710069444445  C 4.47187499999998 14.0850694444445  4.27939453124999 13.9340277777778  4.09746093750002 13.7569444444445  C 2.69472656250001 12.3715277777778  2.69472656250001 10.1215277777778  4.09746093750002 8.7361111111111  C 4.13701171875002 8.6970486111111  4.17656250000002 8.6605902777778  4.21875 8.62413194444445  L 4.21611328125002 8.6215277777778  L 9.44208984374998 3.46006944444445  C 10.85009765625 2.1215277777778  13.088671875 2.1371527777778  14.4755859375 3.50694444444445  C 15.87041015625 4.8845486111111  15.8783203125 7.1111111111111  14.501953125 8.49913194444445  L 11.8810546875 11.0902777777778  L 13.40771484375 12.5980902777778  L 16.0048828125 10.0329861111111  L 16.1419921875 9.89756944444445  C 16.17890625 9.8611111111111  16.210546875 9.8246527777778  16.2421875 9.7855902777778  C 18.24873046875 7.55381944444445  18.16962890625 4.1345486111111  16.0048828125 1.9965277777778  C 13.84013671875 -0.14149305555555  10.38076171875 -0.21961805555555  8.11845703125002 1.7621527777778  C 8.07890625000002 1.7907986111111  8.03935546875002 1.8246527777778  8.00507812499998 1.8611111111111  L 2.62089843750002 7.17881944444445  L 2.60244140625001 7.1970486111111  L 2.57080078125 7.2282986111111  C 0.324316406249988 9.4470486111111  0.324316406249988 13.0460069444445  2.57080078125 15.2647569444445  C 2.74746093750001 15.4392361111111  2.93466796874999 15.6006944444445  3.12714843749998 15.7491319444445  Z " fill-rule="nonzero" fill="#ffffff" stroke="none" transform="matrix(1 0 0 1 19 13 )" />
  </g>
</svg>