<?xml version="1.0" encoding="utf-8"?>
<svg version="1.1" xmlns:xlink="http://www.w3.org/1999/xlink" width="41px" height="39px" xmlns="http://www.w3.org/2000/svg">
  <g transform="matrix(1 0 0 1 -17 -17 )">
    <path d="M 12.5379464285714 1.54520089285714  C 15.0699404761905 0.515066964285714  17.7239583333333 0  20.5 0  C 23.2760416666667 0  25.9300595238095 0.515066964285714  28.4620535714286 1.54520089285714  C 30.9940476190476 2.57533482142857  33.1752232142857 3.9609375  35.0055803571429 5.70200892857143  C 36.8359375 7.44308035714286  38.2925967261905 9.51785714285714  39.3755580357143 11.9263392857143  C 40.4585193452381 14.3348214285714  41 16.859375  41 19.5  C 41 22.1261160714286  40.4623325892857 24.6434151785714  39.3869977678571 27.0518973214286  C 38.3116629464286 29.4603794642857  36.8588169642857 31.53515625  35.0284598214286 33.2762276785714  C 33.1981026785714 35.0172991071429  31.0169270833333 36.4065290178571  28.4849330357143 37.4439174107143  C 25.9529389880952 38.4813058035714  23.2912946428571 39  20.5 39  C 17.7087053571429 39  15.0470610119048 38.4849330357143  12.5150669642857 37.4547991071429  C 9.98307291666667 36.4246651785714  7.80571056547619 35.0354352678571  5.98297991071429 33.287109375  C 4.16024925595238 31.5387834821429  2.70740327380952 29.4640066964286  1.62444196428571 27.0627790178571  C 0.541480654761905 24.6615513392857  0 22.140625  0 19.5  C 0 16.859375  0.541480654761905 14.3348214285714  1.62444196428571 11.9263392857143  C 2.70740327380952 9.51785714285714  4.1640625 7.44308035714286  5.99441964285714 5.70200892857143  C 7.82477678571429 3.9609375  10.0059523809524 2.57533482142857  12.5379464285714 1.54520089285714  Z M 27.6612723214286 22.2857142857143  C 31.3219866071429 22.2857142857143  33.6556919642857 24.6579241071429  34.6623883928571 29.40234375  C 36.9350818452381 26.4280133928571  38.0714285714286 23.1272321428571  38.0714285714286 19.5  C 38.0714285714286 17.2366071428571  37.6062127976191 15.0747767857143  36.67578125 13.0145089285714  C 35.745349702381 10.9542410714286  34.4946056547619 9.17689732142857  32.9235491071429 7.68247767857143  C 31.3524925595238 6.18805803571429  29.4840029761905 4.99832589285714  27.3180803571429 4.11328125  C 25.1521577380952 3.22823660714286  22.8794642857143 2.78571428571428  20.5 2.78571428571428  C 18.1205357142857 2.78571428571428  15.8478422619048 3.22823660714286  13.6819196428571 4.11328125  C 11.5159970238095 4.99832589285714  9.64750744047619 6.18805803571429  8.07645089285714 7.68247767857143  C 6.5053943452381 9.17689732142857  5.25465029761905 10.9542410714286  4.32421875 13.0145089285714  C 3.39378720238095 15.0747767857143  2.92857142857143 17.2366071428571  2.92857142857143 19.5  C 2.92857142857143 23.1272321428571  4.06491815476191 26.4280133928571  6.33761160714286 29.40234375  C 7.34430803571429 24.6579241071429  9.67801339285714 22.2857142857143  13.3387276785714 22.2857142857143  C 15.3368675595238 24.1428571428571  17.7239583333333 25.0714285714286  20.5 25.0714285714286  C 23.2760416666667 25.0714285714286  25.6631324404762 24.1428571428571  27.6612723214286 22.2857142857143  Z M 26.7117745535714 21.2301897321429  C 28.427734375 19.5979352678571  29.2857142857143 17.6283482142857  29.2857142857143 15.3214285714286  C 29.2857142857143 13.0145089285714  28.427734375 11.044921875  26.7117745535714 9.41266741071428  C 24.9958147321429 7.78041294642857  22.9252232142857 6.96428571428572  20.5 6.96428571428572  C 18.0747767857143 6.96428571428572  16.0041852678571 7.78041294642857  14.2882254464286 9.41266741071428  C 12.572265625 11.044921875  11.7142857142857 13.0145089285714  11.7142857142857 15.3214285714286  C 11.7142857142857 17.6283482142857  12.572265625 19.5979352678571  14.2882254464286 21.2301897321429  C 16.0041852678571 22.8624441964286  18.0747767857143 23.6785714285714  20.5 23.6785714285714  C 22.9252232142857 23.6785714285714  24.9958147321429 22.8624441964286  26.7117745535714 21.2301897321429  Z " fill-rule="nonzero" fill="#000000" stroke="none" transform="matrix(1 0 0 1 17 17 )" />
  </g>
</svg>