<?xml version="1.0" encoding="utf-8"?>
<svg version="1.1" xmlns:xlink="http://www.w3.org/1999/xlink" width="15px" height="15px" xmlns="http://www.w3.org/2000/svg">
  <g transform="matrix(1 0 0 1 -24 -1698 )">
    <path d="M 4.58705357142857 0.594308035714285  C 5.51339285714286 0.198102678571428  6.484375 0  7.5 0  C 8.515625 0  9.48660714285714 0.198102678571428  10.4129464285714 0.594308035714285  C 11.3392857142857 0.990513392857142  12.1372767857143 1.5234375  12.8069196428571 2.19308035714286  C 13.4765625 2.86272321428571  14.0094866071429 3.66071428571428  14.4056919642857 4.58705357142857  C 14.8018973214286 5.51339285714286  15 6.484375  15 7.5  C 15 8.51004464285714  14.8032924107143 9.47823660714286  14.4098772321429 10.4045758928571  C 14.0164620535714 11.3309151785714  13.4849330357143 12.12890625  12.8152901785714 12.7985491071429  C 12.1456473214286 13.4681919642857  11.34765625 14.0025111607143  10.4213169642857 14.4015066964286  C 9.49497767857143 14.8005022321429  8.52120535714286 15  7.5 15  C 6.47879464285714 15  5.50502232142857 14.8018973214286  4.57868303571429 14.4056919642857  C 3.65234375 14.0094866071429  2.85574776785714 13.4751674107143  2.18889508928571 12.802734375  C 1.52204241071429 12.1303013392857  0.990513392857143 11.3323102678571  0.594308035714286 10.4087611607143  C 0.198102678571429 9.48521205357143  0 8.515625  0 7.5  C 0 6.484375  0.198102678571429 5.51339285714286  0.594308035714286 4.58705357142857  C 0.990513392857143 3.66071428571428  1.5234375 2.86272321428571  2.19308035714286 2.19308035714286  C 2.86272321428571 1.5234375  3.66071428571429 0.990513392857142  4.58705357142857 0.594308035714285  Z M 10.1199776785714 8.57142857142857  C 11.4592633928571 8.57142857142857  12.3130580357143 9.48381696428572  12.6813616071429 11.30859375  C 13.5128348214286 10.1646205357143  13.9285714285714 8.89508928571428  13.9285714285714 7.5  C 13.9285714285714 6.62946428571429  13.7583705357143 5.79799107142857  13.41796875 5.00558035714286  C 13.0775669642857 4.21316964285714  12.6199776785714 3.52957589285714  12.0452008928571 2.95479910714286  C 11.4704241071429 2.38002232142857  10.7868303571429 1.92243303571428  9.99441964285714 1.58203125  C 9.20200892857143 1.24162946428571  8.37053571428572 1.07142857142857  7.5 1.07142857142857  C 6.62946428571429 1.07142857142857  5.79799107142857 1.24162946428571  5.00558035714286 1.58203125  C 4.21316964285714 1.92243303571428  3.52957589285714 2.38002232142857  2.95479910714286 2.95479910714286  C 2.38002232142857 3.52957589285714  1.92243303571429 4.21316964285714  1.58203125 5.00558035714286  C 1.24162946428571 5.79799107142857  1.07142857142857 6.62946428571429  1.07142857142857 7.5  C 1.07142857142857 8.89508928571428  1.48716517857143 10.1646205357143  2.31863839285714 11.30859375  C 2.68694196428571 9.48381696428572  3.54073660714286 8.57142857142857  4.88002232142857 8.57142857142857  C 5.61104910714286 9.28571428571429  6.484375 9.64285714285714  7.5 9.64285714285714  C 8.515625 9.64285714285714  9.38895089285714 9.28571428571429  10.1199776785714 8.57142857142857  Z M 9.77260044642857 8.16545758928572  C 10.400390625 7.53766741071429  10.7142857142857 6.78013392857143  10.7142857142857 5.89285714285714  C 10.7142857142857 5.00558035714286  10.400390625 4.248046875  9.77260044642857 3.62025669642857  C 9.14481026785714 2.99246651785714  8.38727678571428 2.67857142857143  7.5 2.67857142857143  C 6.61272321428571 2.67857142857143  5.85518973214286 2.99246651785714  5.22739955357143 3.62025669642857  C 4.599609375 4.248046875  4.28571428571429 5.00558035714286  4.28571428571429 5.89285714285714  C 4.28571428571429 6.78013392857143  4.599609375 7.53766741071429  5.22739955357143 8.16545758928572  C 5.85518973214286 8.79324776785714  6.61272321428571 9.10714285714286  7.5 9.10714285714286  C 8.38727678571428 9.10714285714286  9.14481026785714 8.79324776785714  9.77260044642857 8.16545758928572  Z " fill-rule="nonzero" fill="#aaaaaa" stroke="none" transform="matrix(1 0 0 1 24 1698 )" />
  </g>
</svg>