<?xml version="1.0" encoding="utf-8"?>
<svg version="1.1" xmlns:xlink="http://www.w3.org/1999/xlink" width="23px" height="23px" xmlns="http://www.w3.org/2000/svg">
  <g transform="matrix(1 0 0 1 -10 -14 )">
    <path d="M 7.09636923209366 9.9826652892562  C 7.09636923209366 9.20118801652893  6.48362000688705 8.56179752066116  5.73470428719008 8.56179752066116  C 4.98578856749311 8.56179752066116  4.3730393422865 9.20118801652892  4.3730393422865 9.9826652892562  C 4.3730393422865 10.7641425619835  4.98578856749311 11.4035330578512  5.73470428719008 11.4035330578512  C 6.48362000688705 11.4035330578512  7.09636923209366 10.7641425619835  7.09636923209366 9.9826652892562  Z M 12.543029011708 9.9826652892562  C 12.543029011708 9.20118801652893  11.9302797865014 8.56179752066116  11.1813640668044 8.56179752066116  C 10.4324483471074 8.56179752066116  9.81969912190083 9.20118801652892  9.81969912190083 9.9826652892562  C 9.81969912190083 10.7641425619835  10.4324483471074 11.4035330578512  11.1813640668044 11.4035330578512  C 11.9302797865014 11.4035330578512  12.543029011708 10.7641425619835  12.543029011708 9.9826652892562  Z M 17.9896887913223 9.9826652892562  C 17.9896887913223 9.20118801652893  17.3769395661157 8.56179752066116  16.6280238464187 8.56179752066116  C 15.8791081267218 8.56179752066116  15.2663589015152 9.20118801652892  15.2663589015152 9.9826652892562  C 15.2663589015152 10.7641425619835  15.8791081267218 11.4035330578512  16.6280238464187 11.4035330578512  C 17.3769395661157 11.4035330578512  17.9896887913223 10.7641425619835  17.9896887913223 9.9826652892562  Z M 22.0746836260331 9.9826652892562  C 22.0746836260331 4.44128099173554  17.1726898243802 0.0365909090909096  11.1813640668044 0.0365909090909096  C 5.19003830922865 0.0365909090909096  0.288044507575759 4.51232438016529  0.288044507575759 9.9826652892562  C 0.288044507575759 13.1085743801653  1.85395919421487 15.9503099173554  4.3730393422865 17.7263946280992  L 4.3730393422865 22.7704752066116  L 9.13886664944904 19.7156095041322  C 9.81969912190083 19.8576962809917  10.5005315943526 19.9287396694215  11.1813640668044 19.9287396694215  C 17.1726898243802 19.9287396694215  22.0746836260331 15.4530061983471  22.0746836260331 9.9826652892562  Z M 20.7130186811295 9.9826652892562  C 20.7130186811295 14.6715289256198  16.4237741046832 18.5078719008264  11.1813640668044 18.5078719008264  C 10.3643650998623 18.5078719008264  9.61544938016529 18.4368285123967  8.86653366046832 18.2236983471074  L 5.6666210399449 20.2129132231405  L 5.73470428719008 16.9449173553719  C 3.28370738636364 15.3819628099174  1.64970945247934 12.8244008264463  1.64970945247934 9.9826652892562  C 1.64970945247934 5.29380165289256  5.93895402892562 1.45745867768595  11.1813640668044 1.45745867768595  C 16.4237741046832 1.45745867768595  20.7130186811295 5.29380165289256  20.7130186811295 9.9826652892562  Z " fill-rule="nonzero" fill="#727272" stroke="none" transform="matrix(1 0 0 1 10 14 )" />
  </g>
</svg>