<?xml version="1.0" encoding="utf-8"?>
<svg version="1.1" xmlns:xlink="http://www.w3.org/1999/xlink" width="22px" height="21px" xmlns="http://www.w3.org/2000/svg">
  <g transform="matrix(1 0 0 1 -10 -15 )">
    <path d="M 22 16.5523966666667  C 22 14.3824266666667  20.2413199999999 12.6238566666667  18.07146 12.6238566666667  C 16.78391 12.6238566666667  15.65212 13.2515166666667  14.93547 14.2075266666667  L 9.25133 11.5334266666666  C 9.36407999999997 11.1299466666667  9.42853999999997 10.7062266666667  9.42853999999997 10.2666666666667  C 9.42853999999997 9.82710666666669  9.36407999999997 9.40349666666666  9.25133 8.99990666666665  L 14.93547 6.32580666666667  C 15.65212 7.28181666666667  16.78391 7.90947666666665  18.07146 7.90947666666665  C 20.2413199999999 7.90947666666665  22 6.15090666666667  22 3.98093666666667  C 22 1.81096666666667  20.2413199999999 0.0523966666666524  18.07146 0.0523966666666524  C 15.9015999999999 0.0523966666666524  14.1427 1.81096666666667  14.1427 3.98093666666667  C 14.1427 4.30103666666667  14.19187 4.60705666666667  14.26315 4.90482666666667  L 8.58374000000001 7.57716666666666  C 7.73200999999997 6.35407666666667  6.31796000000003 5.55228666666665  4.71427000000003 5.55228666666665  C 2.11013000000005 5.55239666666666  0 7.66241666666667  0 10.2666666666667  C 0 12.8709166666667  2.11013000000005 14.9809366666667  4.71427000000003 14.9809366666667  C 6.31796000000003 14.9809366666667  7.73200999999997 14.1790366666667  8.58374000000001 12.9560566666667  L 14.26326 15.6285066666667  C 14.19198 15.9262766666667  14.14281 16.2324066666667  14.14281 16.5523966666667  C 14.14281 18.7222566666667  15.9014900000001 20.4809366666667  18.07146 20.4809366666667  C 20.24143 20.4809366666667  22 18.7223666666667  22 16.5523966666667  Z M 15.71427 3.98093666666667  C 15.71427 2.68106666666666  16.77159 1.62385666666668  18.07146 1.62385666666668  C 19.37122 1.62385666666668  20.42854 2.68117666666667  20.42854 3.98093666666667  C 20.42854 5.28069666666667  19.37122 6.33812666666667  18.07146 6.33812666666667  C 16.7717 6.33812666666667  15.71427 5.28080666666668  15.71427 3.98093666666667  Z M 4.71427000000003 13.4093666666667  C 2.98176999999998 13.4093666666667  1.60504201680672 11.9992766666667  1.60504201680672 10.2666666666667  C 1.60504201680672 8.53405666666669  2.98166000000001 7.12374666666668  4.71427000000003 7.12374666666668  C 6.44688000000005 7.12374666666668  7.85730000000004 8.53405666666666  7.85730000000004 10.2666666666667  C 7.85730000000004 11.9992766666667  6.44699000000003 13.4094766666667  4.71438000000001 13.4094766666667  Z M 20.42854 16.5522866666667  C 20.42854 17.8521566666667  19.37122 18.9093666666667  18.07146 18.9093666666667  C 16.77159 18.9093666666667  15.71427 17.8520466666667  15.71427 16.5522866666667  C 15.71427 15.2525266666667  16.77159 14.1950966666667  18.07146 14.1950966666667  C 19.37133 14.1950966666667  20.42854 15.2524166666666  20.42854 16.5522866666667  Z " fill-rule="nonzero" fill="#666666" stroke="none" transform="matrix(1 0 0 1 10 15 )" />
  </g>
</svg>