<?xml version="1.0" encoding="utf-8"?>
<svg version="1.1" xmlns:xlink="http://www.w3.org/1999/xlink" width="28px" height="24px" xmlns="http://www.w3.org/2000/svg">
  <g transform="matrix(1 0 0 1 -11 -13 )">
    <path d="M 24.6044166757812 20.8259871977163  C 26.5486666757812 19.3647371703726  28 17.4199038461538  28 15.2376538461538  C 28 11.3579038461538  24.1208333242188 8.1985705219351  19.7569166757813 8.1985705219351  C 15.1334166757812 8.1985705219351  11.50275 11.3579038461538  11.50275 15.2376538461538  C 11.50275 19.1273205219351  15.1334166757812 22.2755705219351  19.7569166757813 22.2755705219351  C 20.7240833515625 22.2755705219351  21.7023333515625 22.0288205219351  22.6689166757812 21.7931538461538  L 25.3335833515625 23.2538205219351  L 24.6044166757812 20.8259871977163  Z M 18.2950833515625 13.0554038461538  C 18.2950833242188 13.5401538461538  17.8109166757812 14.0231538461538  17.0794166757813 14.0231538461538  C 16.597 14.0231538461538  16.1134166757813 13.5401538461538  16.1134166757813 13.0554038461538  C 16.1134166757813 12.5735705219351  16.597 12.0894038461538  17.0794166757813 12.0894038461538  C 17.8109166757812 12.0894038461538  18.2950833515625 12.5735705219351  18.2950833515625 13.0554038461538  Z M 23.6366666757813 13.0554038461538  C 23.6366666757813 13.5401538461538  23.1408333242188 14.0231538461538  22.4221666757812 14.0231538461538  C 21.9391666757813 14.0231538461538  21.45675 13.5401538461538  21.45675 13.0554038461538  C 21.45675 12.5735705219351  21.9391666757813 12.0894038461538  22.4221666757812 12.0894038461538  C 23.1525 12.0894038461538  23.6366666757813 12.5735705219351  23.6366666757813 13.0554038461538  Z M 10.5268333242187 15.1787371703726  C 10.52625 10.8533205219351  14.2479166757813 7.34107052193508  18.956 7.34107052193508  C 19.2739166757813 7.34107052193508  19.593 7.36323719771633  19.9103333242188 7.39590384615383  C 19.0551666484375 3.40007052193511  14.7863333242187 0.437903846153858  9.91141664843752 0.437903846153858  C 4.46716667578124 0.437903846153858  0 4.14732052193509  0 8.86648717037258  C 0 11.5889038461538  1.48225000000002 13.8271538461538  3.96258332421877 15.5619871703726  L 2.97500000000002 18.5463205219351  L 6.44291667578125 16.8021538461538  C 7.68308335156252 17.0430705219351  8.68175000000002 17.2962371703726  9.91141667578125 17.2962371703726  C 10.21825 17.2962371703726  10.5268333515625 17.2851538461538  10.83425 17.2536538461538  C 10.6365 16.5939038461538  10.5268333242187 15.8933205219351  10.5268333242187 15.1787371703726  Z M 12.1286666484375 5.89265384615385  C 12.13975 5.14540384615384  12.8846666757813 4.65190384615386  13.6208333242188 4.65190384615386  C 14.3669166484375 4.65190384615386  14.8604166484375 5.14598717037259  14.8604166484375 5.89265384615385  C 14.8604166484375 6.63815384615384  14.3663333242188 7.1322371703726  13.6208333242188 7.1322371703726  C 12.8741666484375 7.1322371703726  12.1286666484375 6.63815384615384  12.1286666484375 5.89265384615385  Z M 7.92574999999999 5.89148719771634  C 7.92516667578127 6.62707052193508  7.43166667578123 7.1310705219351  6.68441667578122 7.1310705219351  C 5.93774999999999 7.1310705219351  5.19225 6.63757052193509  5.19225 5.89148719771634  C 5.19225 5.14482052193509  5.93833332421877 4.65132052193511  6.68441667578122 4.65132052193511  C 7.43166667578123 4.65132052193511  7.92574999999999 5.14540384615384  7.92574999999999 5.89148719771634  Z " fill-rule="nonzero" fill="#ffffff" stroke="none" transform="matrix(1 0 0 1 11 13 )" />
  </g>
</svg>