<?xml version="1.0" encoding="utf-8"?>
<svg version="1.1" xmlns:xlink="http://www.w3.org/1999/xlink" width="28px" height="28px" xmlns="http://www.w3.org/2000/svg">
  <g transform="matrix(1 0 0 1 -11 -11 )">
    <path d="M 14.0491990625 0.773957187500002  C 13.5440965625 0.773957187500002  13.0479715625 0.804433437499991  12.55990859375 0.86187171875001  C 11.3637453125 0.997213437499998  10.21719453125 1.29604015625  9.13936296875002 1.73000187500001  C 9.13936296875002 1.73000187500001  18.0267040625001 10.52499875  18.26333796875 10.85193921875  L 18.26333796875 1.47296187499999  C 17.9984721875 1.38280296875  17.727906875 1.30162156250001  17.4550971874999 1.22602156250002  C 16.36949890625 0.933987031250012  15.22734828125 0.773957187500002  14.0491990625 0.773957187500002  Z M 23.3322884375001 4.59476937499999  C 22.9760234375 4.238504375  22.60277796875 3.90920140625  22.2173065625 3.60381875  C 21.2747871875 2.85514250000001  20.2533603125 2.25320703125  19.1856284375 1.79990234375001  C 19.1856284375 1.79990234375001  19.25104015625 14.299446875  19.1856284375 14.69859125  L 25.81943984375 8.06607921875  C 25.6953200000001 7.81571328125  25.56127765625 7.56649906250001  25.42023640625 7.32192125  C 24.8576365625 6.34783296875001  24.1655126562499 5.42672375  23.3322884375001 4.59476937499999  Z M 26.24427640625 9.10670140624999  C 26.24427640625 9.10670140624999  17.45176015625 17.99294984375  17.1225162500001 18.22961328125  L 26.50255671875 18.22961328125  C 26.5927156250001 17.9647475  26.6739856249999 17.694123125  26.74831578125 17.4213134375  C 27.04138390625 16.333323125  27.20162046875 15.19468671875  27.20162046875 14.0154153125  C 27.20162046875 13.51140546875  27.17002203125 13.01421734375  27.1124065625 12.5260953125  C 26.9771534374999 11.3299025  26.6795965625 10.18338125  26.24427640625 9.10670140624999  Z M 13.20020515625 19.217226875  L 19.8338689062499 25.84979796875  C 20.0864496875 25.7246740625  20.33341953125 25.59275796875  20.5791195312499 25.4507421875  C 21.5532373437501 24.89032765625  22.473224375 24.1970815625  23.30754125 23.36279421875  C 23.66253640625 23.007621875  23.9907467187499 22.63328375  24.2973696875001 22.24781234375  C 25.04477609375 21.3051453125  25.64807 20.28492921875  26.1011975 19.21607515625  C 26.1012565625 19.21607515625  13.6005603125 19.28157546875  13.20020515625 19.217226875  Z M 9.79661046874998 17.1337971875  L 9.79661046874998 26.513808125  C 10.062775625 26.6039965625  10.33319328125 26.68630015625  10.60493984375 26.7596853125  C 11.69180796875 27.0528125  12.8316846875 27.21284234375  14.010985625 27.21284234375  C 14.51369609375 27.21284234375  15.01088421875 27.18124390625  15.49797265625 27.12489828125  C 16.69416546875 26.98846390625  17.84074578125 26.6909365625  18.91851828125 26.25561640625  C 18.9196109375 26.2556459375  10.03333296875 17.46304109375  9.79661046874998 17.1337971875  Z M 8.86306859375001 13.22164484375  L 2.23164921875002 19.85412734375  C 2.35576906250001 20.10785984375  2.48995906249998 20.35592234375  2.63085265625002 20.59937796875  C 3.19123765625 21.57574015625  3.88448375000002 22.495668125  4.71880062500001 23.32889234375  C 5.07394343749998 23.685186875  5.44828156249999 24.01322  5.83378250000002 24.31877984375  C 6.77736500000002 25.06857828125  7.79551390625002 25.66942109375  8.86658281249997 26.12254859375  C 8.86655328125001 26.122578125  8.79889718750003 13.62191140625  8.86306859375001 13.22164484375  Z M 1.30944734375002 10.5711265625  C 1.01744234374997 11.6579946875  0.857412499999992 12.797841875  0.857412499999992 13.9771428125  C 0.857412499999992 14.4798828125  0.888981406249986 14.97816359375  0.946449218750025 15.46531109375  C 1.08179093750001 16.66256703125  1.37825515625001 17.809176875  1.81570156249999 18.884705  C 1.81570156249999 18.884705  10.607331875 9.99842703125  10.93651671875 9.7627971875  L 1.55529500000002 9.7627971875  C 1.46510656249997 10.02654078125  1.38392515625002 10.2982578125  1.30944734375002 10.5711265625  Z M 7.41668703125003 2.58679203124999  C 6.44035437500001 3.14826968749998  5.52036734375003 3.84169296874999  4.68826531250001 4.67361781249998  C 4.32978546875002 5.03106406250001  4.002845 5.40537265625  3.69731468749998 5.7885996875  C 2.94863843750003 6.73126671875001  2.34667343749997 7.752605  1.89239421875002 8.82252218750001  C 1.89239421875002 8.82252218750001  14.39524625 8.75598828124998  14.7944496875 8.82027781249999  L 8.16181953125001 2.18776578124999  C 7.90938640625001 2.3139528125  7.66017218750002 2.44592796875  7.41668703125003 2.58679203124999  Z " fill-rule="nonzero" fill="#ffffff" stroke="none" transform="matrix(1 0 0 1 11 11 )" />
  </g>
</svg>