<?xml version="1.0" encoding="utf-8"?>
<svg version="1.1" xmlns:xlink="http://www.w3.org/1999/xlink" width="27px" height="22px" xmlns="http://www.w3.org/2000/svg">
  <g transform="matrix(1 0 0 1 -12 -14 )">
    <path d="M 19.8314856911344 10.7265907244995  L 19.8315672545281 10.7292829170639  C 19.5313808674929 10.6691296091516  19.3364808960915 10.5791987893232  19.2468673403241 10.4594904575786  C 19.1572537845567 10.3397821258341  19.1422154623451 10.2296914204004  19.2017523736892 10.1292183412774  L 19.291982306959 9.97943334604385  C 19.3118158627264 9.95959979027645  19.3319757483317 9.92952313632031  19.352461963775 9.88920338417541  C 19.3729481792183 9.84888363203051  19.4129597330791 9.76375710200191  19.4724966253575 9.63382379408961  C 19.5320335176358 9.50389048617731  19.5771575595806 9.37395716873213  19.6078687511916 9.24402384175405  C 19.6385799428027 9.11409051477598  19.663535042898 8.95408054337464  19.6827340514776 8.76399392755005  C 19.7019330600572 8.57390731172545  19.6968205719733 8.39372839847474  19.6673965872259 8.2234571877979  C 19.6379726024786 8.05318597712107  19.5778011725453 7.86820277407054  19.4868822974261 7.66850757864633  C 19.395963422307 7.46881238322212  19.2708253288847 7.2886334699714  19.1114680171592 7.12797083889418  C 18.8311332983794 6.84763612011439  18.4659711820782 6.66745720686368  18.0159816682555 6.58743409914204  C 17.5659921544328 6.5074109914204  17.116011706387 6.50229850333651  16.6660403241182 6.57209663489037  C 16.2160689418494 6.64189476644423  15.7910707816969 6.73182559580553  15.3910458436606 6.84188912297426  C 14.9910209056244 6.95195265014299  14.6610660629171 7.05693086749285  14.4011813155386 7.15682377502383  L 14.011381363203 7.33733806482364  C 13.8110516396568 7.39749137273594  13.6459110581506 7.43750293612965  13.5159596186845 7.45737275500477  C 13.3860081792183 7.47724257387989  13.2858433174452 7.472130085796  13.2154650333651 7.4420352907531  C 13.145086749285 7.4119404957102  13.0900368636797 7.38186384175405  13.0503153765491 7.35180532888465  C 13.0105938894185 7.32174681601525  12.9955555672069 7.25165860819828  13.0052004099142 7.14154070543375  C 13.0148452526215 7.03142280266921  13.0247620209724 6.93637948522402  13.0349507149666 6.85641075309819  C 13.0451394089609 6.77644202097236  13.0700945090562 6.65130392755005  13.1098160152526 6.48099647283127  C 13.149537521449 6.31068901811249  13.1796141754051 6.17563414680648  13.2000459771211 6.07583185891325  C 13.2000459771211 5.83581691134414  13.1850076549094 5.61084028598666  13.1549310104862 5.4009019828408  C 13.1248543660629 5.19096367969495  13.0598877025739 4.95606121067683  12.9600310200191 4.69619457578646  C 12.8601743374642 4.43632794089609  12.7151936320305 4.2263805815062  12.5250889037178 4.06635249761678  C 12.3349841754051 3.90632441372736  12.0949510962822 3.77639109628217  11.8049896663489 3.67655254528122  C 11.5150282364156 3.57671399428027  11.1399402764538 3.54663734032412  10.6797257864633 3.58632258341277  C 10.2195112964728 3.62600782650143  9.69945170638703 3.74601530028598  9.1195470162059 3.94634500476644  C 8.41931757864632 4.18635995233555  7.70917135367016 4.54127896091516  6.9891083412774 5.01110203050524  C 6.26904532888464 5.48092510009533  5.64402565300285 5.970889914204  5.11404931363202 6.48099647283126  C 4.58407297426119 6.99110303145853  4.0989033841754 7.48619846520496  3.65854054337463 7.96628277407054  C 3.21817770257387 8.44636708293613  2.87797975214489 8.83649335557674  2.63794669208769 9.13666159199237  L 2.30767457578645 9.61669150619638  C 1.64776489037177 10.4769490467112  1.1578000762631 11.3371975309819  0.837780133460428 12.1974369590086  C 0.517760190657758 13.0576763870353  0.367666997140123 13.7076783603432  0.38750055290752 14.1474428789323  L 0.38750055290752 14.7772849857007  C 0.507843431839837 15.7373810581506  0.802908274547177 16.5976295328885  1.27269508102954 17.3580304099142  C 1.74248188751191 18.1184312869399  2.30254397521448 18.7335341944709  2.95288134413726 19.2033391325071  C 3.60321871306005 19.6731440705434  4.36841481410867 20.0731871210677  5.24846964728312 20.4034682840801  C 6.12852448045757 20.7337494470925  6.97373463298379 20.9737825357483  7.78410010486176 21.1235675500477  C 8.59446557673974 21.273352564347  9.4496015633937 21.3783307816969  10.3495080648236 21.4385022020972  C 11.8299900667302 21.5588450810296  13.3651865586273 21.443950085796  14.9550975405148 21.0938172163966  C 16.5450085224023 20.7436843469971  18.0251732602478 20.1384982173498  19.3955917540515 19.2782588274547  C 20.7660102478551 18.4180194375596  21.7312278836988 17.3878260819828  22.2912446615825 16.1876787607245  C 22.6311162726406 15.4874493231649  22.8061826978074 14.8272133079123  22.8164439370829 14.2069707149666  C 22.8267051763584 13.586728122021  22.7217269590086 13.0817159199237  22.5015092850334 12.6919341086749  C 22.2812916110582 12.3021522974261  21.9961435462345 11.9571500667302  21.6460650905624 11.6569274165872  C 21.2959866348904 11.3567047664442  20.966031792183 11.1365233555767  20.6562005624404 10.9963831839847  C 20.3463693326978 10.8562430123928  20.0714643755958 10.7663121925643  19.8314856911344 10.7265907244995  Z M 10.6817653574833 20.0595175691134  L 10.6808135653003 20.0605237559581  C 8.52058832221163 20.1603804194471  6.68550457578647 19.7401774833174  5.17556232602479 18.7999149475691  C 3.66562007626311 17.8596524118208  2.91066707340324 16.6694490943756  2.91070331744519 15.2293049952336  C 2.91070331744519 13.809012564347  3.66086109628217 12.5839192373689  5.16117665395615 11.5540250142993  C 6.66149221163012 10.5241307912297  8.50168844613918 9.95894714966635  10.6817653574833 9.85847408960915  C 12.8618422688275 9.75800102955196  14.7020385033365 10.1180325262154  16.2023540610105 10.9385685795996  C 17.7026696186845 11.7591046329838  18.4528273879886 12.879219742612  18.4528273689228 14.2989139084843  C 18.4528273689228 15.739076158246  17.6876312678742 17.034257693041  16.1572390657769 18.1844585128694  C 14.6268468636797 19.3346593326978  12.8016889609152 19.9596790181125  10.6817653574833 20.0595175691134  Z M 9.81003190657769 11.7479731839847  L 9.81098369876072 11.748897778837  C 9.23109712106768 11.8090510867493  8.711037521449 11.9441059580553  8.25080489990467 12.154062392755  C 7.79057227836034 12.3640188274547  7.43054078169685 12.6040519065777  7.1707104099142 12.8741616301239  C 6.91088003813155 13.1442713536702  6.69069863679695 13.4342146425167  6.51016620591039 13.7439914966635  C 6.32963377502383 14.0537683508103  6.20449568160152 14.3587590276454  6.13475192564347 14.6589635271687  C 6.06500816968541 14.9591680266921  6.0198841277407 15.234072993327  5.99937979980934 15.4836784270734  C 5.97887547187798 15.7332838608198  5.96895869399428 15.9281838322212  5.96962946615824 16.0683783412774  L 5.99937979980934 16.3084204957102  L 5.99937979980934 16.4284551572927  C 5.99937979980934 16.488608465205  6.01953967588179 16.6086159389895  6.05985942802669 16.7884775786463  C 6.10017918017159 16.9683392183032  6.15522906577693 17.1334798093422  6.22500908484271 17.2838993517636  C 6.29478910390848 17.4343188941849  6.40968408960915 17.5994594756911  6.56969404194471 17.7793210962822  C 6.72970399428027 17.9591827168732  6.91980875119161 18.1092759199237  7.14000831267874 18.2296007054337  C 8.46048034318398 18.869676835081  9.69068615824595 19.0645768064824  10.8306257578646 18.8143006196378  C 11.9705653574833 18.5640244327931  12.8906589418494 17.988933079123  13.5909065109628 17.0890265586273  C 13.8712412297426 16.7491549475691  14.0562244232602 16.3289520209724  14.1458560915157 15.828417778837  C 14.2354877597712 15.3278835367016  14.2153278836988 14.8228713250715  14.0853764632984 14.3133811439466  C 13.955425042898 13.8038909628217  13.7304484175405 13.3388812583413  13.4104465872259 12.9183520305052  C 13.0904447569113 12.4978228026692  12.6155092087703 12.1726631744519  11.9856399428027 11.9428731458532  C 11.3557706768351 11.7130831172545  10.6305679980934 11.6481164632984  9.81003190657769 11.7479731839847  Z M 8.7318138036225 17.4184012774071  L 8.73083481410868 17.4202504671115  C 8.61049193517636 17.4400840228789  8.49559694947569 17.4451965109628  8.38614985700667 17.4355879313632  C 8.27670276453765 17.4259793517636  8.17653790276454 17.4058194756911  8.08565527168732 17.3751083031459  C 7.9947726406101 17.3443971306006  7.90484181124881 17.3095252526215  7.81586278360343 17.2704926692088  C 7.72688375595806 17.231460085796  7.65200032411821 17.1764102001907  7.59121248808389 17.1053430123928  C 7.53042465204957 17.0342758245949  7.47537476644423 16.9641876167779  7.42606283126787 16.8950783889419  C 7.37675089609152 16.8259691611058  7.3367393422307 16.7459551096282  7.30602816968542 16.6550362345091  C 7.27531699714014 16.5641173593899  7.26027866539562 16.4690740514776  7.26091317445186 16.3699063107722  C 7.26091317445186 16.1497248999047  7.32108461391802 15.934665042898  7.44142749285033 15.7247267397521  C 7.56177037178265 15.5147884366063  7.72691096282174 15.3346095233556  7.93684926596759 15.18419  C 8.14678756911344 15.0337704766444  8.38169002859867 14.9486439370829  8.64155664442326 14.9288103813155  C 8.82141828408008 14.9089768255481  8.9964847092469 14.914089313632  9.16675591992374 14.9441478455672  C 9.33702713060057 14.9742063775024  9.48200784556721 15.0241347092469  9.60169806482364 15.0939328408008  C 9.72138828408008 15.1637309723546  9.82636650142994 15.2437450238322  9.91663271687321 15.3339749952336  C 10.0068989323165 15.4242049666349  10.0718655862726 15.5291831839847  10.1115326787417 15.6489096472831  C 10.1511997712107 15.7686361105815  10.1713596472831 15.8985694280267  10.172012306959 16.0387095996187  C 10.172012306959 16.2588910104862  10.1070456530029 16.468838379409  9.97711234509056 16.668551706387  C 9.84717903717827 16.8682650333651  9.67211261201144 17.0382008388942  9.45191306959009 17.1783591229743  C 9.23171352716873 17.3185174070543  8.99168043851287 17.3985314585319  8.7318138036225 17.4184012774071  Z M 11.2808781410868 15.260007092469  C 11.1407017254528 15.3598637559581  10.9957210200191 15.4049878074357  10.8459360247855 15.3953792469018  C 10.696151029552 15.385770686368  10.5911728122021 15.3208040228789  10.5310013727359 15.2004792564347  L 10.4705217445186 15.0804445948522  C 10.4506881887512 15.0401248427073  10.4407714108675 15.0001132793136  10.4407714108675 14.9604099046711  L 10.4407714108675 14.8403752430887  C 10.4407714108675 14.7802219351764  10.4506881887512 14.7302936034318  10.4705217445186 14.6905902478551  L 10.5310013727359 14.5705555862726  C 10.5508349285033 14.5302358341277  10.5809115824595 14.5001591801716  10.6212313346044 14.4803256244042  L 10.7114612964728 14.3602909342231  C 10.871489399428 14.2399480552907  11.0263868827455 14.1900197235462  11.1761537464252 14.2105059389895  C 11.3259206101049 14.2309921544328  11.4308988179218 14.3110062059104  11.4910883698761 14.4505480934223  C 11.5512416777884 14.5305712011439  11.5761967874166 14.6205020305052  11.5659536987607 14.7203405815062  C 11.5557106101049 14.8201791325071  11.5256339561487 14.9152224404194  11.4757237368923 15.0054705052431  C 11.4258135176358 15.0957185700667  11.3608468541468 15.1808451096282  11.2808237464252 15.2608501239275  Z M 21.9313581982841 8.98771962821735  L 21.9322555958055 8.9886170257388  C 22.0525984747379 8.9886170257388  22.1626891801716 8.95854037178265  22.2625277121068 8.89838706387035  C 22.3623662440419 8.83823375595806  22.4423802955195 8.76335032411821  22.5025698665396 8.67373676835081  C 22.5627594375596 8.58412321258341  22.6027709914204 8.48907990467112  22.622604528122 8.38860684461392  C 22.6424380838894 8.36877328884652  22.6523548617731 8.33869663489037  22.6523548617731 8.29837688274547  C 22.8923698093422 6.01780877979028  22.0922746329838 4.71751475691135  20.2520693326978 4.39749481410868  C 19.7118498665396 4.29763815061964  19.2116419447093 4.28772137273594  18.7514455672069 4.36774448045758  C 18.6112691515729 4.36774448045758  18.4912616777884 4.40261635843661  18.3914231458532 4.47236011439466  C 18.291584613918 4.54210387035272  18.2064580743565 4.63203469018113  18.1360435271687 4.74215257387989  C 18.0656289799809 4.85227045757865  18.0307571115348 4.9671654528122  18.0314279218303 5.08683755958055  C 18.0314279218303 5.28716728312679  18.1015161296473 5.45710308865586  18.2416925452812 5.59664497616778  C 18.3818689609152 5.73618686367969  18.5518047664442 5.80627507149666  18.7514999618685 5.80690959961868  C 20.3119869399428 5.44655177311726  21.1520755386082 5.94675969494757  21.2717657578646 7.30753336510963  C 21.3120855100095 7.64740497616778  21.2919256339371 7.96744304099142  21.2112861296473 8.26764755958055  C 21.2112861296473 8.46797728312679  21.2813743374643 8.63791309818875  21.4215507530982 8.77745500476645  C 21.5617271687321 8.91699691134414  21.7316629837941 8.98708511916111  21.9313581982841 8.98771962821735  Z M 21.4224481792183 0.528185071496664  C 20.5423570829361 0.327855347950429  19.3620705338418 0.36786690181125  17.8815885319352 0.648219733079124  C 17.8617549761678 0.648219733079124  17.8415951000953 0.658136510962822  17.8211089037178 0.67797006673022  L 17.7913585700667 0.73844969494757  L 17.7616082364156 0.7682  C 17.5414268255481 0.828353307912298  17.3612479122974 0.953491401334605  17.2210714966635 1.14361428026692  C 17.0808950810296 1.33373715919924  17.0108068732126 1.53887118207817  17.0108068732126 1.75901634890372  C 17.0108068732126 2.05920273593899  17.1109717349857 2.30915259294566  17.3113014585319 2.50886591992374  C 17.5116311820782 2.70857924690181  17.751664270734 2.80874410867493  18.0314007244995 2.80936050524309  L 18.121630686368 2.80936050524309  C 18.1414642421354 2.80936050524309  18.1865882840801 2.79944372735939  18.2570028122021 2.77961017159199  C 18.3274173403241 2.7597766158246  18.402300772164 2.74473829361297  18.4816531077216 2.7344952049571  C 18.5610054432793 2.72425211630124  18.6461319828408 2.70409224022879  18.7370327264061 2.67401557673975  C 18.8279334699714 2.64393891325072  18.907947521449 2.61386225929457  18.9770748808389 2.58378561487131  C 19.0462022402288 2.55370897044805  19.1812571020019 2.53867063870353  19.3822394661583 2.53867061963775  C 19.5832218303146 2.53867060057198  19.8283674070543 2.55370893231649  20.1176761963775 2.58378561487131  C 20.4069849857007 2.61386229742612  20.7270230505243 2.68874572926597  21.0777903908484 2.80843591039085  C 21.4285577311726 2.92812609151573  21.7786724499523 3.07821928503337  22.1281345471878 3.25871549094376  C 22.4775966444233 3.43921169685415  22.8277113727359 3.68916155386082  23.1784787321258 4.00856506196378  C 23.5292460915157 4.32796857006673  23.8342367683508 4.69792591039085  24.0934507626311 5.11843708293613  C 24.6138366920877 6.29873269780744  24.7140015538608 7.43901674928503  24.3939453479504 8.53928923736892  C 24.3939453479504 8.55912279313632  24.3888328598665 8.57928266920877  24.3786078836988 8.59976886558627  C 24.368382907531 8.62025506196378  24.3533445853194 8.6701833937083  24.3334929170639 8.74955386081983  C 24.3136412488084 8.82892432793136  24.2934813632031 8.90380775977121  24.2730132602479 8.97420415633937  C 24.2525451572927 9.04460055290753  24.2323852812202 9.13453138226883  24.2125336320305 9.24399664442326  C 24.1926819828408 9.3534619065777  24.1827652049571 9.44850521448999  24.1827832983794 9.52912656816015  C 24.1827832983794 9.70898820781697  24.2327116301239 9.8590814013346  24.332568293613 9.97940614871306  C 24.432424957102 10.0997308960915  24.5575630600572 10.184857435653  24.7079826024786 10.2347857673975  C 24.8584021448999 10.284714099142  25.0334685700667 10.3096691992374  25.233181877979 10.3096510676835  C 25.7932530314585 10.3096510676835  26.1232078741659 9.96945311725453  26.2230464061011 9.28905721639657  C 26.4630613536702 8.50880465204957  26.5981162154433 7.76375937082936  26.6282109914204 7.05392137273594  C 26.6583057673975 6.34408337464252  26.608377435653 5.71906368922784  26.4784259961868 5.1788623164919  C 26.3484745567207 4.63866094375596  26.1535745853194 4.13364874165872  25.8937260819828 3.66382571020019  C 25.6338775786463 3.19400267874166  25.3336911916111 2.79395961868447  24.993166920877 2.4636965300286  C 24.652642650143 2.13343344137274  24.2724422116301 1.83324705433747  23.8525656053384 1.56313736892279  C 23.4326889990467 1.29302768350811  23.0275243851287 1.07796783603432  22.6370717635844 0.917957826501432  C 22.24661914204 0.757947816968543  21.8414545376549 0.628014499523357  21.421577950429 0.528157874165874  Z " fill-rule="nonzero" fill="#ffffff" stroke="none" transform="matrix(1 0 0 1 12 14 )" />
  </g>
</svg>