<?xml version="1.0" encoding="utf-8"?>
<svg version="1.1" xmlns:xlink="http://www.w3.org/1999/xlink" width="26px" height="26px" xmlns="http://www.w3.org/2000/svg">
  <g transform="matrix(1 0 0 1 -12 -11 )">
    <path d="M 25.8361027726829 10.4799193580488  C 25.9589411297561 10.3738562517073  26.0054790243902 10.20448  25.9546120409756 10.04971448  C 25.903745057561 9.89549008975609  25.7673782282927 9.78563902439026  25.605036764878 9.77211057756097  L 16.8001769190244 9.01614048780488  L 13.3585378946341 0.874716097560963  C 13.2946835687805 0.725361951219497  13.1496585365854 0.627957073170705  12.9873170731707 0.627957073170705  C 12.8249756097561 0.627957073170705  12.6783271629268 0.725903080975627  12.6150139921951 0.875257227317093  L 9.17499838243901 9.01614048780488  L 0.369597406829257 9.77211057756097  C 0.208338228292689 9.78563902439026  0.0703479843902528 9.89549008975609  0.0200221307317179 10.04971448  C -0.0292214380488076 10.20448  0.0173164312195127 10.3738562770732  0.139613683902439 10.4799193580488  L 6.81942377365851 16.2668513990244  L 4.81667121951222 24.8752780487805  C 4.78041496780486 25.0327492682927  4.84210472390242 25.1988786907317  4.97197789463416 25.2941190243902  C 5.10401560975612 25.3888182029268  5.27934439024392 25.3958530165854  5.41949920390243 25.3114354556097  L 12.9873170731707 20.7480169190244  L 20.5535115531707 25.3125177404878  C 20.6189892682927 25.3520208214634  20.6909606673171 25.3720429521951  20.7645554556098 25.3720429521951  C 20.8462673170732 25.3720429521951  20.9301437482927 25.3466094478049  21.0015739921951 25.2957424643902  C 21.1325294478049 25.1983375863414  21.1942192039024 25.0327492936585  21.1568806673171 24.8752780741464  L 19.5729691141464 18.0683005131708  C 20.2510153014634 17.726301155122  21.0004917073171 17.1489067004878  21.0004917073171 17.1489067004878  C 21.0004917073171 17.1489067004878  18.0361365853659 18.5964514243902  7.39573594341465 17.8897249034146  L 15.1085788702439 12.300849422439  C 15.1085788702439 12.300849422439  14.8050003336585 11.8295180487805  5.14027188682928 11.4923889346342  C 4.49577627707316 11.46912  13.0208676507317 9.87600908878051  19.3180930165854 11.2223609756098  L 11.5744052117073 16.7771447239024  C 11.5744052117073 16.7771447239024  14.6805385365853 17.2387356097561  19.370042284878 17.1851629268293  L 19.1557515531707 16.2673925287805  L 25.8361027726829 10.4799193580488  Z " fill-rule="nonzero" fill="#ffffff" stroke="none" transform="matrix(1 0 0 1 12 11 )" />
  </g>
</svg>