<?xml version="1.0" encoding="utf-8"?>
<svg version="1.1" xmlns:xlink="http://www.w3.org/1999/xlink" width="18px" height="16px" xmlns="http://www.w3.org/2000/svg">
  <g transform="matrix(1 0 0 1 -13 -21 )">
    <path d="M 10.16630859375 14.0190972222222  C 10.17158203125 14.0164930555556  10.1794921875 14.0112847222222  10.184765625 14.0060763888889  L 15.42919921875 8.8263888888889  L 15.56630859375 8.6909722222222  C 15.60322265625 8.6545138888889  15.63486328125 8.61805555555555  15.66650390625 8.57899305555555  C 17.673046875 6.3472222222222  17.5939453125 2.9279513888889  15.42919921875 0.78993055555555  C 15.24462890625 0.6076388888889  15.04951171875 0.4409722222222  14.846484375 0.2873263888889  L 13.52548828125 1.9722222222222  C 13.64150390625 2.06336805555555  13.71533203125 2.1128472222222  13.9025390625 2.29774305555555  C 15.29736328125 3.6753472222222  15.3052734375 5.9019097222222  13.92890625 7.28993055555555  L 8.70029296874999 12.4539930555556  L 8.69765625000001 12.4513888888889  C 8.66865234374998 12.4826388888889  8.63701171875002 12.5138888888889  8.60537109375001 12.5451388888889  C 7.20263671875 13.9305555555556  4.92451171874998 13.9305555555556  3.52177734375002 12.5451388888889  C 2.11904296875001 11.1597222222222  2.11904296875001 8.9097222222222  3.52177734375002 7.52430555555555  C 3.56132812500002 7.48524305555555  3.60087890625002 7.4487847222222  3.64306640625 7.4123263888889  L 3.64042968750002 7.4097222222222  L 6.17167968750002 4.9097222222222  L 4.64501953125 3.40190972222225  L 2.0478515625 5.9670138888889  L 2.02939453124999 5.98524305555555  L 1.99775390624998 6.01649305555555  C -0.248730468749978 8.23524305555555  -0.248730468749978 11.8342013888889  1.99775390624998 14.0529513888889  C 4.24423828124999 16.2717013888889  7.88818359375 16.2717013888889  10.13466796875 14.0529513888889  C 10.14521484375 14.0425347222222  10.15576171875 14.0321180555556  10.16630859375 14.0190972222222  Z " fill-rule="nonzero" fill="#ffffff" stroke="none" transform="matrix(1 0 0 1 13 21 )" />
  </g>
</svg>