<?xml version="1.0" encoding="utf-8"?>
<svg version="1.1" xmlns:xlink="http://www.w3.org/1999/xlink" width="18px" height="12px" xmlns="http://www.w3.org/2000/svg">
  <g transform="matrix(1 0 0 1 -15 -20 )">
    <path d="M 11.7830882352942 2.87999999999998  C 11.7830882352942 3.95695526217002  12.5962181381751 4.83000000000001  13.5992647058824 4.83000000000001  C 14.6023112735898 4.83000000000001  15.4154411764706 3.95695526217002  15.4154411764706 2.87999999999998  C 15.4154411764706 1.80304473782995  14.6023112735898 0.930000000000021  13.5992647058824 0.930000000000021  C 12.5962181381751 0.930000000000021  11.7830882352942 1.80304473782995  11.7830882352942 2.87999999999998  Z M 17.7764705882353 11.07  C 17.4132352941176 11.265  17.05 11.655  16.3235294117648 11.07  C 14.6889705882353 9.70500000000001  13.9625 10.095  12.872794117647 10.68  C 12.1463235294118 11.07  11.0566176470589 11.46  9.60367647058824 11.265  C 7.78750000000007 10.875  7.06102941176475 9.50999999999997  6.51617647058827 8.33999999999998  C 6.15294117647061 7.56000000000001  5.78970588235295 6.77999999999997  5.06323529411764 6.39000000000001  C 3.24705882352947 5.41500000000001  1.61250000000001 6.58499999999999  1.61250000000001 6.58499999999999  C 1.06764705882364 6.97500000000001  0.341176470588326 6.77999999999997  0.159558823529498 6.39000000000001  C -0.0220588235293313 6  0.159558823529498 5.22000000000003  0.522794117647155 5.02499999999999  C 0.704411764705984 5.02499999999999  3.06544117647064 3.27  5.78970588235295 4.63499999999997  C 7.06102941176475 5.41500000000001  7.60588235294124 6.39000000000001  8.15073529411773 7.36500000000003  C 8.69558823529421 8.33999999999998  9.05882352941175 9.12000000000002  10.1485294117647 9.31499999999999  C 10.875 9.50999999999997  11.4198529411765 9.31499999999999  12.1463235294118 8.92499999999998  C 13.4176470588235 8.33999999999998  14.8705882352942 7.56000000000001  17.4132352941176 9.70500000000001  C 17.9580882352941 10.095  17.9580882352941 10.875  17.7764705882353 11.07  Z " fill-rule="nonzero" fill="#ffffff" stroke="none" transform="matrix(1 0 0 1 15 20 )" />
  </g>
</svg>