<?xml version="1.0" encoding="utf-8"?>
<svg version="1.1" xmlns:xlink="http://www.w3.org/1999/xlink" width="26px" height="21px" xmlns="http://www.w3.org/2000/svg">
  <g transform="matrix(1 0 0 1 -12 -15 )">
    <path d="M 25 18.0833333333334  C 25.4829545454545 19.6  24.1386363636363 20.9270833333333  22.6022727272727 21  L 3.39772727272726 21  C 1.86136363636367 20.9270833333333  0.517045454545476 19.6  1 18.0833333333334  L 1 2.91666666666663  C 0.517045454545476 1.39999999999998  1.86136363636367 0.072916666666675  3.39772727272726 0  L 22.6022727272727 0  C 24.1386363636363 0.072916666666675  25.4829545454545 1.39999999999998  25 2.91666666666663  L 25 18.0833333333334  Z M 22.6022727272727 2  L 3.39772727272726 2  C 2.82159090909081 1.96875  2.4375 2.34791666666661  2.4375 2.91666666666663  L 2.4375 18.0833333333334  C 2.4375 18.6520833333334  2.82159090909081 19.03125  3.39772727272726 19  L 22.6022727272727 19  C 23.1784090909092 19.03125  23.5625 18.6520833333334  23.5625 18.0833333333334  L 23.5625 2.91666666666663  C 23.5625 2.34791666666661  23.1784090909092 1.96875  22.6022727272727 2  Z " fill-rule="nonzero" fill="#ffffff" stroke="none" transform="matrix(1 0 0 1 12 15 )" />
  </g>
</svg>