<?xml version="1.0" encoding="utf-8"?>
<svg version="1.1" xmlns:xlink="http://www.w3.org/1999/xlink" width="37px" height="35px" xmlns="http://www.w3.org/2000/svg">
  <g transform="matrix(1 0 0 1 -41 -42 )">
    <path d="M 37 2.89963586614104  C 36.9999627778373 1.23511956452501  35.5453692668021 0  33.918906876288 0  L 2.95684558070741 0  C 1.33042041235592 0  0 1.23511956452501  0 2.89963586614104  L 0 31.9734130388034  C 0 33.6378913083244  1.33038319019317 35  2.95684558070741 35  L 34.1656519748666 35  C 35.7920771432181 35  37 33.6378913083244  37 31.9734130388034  L 37 2.89963586614104  Z M 7.38414604388709 8.93386415444769  C 7.38414604388709 6.37627716325659  9.41496213980133 4.30305979264983  11.9198326422488 4.30305979264983  C 14.4246659225334 4.30305979264983  16.4555192406106 6.37631523252838  16.4555192406106 8.93386415444769  C 16.4555192406106 11.4914130763669  14.4247031446963 13.5646685162456  11.9198326422488 13.5646685162456  C 9.41496213980133 13.5646685162456  7.38414604388709 11.4914130763669  7.38414604388709 8.93386415444769  Z M 33.3920555789286 31.3252663254129  C 33.3594764716129 31.3170869713609  4.17884259933317 31.3297554509648  4.16476840110408 31.3297554509648  C 3.82467939650212 31.3297554509648  3.48194685425085 31.2100326101765  3.20355342073799 30.9651087083458  C 2.58328380941509 30.4213913237083  2.51105120073555 29.4663098055539  3.04318957339353 28.8315923995472  L 9.8422887236934 18.3601630385393  C 10.3471723228824 17.7570217513054  11.2211496511877 17.6561684804144  11.8458128239758 18.1288206468254  L 17.8449172056953 22.6812174026683  L 28.5938369548766 10.2049728247538  C 29.1030768569827 9.5522989165398  31.8035339245104 6.47804346466057  33.38412489321 9.96465218193617  C 33.3858748442553 9.95925002587148  33.3876620538487 14.5747228435394  33.389412004894 19.287396735693  C 33.3911619559393 24.2027282694133  33.3920555789286 31.3252663254129  33.3920555789286 31.3252663254129  Z " fill-rule="nonzero" fill="#fafafa" stroke="none" transform="matrix(1 0 0 1 41 42 )" />
  </g>
</svg>