<?xml version="1.0" encoding="utf-8"?>
<svg version="1.1" xmlns:xlink="http://www.w3.org/1999/xlink" width="16px" height="16px" xmlns="http://www.w3.org/2000/svg">
  <g transform="matrix(1 0 0 1 -17 -17 )">
    <path d="M 15.7835121951219 15.7626178861789  C 15.9317886178862 15.6148617886179  15.9317886178862 15.3748943089431  15.7837723577236 15.2268617886179  L 8.5452195121951 7.99284552845529  L 15.7789756097561 0.754552845528451  C 15.9269918699187 0.606536585365848  15.9269918699187 0.366569105691056  15.7789756097561 0.218796747967492  C 15.6309593495935 0.070780487804889  15.3909918699187 0.070780487804889  15.2432195121951 0.218796747967492  L 8.00920325203254 7.45734959349593  L 0.770650406504078 0.223333333333326  C 0.622634146341444 0.0753170731707229  0.382666666666651 0.0753170731707229  0.234894308943087 0.223333333333326  C 0.0868780487805161 0.371349593495932  0.0868780487805161 0.611317073170721  0.234894308943087 0.759349593495941  L 7.47344715447155 7.99336585365854  L 0.239691056910548 15.2316585365853  C 0.0916747967479736 15.379674796748  0.0916747967479736 15.6196422764228  0.239691056910548 15.7674146341463  C 0.387707317073183 15.9154308943089  0.627674796747971 15.9154308943089  0.775447154471536 15.7674146341463  L 8.00946341463417 8.52886178861787  L 15.2477560975609 15.7626178861789  C 15.3957723577236 15.9106341463415  15.6357398373984 15.9106341463415  15.7835121951219 15.7626178861789  Z " fill-rule="nonzero" fill="#333333" stroke="none" transform="matrix(1 0 0 1 17 17 )" />
  </g>
</svg>