<?xml version="1.0" encoding="utf-8"?>
<svg version="1.1" xmlns:xlink="http://www.w3.org/1999/xlink" width="18px" height="19px" xmlns="http://www.w3.org/2000/svg">
  <g transform="matrix(1 0 0 1 -237 -365 )">
    <path d="M 13.546875 0.720982142857143  L 17.203125 4.02901785714286  C 17.421875 4.22693452380952  17.609375 4.49553571428572  17.765625 4.83482142857143  C 17.921875 5.17410714285714  18 5.48511904761905  18 5.76785714285714  L 18 17.9821428571429  C 18 18.264880952381  17.890625 18.5052083333333  17.671875 18.703125  C 17.453125 18.9010416666667  17.1875 19  16.875 19  L 1.125 19  C 0.8125 19  0.546875 18.9010416666667  0.328125 18.703125  C 0.109375 18.5052083333333  0 18.264880952381  0 17.9821428571429  L 0 1.01785714285714  C 0 0.735119047619047  0.109375 0.494791666666666  0.328125 0.296875  C 0.546875 0.098958333333334  0.8125 0  1.125 0  L 11.625 0  C 11.9375 0  12.28125 0.0706845238095246  12.65625 0.212053571428572  C 13.03125 0.353422619047619  13.328125 0.523065476190475  13.546875 0.720982142857143  Z M 12.48046875 1.67522321428572  C 12.38671875 1.59040178571428  12.2265625 1.51264880952381  12 1.44196428571428  L 12 5.42857142857143  L 16.40625 5.42857142857143  C 16.328125 5.22358630952381  16.2421875 5.07868303571428  16.1484375 4.99386160714286  L 12.48046875 1.67522321428572  Z M 1.5 17.6428571428571  L 16.5 17.6428571428571  L 16.5 6.78571428571428  L 11.625 6.78571428571428  C 11.3125 6.78571428571428  11.046875 6.68675595238095  10.828125 6.48883928571428  C 10.609375 6.29092261904762  10.5 6.05059523809524  10.5 5.76785714285714  L 10.5 1.35714285714286  L 1.5 1.35714285714286  L 1.5 17.6428571428571  Z M 5.82421875 15.1618303571429  L 5.02734375 15.1618303571429  L 5.02734375 16.2857142857143  L 8.3203125 16.2857142857143  L 8.3203125 15.1618303571429  L 7.44140625 15.1618303571429  L 8.6484375 13.4547991071429  C 8.6875 13.4053199404762  8.7265625 13.3470052083333  8.765625 13.2798549107143  C 8.8046875 13.2127046130952  8.833984375 13.1649925595238  8.853515625 13.13671875  C 8.873046875 13.1084449404762  8.88671875 13.0943080357143  8.89453125 13.0943080357143  L 8.91796875 13.0943080357143  C 8.92578125 13.1225818452381  8.9453125 13.1579241071429  8.9765625 13.2003348214286  C 8.9921875 13.2286086309524  9.009765625 13.255115327381  9.029296875 13.2798549107143  C 9.048828125 13.3045944940476  9.072265625 13.3328683035714  9.099609375 13.3646763392857  C 9.126953125 13.396484375  9.15234375 13.426525297619  9.17578125 13.4547991071429  L 10.4296875 15.1618303571429  L 9.5390625 15.1618303571429  L 9.5390625 16.2857142857143  L 12.94921875 16.2857142857143  L 12.94921875 15.1618303571429  L 12.15234375 15.1618303571429  L 9.90234375 12.2672991071429  L 12.1875 9.27734375  L 12.97265625 9.27734375  L 12.97265625 8.14285714285714  L 9.703125 8.14285714285714  L 9.703125 9.27734375  L 10.5703125 9.27734375  L 9.36328125 10.9631696428571  C 9.33203125 11.0126488095238  9.29296875 11.0709635416667  9.24609375 11.1381138392857  C 9.19921875 11.2052641369048  9.1640625 11.2529761904762  9.140625 11.28125  L 9.1171875 11.3130580357143  L 9.09375 11.3130580357143  C 9.0859375 11.2847842261905  9.06640625 11.2494419642857  9.03515625 11.20703125  C 8.98828125 11.1292782738095  8.921875 11.0479910714286  8.8359375 10.9631696428571  L 7.59375 9.27734375  L 8.484375 9.27734375  L 8.484375 8.14285714285714  L 5.0859375 8.14285714285714  L 5.0859375 9.27734375  L 5.8828125 9.27734375  L 8.09765625 12.1612723214286  L 5.82421875 15.1618303571429  Z " fill-rule="nonzero" fill="#70b603" stroke="none" transform="matrix(1 0 0 1 237 365 )" />
  </g>
</svg>