<?xml version="1.0" encoding="utf-8"?>
<svg version="1.1" xmlns:xlink="http://www.w3.org/1999/xlink" width="10px" height="10px" xmlns="http://www.w3.org/2000/svg">
  <g transform="matrix(1 0 0 1 -29 -423 )">
    <path d="M 34 424  C 36.24 424  38 425.76  38 428  C 38 430.24  36.24 432  34 432  C 31.76 432  30 430.24  30 428  C 30 425.76  31.76 424  34 424  Z " fill-rule="nonzero" fill="#f9f9f9" stroke="none" />
    <path d="M 34 424  C 36.24 424  38 425.76  38 428  C 38 430.24  36.24 432  34 432  C 31.76 432  30 430.24  30 428  C 30 425.76  31.76 424  34 424  Z " stroke-width="2" stroke="#0079fe" fill="none" />
  </g>
</svg>