<?xml version="1.0" encoding="utf-8"?>
<svg version="1.1" xmlns:xlink="http://www.w3.org/1999/xlink" width="11px" height="10px" xmlns="http://www.w3.org/2000/svg">
  <g transform="matrix(1 0 0 1 -53 -1000 )">
    <path d="M 58.5 1000  C 61.58 1000  64 1002.2  64 1005  C 64 1007.8  61.58 1010  58.5 1010  C 55.42 1010  53 1007.8  53 1005  C 53 1002.2  55.42 1000  58.5 1000  Z " fill-rule="nonzero" fill="#ffff00" stroke="none" />
    <path d="M 58.5 1000.5  C 61.3 1000.5  63.5 1002.48  63.5 1005  C 63.5 1007.52  61.3 1009.5  58.5 1009.5  C 55.7 1009.5  53.5 1007.52  53.5 1005  C 53.5 1002.48  55.7 1000.5  58.5 1000.5  Z " stroke-width="1" stroke="#ffff00" fill="none" />
  </g>
</svg>