<?xml version="1.0" encoding="utf-8"?>
<svg version="1.1" xmlns:xlink="http://www.w3.org/1999/xlink" width="53px" height="42px" xmlns="http://www.w3.org/2000/svg">
  <g transform="matrix(1 0 0 1 -294 -488 )">
    <path d="M 294 488  L 347 488  L 347 530  L 294 530  L 294 488  " fill-rule="nonzero" fill="#cccccc" stroke="none" />
    <path d="M 297 491  L 344 491  L 344 527  L 297 527  L 297 491  " fill-rule="nonzero" fill="#ffffff" stroke="none" />
    <path d="M 324.71 500.6  C 322.946 500.6  321.56 499.214  321.56 497.45  C 321.56 495.686  322.946 494.3  324.71 494.3  C 326.474 494.3  327.86 495.686  327.86 497.45  C 327.86 499.214  326.474 500.6  324.71 500.6  " fill-rule="nonzero" fill="#cccccc" stroke="none" />
    <path d="M 298 526  L 298 507.3  L 309.25 498.8  L 325 509.833962264151  L 334 503.9  L 343 509.833962264151  L 343 526  L 298 526  " fill-rule="nonzero" fill="#169bd5" stroke="none" />
  </g>
</svg>