<?xml version="1.0" encoding="utf-8"?>
<svg version="1.1" xmlns:xlink="http://www.w3.org/1999/xlink" width="10px" height="13px" xmlns="http://www.w3.org/2000/svg">
  <g transform="matrix(1 0 0 1 -53 -785 )">
    <path d="M 6.767578125 5.865234375  C 7.255859375 5.44205729166667  7.5 4.93142361111111  7.5 4.33333333333333  C 7.5 3.73524305555555  7.255859375 3.224609375  6.767578125 2.80143229166667  C 6.279296875 2.37825520833333  5.69010416666667 2.16666666666667  5 2.16666666666667  C 4.30989583333333 2.16666666666667  3.720703125 2.37825520833333  3.232421875 2.80143229166667  C 2.744140625 3.224609375  2.5 3.73524305555555  2.5 4.33333333333333  C 2.5 4.93142361111111  2.744140625 5.44205729166667  3.232421875 5.865234375  C 3.720703125 6.28841145833333  4.30989583333333 6.5  5 6.5  C 5.69010416666667 6.5  6.279296875 6.28841145833333  6.767578125 5.865234375  Z M 8.53515625 1.26953125  C 9.51171875 2.11588541666667  10 3.13715277777778  10 4.33333333333333  C 10 4.94835069444444  9.892578125 5.45334201388889  9.677734375 5.84830729166667  L 6.123046875 12.3990885416667  C 6.01888020833333 12.5852864583333  5.8642578125 12.7319878472222  5.6591796875 12.8391927083333  C 5.4541015625 12.9463975694444  5.234375 13  5 13  C 4.765625 13  4.5458984375 12.9463975694444  4.3408203125 12.8391927083333  C 4.1357421875 12.7319878472222  3.984375 12.5852864583333  3.88671875 12.3990885416667  L 0.322265625 5.84830729166667  C 0.107421875 5.45334201388889  0 4.94835069444444  0 4.33333333333333  C 0 3.13715277777778  0.48828125 2.11588541666667  1.46484375 1.26953125  C 2.44140625 0.423177083333334  3.61979166666667 0  5 0  C 6.38020833333333 0  7.55859375 0.423177083333334  8.53515625 1.26953125  Z " fill-rule="nonzero" fill="#02a7f0" stroke="none" transform="matrix(1 0 0 1 53 785 )" />
  </g>
</svg>