<?xml version="1.0" encoding="utf-8"?>
<svg version="1.1" xmlns:xlink="http://www.w3.org/1999/xlink" width="11px" height="10px" xmlns="http://www.w3.org/2000/svg">
  <g transform="matrix(1 0 0 1 -53 -984 )">
    <path d="M 58.5 984  C 61.58 984  64 986.2  64 989  C 64 991.8  61.58 994  58.5 994  C 55.42 994  53 991.8  53 989  C 53 986.2  55.42 984  58.5 984  Z " fill-rule="nonzero" fill="#70b603" stroke="none" />
    <path d="M 58.5 984.5  C 61.3 984.5  63.5 986.48  63.5 989  C 63.5 991.52  61.3 993.5  58.5 993.5  C 55.7 993.5  53.5 991.52  53.5 989  C 53.5 986.48  55.7 984.5  58.5 984.5  Z " stroke-width="1" stroke="#70b603" fill="none" />
  </g>
</svg>