<?xml version="1.0" encoding="utf-8"?>
<svg version="1.1" xmlns:xlink="http://www.w3.org/1999/xlink" width="13px" height="9px" xmlns="http://www.w3.org/2000/svg">
  <g transform="matrix(1 0 0 1 -124 -39 )">
    <path d="M 12.7587890625 0.296875  C 12.9195963541667 0.494791666666666  13 0.729166666666664  13 1  C 13 1.27083333333333  12.9195963541667 1.50520833333333  12.7587890625 1.703125  L 7.0712890625 8.703125  C 6.91048177083333 8.90104166666667  6.72005208333333 9  6.5 9  C 6.27994791666667 9  6.08951822916667 8.90104166666667  5.9287109375 8.703125  L 0.2412109375 1.703125  C 0.0804036458333333 1.50520833333333  0 1.27083333333333  0 1  C 0 0.729166666666664  0.0804036458333333 0.494791666666666  0.2412109375 0.296875  C 0.402018229166667 0.0989583333333321  0.592447916666667 0  0.8125 0  L 12.1875 0  C 12.4075520833333 0  12.5979817708333 0.0989583333333321  12.7587890625 0.296875  Z " fill-rule="nonzero" fill="#000000" stroke="none" transform="matrix(1 0 0 1 124 39 )" />
  </g>
</svg>