<?xml version="1.0" encoding="utf-8"?>
<svg version="1.1" xmlns:xlink="http://www.w3.org/1999/xlink" width="18px" height="22px" xmlns="http://www.w3.org/2000/svg">
  <g transform="matrix(1 0 0 1 -311 -28 )">
    <path d="M 8.8565255474453 0.00271493389750077  C 5.84776642335765 0.00271493389750077  3.39976642335768 2.56941344059103  3.39976642335768 5.72308065592335  C 3.39976642335768 8.87674787125562  5.84776642335765 11.4434463779492  8.8565255474453 11.4434463779492  C 11.8652846715328 11.4434463779492  14.3132846715329 8.87729085803512  14.3132846715329 5.72308065592335  C 14.3132846715329 2.56832746703203  11.8652846715328 0.00271493389750077  8.8565255474453 0.00271493389750077  Z M 11.1048175182482 11.994577959141  L 7.01605839416061 11.994577959141  C 3.2168759124088 11.994577959141  0.126656934306538 15.2324081252957  0.126656934306538 19.2125012190261  L 0.126656934306538 19.6409177880511  C 0.126656934306538 21.7221861138722  3.16747445255476 21.7221861138722  7.01605839416061 21.7221861138722  L 11.1048175182482 21.7221861138722  C 14.8025693430657 21.7221861138722  17.9952700729927 21.7221861138722  17.9952700729927 19.6409177880511  L 17.9952700729927 19.2125012190261  C 17.9952700729927 15.2329511120752  14.9045255474452 11.994577959141  11.1048175182482 11.994577959141  Z " fill-rule="nonzero" fill="#fafafa" stroke="none" transform="matrix(1 0 0 1 311 28 )" />
  </g>
</svg>