<?xml version="1.0" encoding="utf-8"?>
<svg version="1.1" xmlns:xlink="http://www.w3.org/1999/xlink" width="4px" height="15px" xmlns="http://www.w3.org/2000/svg">
  <g transform="matrix(1 0 0 1 -353 -95 )">
    <path d="M 3.70833333333333 11.2073863636364  C 3.90277777777778 11.40625  4 11.6477272727273  4 11.9318181818182  L 4 13.9772727272727  C 4 14.2613636363636  3.90277777777778 14.5028409090909  3.70833333333333 14.7017045454545  C 3.51388888888889 14.9005681818182  3.27777777777778 15  3 15  L 1 15  C 0.722222222222222 15  0.486111111111111 14.9005681818182  0.291666666666667 14.7017045454545  C 0.0972222222222222 14.5028409090909  0 14.2613636363636  0 13.9772727272727  L 0 11.9318181818182  C 0 11.6477272727273  0.0972222222222222 11.40625  0.291666666666667 11.2073863636364  C 0.486111111111111 11.0085227272727  0.722222222222222 10.9090909090909  1 10.9090909090909  L 3 10.9090909090909  C 3.27777777777778 10.9090909090909  3.51388888888889 11.0085227272727  3.70833333333333 11.2073863636364  Z M 3.70833333333333 5.75284090909091  C 3.90277777777778 5.95170454545454  4 6.19318181818182  4 6.47727272727273  L 4 8.52272727272727  C 4 8.80681818181818  3.90277777777778 9.04829545454545  3.70833333333333 9.24715909090909  C 3.51388888888889 9.44602272727273  3.27777777777778 9.54545454545455  3 9.54545454545455  L 1 9.54545454545455  C 0.722222222222222 9.54545454545455  0.486111111111111 9.44602272727273  0.291666666666667 9.24715909090909  C 0.0972222222222222 9.04829545454545  0 8.80681818181818  0 8.52272727272727  L 0 6.47727272727273  C 0 6.19318181818182  0.0972222222222222 5.95170454545454  0.291666666666667 5.75284090909091  C 0.486111111111111 5.55397727272727  0.722222222222222 5.45454545454546  1 5.45454545454546  L 3 5.45454545454546  C 3.27777777777778 5.45454545454546  3.51388888888889 5.55397727272727  3.70833333333333 5.75284090909091  Z M 3.70833333333333 0.298295454545455  C 3.90277777777778 0.49715909090909  4 0.738636363636363  4 1.02272727272727  L 4 3.06818181818182  C 4 3.35227272727273  3.90277777777778 3.59375  3.70833333333333 3.79261363636364  C 3.51388888888889 3.99147727272727  3.27777777777778 4.09090909090909  3 4.09090909090909  L 1 4.09090909090909  C 0.722222222222222 4.09090909090909  0.486111111111111 3.99147727272727  0.291666666666667 3.79261363636364  C 0.0972222222222222 3.59375  0 3.35227272727273  0 3.06818181818182  L 0 1.02272727272727  C 0 0.738636363636363  0.0972222222222222 0.49715909090909  0.291666666666667 0.298295454545455  C 0.486111111111111 0.0994318181818177  0.722222222222222 0  1 0  L 3 0  C 3.27777777777778 0  3.51388888888889 0.0994318181818177  3.70833333333333 0.298295454545455  Z " fill-rule="nonzero" fill="#aaaaaa" stroke="none" transform="matrix(1 0 0 1 353 95 )" />
  </g>
</svg>