<?xml version="1.0" encoding="utf-8"?>
<svg version="1.1" xmlns:xlink="http://www.w3.org/1999/xlink" width="41px" height="41px" xmlns="http://www.w3.org/2000/svg">
  <g transform="matrix(1 0 0 1 -7 -134 )">
    <path d="M 12.5379464285714 1.62444196428571  C 15.0699404761905 0.541480654761905  17.7239583333333 0  20.5 0  C 23.2760416666667 0  25.9300595238095 0.541480654761905  28.4620535714286 1.62444196428571  C 30.9940476190476 2.70740327380952  33.1752232142857 4.1640625  35.0055803571429 5.99441964285714  C 36.8359375 7.82477678571429  38.2925967261905 10.0059523809524  39.3755580357143 12.5379464285714  C 40.4585193452381 15.0699404761905  41 17.7239583333333  41 20.5  C 41 23.2607886904762  40.4623325892857 25.9071800595238  39.3869977678571 28.4391741071429  C 38.3116629464286 30.9711681547619  36.8588169642857 33.15234375  35.0284598214286 34.9827008928571  C 33.1981026785714 36.8130580357143  31.0169270833333 38.2735305059524  28.4849330357143 39.3641183035714  C 25.9529389880952 40.4547061011905  23.2912946428571 41  20.5 41  C 17.7087053571429 41  15.0470610119048 40.4585193452381  12.5150669642857 39.3755580357143  C 9.98307291666667 38.2925967261905  7.80571056547619 36.8321242559524  5.98297991071429 34.994140625  C 4.16024925595238 33.1561569940476  2.70740327380952 30.9749813988095  1.62444196428571 28.4506138392857  C 0.541480654761905 25.9262462797619  0 23.2760416666667  0 20.5  C 0 17.7239583333333  0.541480654761905 15.0699404761905  1.62444196428571 12.5379464285714  C 2.70740327380952 10.0059523809524  4.1640625 7.82477678571429  5.99441964285714 5.99441964285714  C 7.82477678571429 4.1640625  10.0059523809524 2.70740327380952  12.5379464285714 1.62444196428571  Z M 27.6612723214286 23.4285714285714  C 31.3219866071429 23.4285714285714  33.6556919642857 25.9224330357143  34.6623883928571 30.91015625  C 36.9350818452381 27.7832961309524  38.0714285714286 24.313244047619  38.0714285714286 20.5  C 38.0714285714286 18.1205357142857  37.6062127976191 15.8478422619048  36.67578125 13.6819196428571  C 35.745349702381 11.5159970238095  34.4946056547619 9.64750744047619  32.9235491071429 8.07645089285714  C 31.3524925595238 6.5053943452381  29.4840029761905 5.25465029761905  27.3180803571429 4.32421875  C 25.1521577380952 3.39378720238095  22.8794642857143 2.92857142857143  20.5 2.92857142857143  C 18.1205357142857 2.92857142857143  15.8478422619048 3.39378720238095  13.6819196428571 4.32421875  C 11.5159970238095 5.25465029761905  9.64750744047619 6.5053943452381  8.07645089285714 8.07645089285714  C 6.5053943452381 9.64750744047619  5.25465029761905 11.5159970238095  4.32421875 13.6819196428571  C 3.39378720238095 15.8478422619048  2.92857142857143 18.1205357142857  2.92857142857143 20.5  C 2.92857142857143 24.313244047619  4.06491815476191 27.7832961309524  6.33761160714286 30.91015625  C 7.34430803571429 25.9224330357143  9.67801339285714 23.4285714285714  13.3387276785714 23.4285714285714  C 15.3368675595238 25.3809523809524  17.7239583333333 26.3571428571429  20.5 26.3571428571429  C 23.2760416666667 26.3571428571429  25.6631324404762 25.3809523809524  27.6612723214286 23.4285714285714  Z M 26.7117745535714 22.3189174107143  C 28.427734375 20.6029575892857  29.2857142857143 18.5323660714286  29.2857142857143 16.1071428571429  C 29.2857142857143 13.6819196428571  28.427734375 11.611328125  26.7117745535714 9.89536830357143  C 24.9958147321429 8.17940848214286  22.9252232142857 7.32142857142857  20.5 7.32142857142857  C 18.0747767857143 7.32142857142857  16.0041852678571 8.17940848214286  14.2882254464286 9.89536830357143  C 12.572265625 11.611328125  11.7142857142857 13.6819196428571  11.7142857142857 16.1071428571429  C 11.7142857142857 18.5323660714286  12.572265625 20.6029575892857  14.2882254464286 22.3189174107143  C 16.0041852678571 24.0348772321429  18.0747767857143 24.8928571428571  20.5 24.8928571428571  C 22.9252232142857 24.8928571428571  24.9958147321429 24.0348772321429  26.7117745535714 22.3189174107143  Z " fill-rule="nonzero" fill="#000000" stroke="none" transform="matrix(1 0 0 1 7 134 )" />
  </g>
</svg>