<?xml version="1.0" encoding="utf-8"?>
<svg version="1.1" xmlns:xlink="http://www.w3.org/1999/xlink" width="19px" height="19px" xmlns="http://www.w3.org/2000/svg">
  <g transform="matrix(1 0 0 1 -343 -389 )">
    <path d="M 352.5 389  C 357.82 389  362 393.18  362 398.5  C 362 403.82  357.82 408  352.5 408  C 347.18 408  343 403.82  343 398.5  C 343 393.18  347.18 389  352.5 389  Z " fill-rule="nonzero" fill="#aaaaaa" stroke="none" />
    <path d="M 352.5 389.5  C 357.54 389.5  361.5 393.46  361.5 398.5  C 361.5 403.54  357.54 407.5  352.5 407.5  C 347.46 407.5  343.5 403.54  343.5 398.5  C 343.5 393.46  347.46 389.5  352.5 389.5  Z " stroke-width="1" stroke="#aaaaaa" fill="none" />
  </g>
</svg>