<?xml version="1.0" encoding="utf-8"?>
<svg version="1.1" xmlns:xlink="http://www.w3.org/1999/xlink" width="285px" height="182px" xmlns="http://www.w3.org/2000/svg">
  <g transform="matrix(1 0 0 1 -3 -3 )">
    <path d="M 3 3  L 288 3  L 288 185  L 3 185  L 3 3  " fill-rule="nonzero" fill="#cccccc" stroke="none" />
    <path d="M 16 16  L 275 16  L 275 172  L 16 172  L 16 16  " fill-rule="nonzero" fill="#ffffff" stroke="none" />
    <path d="M 164.85 57.6  C 157.206 57.6  151.2 51.594  151.2 43.95  C 151.2 36.306  157.206 30.3  164.85 30.3  C 172.494 30.3  178.5 36.306  178.5 43.95  C 178.5 51.594  172.494 57.6  164.85 57.6  " fill-rule="nonzero" fill="#cccccc" stroke="none" />
    <path d="M 21 168  L 21 87.15  L 83.5 50.4  L 171 111.675789473684  L 221 72.45  L 271 111.675789473684  L 271 168  L 21 168  " fill-rule="nonzero" fill="#169bd5" stroke="none" />
  </g>
</svg>