<?xml version="1.0" encoding="utf-8"?>
<svg version="1.1" xmlns:xlink="http://www.w3.org/1999/xlink" width="8px" height="15px" xmlns="http://www.w3.org/2000/svg">
  <g transform="matrix(1 0 0 1 -348 -20 )">
    <path d="M 7.83561643219883 7.76470587498387  L 0.931506854240922 14.6063348352424  C 0.712328763839366 14.8235294138935  0.383561658202723 14.8235294138935  0.164383567801224 14.6063348352424  C -0.054794522600389 14.3891402565913  -0.054794522600389 14.0633484183093  0.164383567801224 13.8461538396582  L 6.6849315025392 7.38461537719173  L 0.164383567801224 0.923076914725325  C -0.054794522600389 0.705882336074229  -0.054794522600389 0.38009049779215  0.164383567801224 0.162895919141054  C 0.273972613001945 0.0542986298154773  0.438356165820267 0  0.547945211021045 0  C 0.657534256221766 0  0.821917809040144 0.0542986298154773  0.931506854240922 0.162895919141054  L 7.83561643219883 7.00452487939961  C 8.05479452260039 7.22171945805073  8.05479452260039 7.54751129633278  7.83561643219883 7.76470587498387  Z " fill-rule="nonzero" fill="#666666" stroke="none" transform="matrix(1 0 0 1 348 20 )" />
  </g>
</svg>