<?xml version="1.0" encoding="utf-8"?>
<svg version="1.1" xmlns:xlink="http://www.w3.org/1999/xlink" width="45px" height="45px" xmlns="http://www.w3.org/2000/svg">
  <g transform="matrix(1 0 0 1 -165 -38 )">
    <path d="M 44.9 22.4999553571429  C 44.9 10.1286607142857  34.8710714285714 0.0999553571428606  22.5 0.0999553571428606  C 10.1284375 0.0999553571428606  0.0999999999999943 10.1286607142857  0.0999999999999943 22.4999553571429  C 0.0999999999999943 34.8712946428572  10.1284375 44.8999553571429  22.5 44.8999553571429  C 34.8710714285714 44.8999553571429  44.9 34.8712946428572  44.9 22.4999553571429  Z M 36.4576785714286 17.001875  L 20.7825446428571 32.1170089285714  C 20.5804507663614 32.3193524856538  20.3453229285057 32.4857415893527  20.0872767857143 32.6090178571429  C 19.1029017857143 33.3123214285714  17.7266517857143 33.2226339285714  16.8429017857143 32.33875  L 10.1114732142857 25.6071875  C 9.12714285714287 24.6229017857143  9.12714285714287 23.0274553571429  10.1114732142857 22.0435714285714  C 11.0952678571429 21.0591964285714  12.6908035714286 21.0591964285714  13.6750892857143 22.0435714285714  L 18.7289732142857 27.0972321428572  L 32.8939732142857 13.4379464285714  C 33.8781696428572 12.4538839285714  35.4737946428572 12.4538839285714  36.4575892857143 13.4379464285714  C 37.4419642857143 14.4220982142857  37.4419642857143 16.0177232142857  36.4576785714286 17.0018303571429  Z " fill-rule="nonzero" fill="#aaaaaa" stroke="none" transform="matrix(1 0 0 1 165 38 )" />
  </g>
</svg>