<?xml version="1.0" encoding="utf-8"?>
<svg version="1.1" xmlns:xlink="http://www.w3.org/1999/xlink" width="35px" height="35px" xmlns="http://www.w3.org/2000/svg">
  <g transform="matrix(1 0 0 1 -17 -17 )">
    <path d="M 34.8044444444444 17.1466666666666  C 34.8044444444444 17.7433333333333  34.3211111111111 18.2277777777778  33.7233333333333 18  L 19 18  L 19 33.72  C 18.9522222222222 34.3166666666667  18.4688888888889 34.8011111111111  17.8711111111111 34.8011111111111  C 17.2733333333333 34.8011111111111  16.79 34.3166666666667  17 33.72  L 17 18  L 1.29777777777778 18  C 0.701111111111118 18.2277777777778  0.216666666666669 17.7433333333333  0.216666666666669 17.1466666666666  C 0.216666666666669 16.55  0.699999999999989 16.0655555555555  1.29777777777778 16  L 17 16  L 17 1.29444444444442  C 16.79 0.697777777777787  17.2733333333333 0.21333333333331  17.8711111111111 0.21333333333331  C 18.4688888888889 0.21333333333331  18.9522222222222 0.697777777777787  19 1.29444444444442  L 19 16  L 33.7233333333333 16  C 34.32 16.0655555555555  34.8044444444444 16.55  34.8044444444444 17.1466666666666  Z " fill-rule="nonzero" fill="#cccccc" stroke="none" transform="matrix(1 0 0 1 17 17 )" />
  </g>
</svg>