<?xml version="1.0" encoding="utf-8"?>
<svg version="1.1" xmlns:xlink="http://www.w3.org/1999/xlink" width="11px" height="16px" xmlns="http://www.w3.org/2000/svg">
  <g transform="matrix(1 0 0 1 -354 -57 )">
    <path d="M 10.8109965635739 7.6312625250501  C 10.9369988545246 7.73814295257181  11 7.86105544422178  11 8  C 11 8.13894455577822  10.9369988545246 8.26185704742819  10.8109965635739 8.3687374749499  L 2.00343642611684 15.8396793587174  C 1.87743413516609 15.9465597862391  1.73253150057274 16  1.56872852233677 16  C 1.4049255441008 16  1.26002290950745 15.9465597862391  1.1340206185567 15.8396793587174  L 0.189003436426117 15.0380761523046  C 0.0630011454753723 14.9311957247829  0 14.8082832331329  0 14.6693386773547  C 0 14.5303941215765  0.0630011454753723 14.4074816299265  0.189003436426117 14.3006012024048  L 7.61683848797251 8  L 0.189003436426117 1.69939879759519  C 0.0630011454753723 1.59251837007348  0 1.46960587842351  0 1.33066132264529  C 0 1.19171676686707  0.0630011454753723 1.0688042752171  0.189003436426117 0.96192384769539  L 1.1340206185567 0.160320641282565  C 1.26002290950745 0.0534402137608545  1.4049255441008 0  1.56872852233677 0  C 1.73253150057274 0  1.87743413516609 0.0534402137608545  2.00343642611684 0.160320641282565  L 10.8109965635739 7.6312625250501  Z " fill-rule="nonzero" fill="#aaaaaa" stroke="none" transform="matrix(1 0 0 1 354 57 )" />
  </g>
</svg>