<?xml version="1.0" encoding="utf-8"?>
<svg version="1.1" xmlns:xlink="http://www.w3.org/1999/xlink" width="16px" height="15px" xmlns="http://www.w3.org/2000/svg">
  <g transform="matrix(1 0 0 1 -28 -537 )">
    <path d="M 36 537  C 40.48 537  44 540.3  44 544.5  C 44 548.7  40.48 552  36 552  C 31.52 552  28 548.7  28 544.5  C 28 540.3  31.52 537  36 537  Z " fill-rule="nonzero" fill="#02a7f0" stroke="none" />
    <path d="M 36 537.5  C 40.2 537.5  43.5 540.58  43.5 544.5  C 43.5 548.42  40.2 551.5  36 551.5  C 31.8 551.5  28.5 548.42  28.5 544.5  C 28.5 540.58  31.8 537.5  36 537.5  Z " stroke-width="1" stroke="#02a7f0" fill="none" />
  </g>
</svg>