<?xml version="1.0" encoding="utf-8"?>
<svg version="1.1" xmlns:xlink="http://www.w3.org/1999/xlink" width="19px" height="16px" xmlns="http://www.w3.org/2000/svg">
  <g transform="matrix(1 0 0 1 -10 -32 )">
    <path d="M 15.66015625 6.78125  C 15.80859375 6.65625  15.8828125 6.5  15.8828125 6.3125  C 15.8828125 6.11805555555556  15.80859375 5.95833333333333  15.66015625 5.83333333333333  L 14.5345052083333 4.89583333333333  C 14.3778211805556 4.76388888888889  14.1922743055556 4.69791666666667  13.9778645833333 4.69791666666667  C 13.7634548611111 4.69791666666667  13.5779079861111 4.76388888888889  13.4212239583333 4.89583333333333  L 8.37434895833333 9.13541666666667  L 5.57877604166667 6.78125  C 5.42209201388889 6.64930555555556  5.23654513888889 6.58333333333333  5.02213541666667 6.58333333333333  C 4.80772569444444 6.58333333333333  4.62217881944444 6.64930555555556  4.46549479166667 6.78125  L 3.33984375 7.71875  C 3.19140625 7.84375  3.1171875 8.00347222222222  3.1171875 8.19791666666667  C 3.1171875 8.38541666666667  3.19140625 8.54166666666667  3.33984375 8.66666666666667  L 7.81770833333333 12.4375  C 7.97439236111111 12.5694444444444  8.15993923611111 12.6354166666667  8.37434895833333 12.6354166666667  C 8.59700520833333 12.6354166666667  8.78667534722222 12.5694444444444  8.943359375 12.4375  L 15.66015625 6.78125  Z M 17.7259114583333 3.984375  C 18.5753038194444 5.21006944444444  19 6.54861111111111  19 8  C 19 9.45138888888889  18.5753038194444 10.7899305555556  17.7259114583333 12.015625  C 16.8765190972222 13.2413194444444  15.7240668402778 14.2118055555556  14.2685546875 14.9270833333333  C 12.8130425347222 15.6423611111111  11.2235243055556 16  9.5 16  C 7.77647569444444 16  6.18695746527778 15.6423611111111  4.7314453125 14.9270833333333  C 3.27593315972222 14.2118055555556  2.12348090277778 13.2413194444444  1.27408854166667 12.015625  C 0.424696180555555 10.7899305555556  0 9.45138888888889  0 8  C 0 6.54861111111111  0.424696180555555 5.21006944444444  1.27408854166667 3.984375  C 2.12348090277778 2.75868055555556  3.27593315972222 1.78819444444444  4.7314453125 1.07291666666667  C 6.18695746527778 0.357638888888888  7.77647569444444 0  9.5 0  C 11.2235243055556 0  12.8130425347222 0.357638888888888  14.2685546875 1.07291666666667  C 15.7240668402778 1.78819444444444  16.8765190972222 2.75868055555556  17.7259114583333 3.984375  Z " fill-rule="nonzero" fill="#02a7f0" stroke="none" fill-opacity="0.996078431372549" transform="matrix(1 0 0 1 10 32 )" />
  </g>
</svg>