<?xml version="1.0" encoding="utf-8"?>
<svg version="1.1" xmlns:xlink="http://www.w3.org/1999/xlink" width="25px" height="23px" xmlns="http://www.w3.org/2000/svg">
  <g transform="matrix(1 0 0 1 -114 -503 )">
    <path d="M 20.60546875 9.748046875  C 20.80078125 9.568359375  20.8984375 9.34375  20.8984375 9.07421875  C 20.8984375 8.79470486111111  20.80078125 8.56510416666667  20.60546875 8.38541666666667  L 19.1243489583333 7.03776041666667  C 18.9181857638889 6.84809027777778  18.6740451388889 6.75325520833333  18.3919270833333 6.75325520833333  C 18.1098090277778 6.75325520833333  17.8656684027778 6.84809027777778  17.6595052083333 7.03776041666667  L 11.0188802083333 13.1321614583333  L 7.34049479166667 9.748046875  C 7.13433159722222 9.55837673611111  6.89019097222222 9.46354166666667  6.60807291666667 9.46354166666667  C 6.32595486111111 9.46354166666667  6.08181423611111 9.55837673611111  5.87565104166667 9.748046875  L 4.39453125 11.095703125  C 4.19921875 11.275390625  4.1015625 11.5049913194444  4.1015625 11.7845052083333  C 4.1015625 12.0540364583333  4.19921875 12.2786458333333  4.39453125 12.4583333333333  L 10.2864583333333 17.87890625  C 10.4926215277778 18.0685763888889  10.7367621527778 18.1634114583333  11.0188802083333 18.1634114583333  C 11.3118489583333 18.1634114583333  11.5614149305556 18.0685763888889  11.767578125 17.87890625  L 20.60546875 9.748046875  Z M 23.3235677083333 5.7275390625  C 24.4411892361111 7.48947482638889  25 9.41362847222222  25 11.5  C 25 13.5863715277778  24.4411892361111 15.5105251736111  23.3235677083333 17.2724609375  C 22.2059461805556 19.0343967013889  20.6895616319444 20.4294704861111  18.7744140625 21.4576822916667  C 16.8592664930556 22.4858940972222  14.7677951388889 23  12.5 23  C 10.2322048611111 23  8.14073350694444 22.4858940972222  6.2255859375 21.4576822916667  C 4.31043836805556 20.4294704861111  2.79405381944444 19.0343967013889  1.67643229166667 17.2724609375  C 0.558810763888889 15.5105251736111  0 13.5863715277778  0 11.5  C 0 9.41362847222222  0.558810763888889 7.48947482638889  1.67643229166667 5.7275390625  C 2.79405381944444 3.96560329861111  4.31043836805556 2.57052951388889  6.2255859375 1.54231770833333  C 8.14073350694444 0.514105902777776  10.2322048611111 0  12.5 0  C 14.7677951388889 0  16.8592664930556 0.514105902777776  18.7744140625 1.54231770833333  C 20.6895616319444 2.57052951388889  22.2059461805556 3.96560329861111  23.3235677083333 5.7275390625  Z " fill-rule="nonzero" fill="#70b603" stroke="none" transform="matrix(1 0 0 1 114 503 )" />
  </g>
</svg>