<?xml version="1.0" encoding="utf-8"?>
<svg version="1.1" xmlns:xlink="http://www.w3.org/1999/xlink" width="16px" height="12px" xmlns="http://www.w3.org/2000/svg">
  <g transform="matrix(1 0 0 1 -256 -234 )">
    <path d="M 15.7380844444444 5.93474730468751  L 15.64885 5.71069240234374  C 14.497405625 2.81797638671875  11.3407458333333 0.797682656250004  7.97253640625 0.797682656250004  C 4.60432697916666 0.797682656250004  1.44768496527778 2.81797638671875  0.296240590277776 5.71069240234374  L 0.207006145833333 5.93474730468751  L 0.296240590277776 6.15880220703124  C 1.27897498263889 8.62776568359374  4.23123098958333 11.12696578125  7.97253640625 11.12696578125  C 11.7138418229167 11.12696578125  14.6660978298611 8.62776568359374  15.64885 6.15880220703124  L 15.7380844444444 5.93474730468751  Z M 14.6637336631944 5.93502728515625  C 13.7223990972222 8.00591533203124  11.1834656770833 10.03048859375  7.97253640625 10.03048859375  C 4.76162491319445 10.03048859375  2.22267373263889 8.00591535156249  1.28133914930556 5.93502728515625  C 2.21362585069444 3.89117619140626  4.74923519097222 1.89415986328126  7.97253640625 1.89415986328126  C 11.1958376215278 1.89415986328126  13.7314469618056 3.89117619140626  14.6637336631944 5.93502728515625  Z " fill-rule="nonzero" fill="#999999" stroke="none" transform="matrix(1 0 0 1 256 234 )" />
  </g>
</svg>