<?xml version="1.0" encoding="utf-8"?>
<svg version="1.1" xmlns:xlink="http://www.w3.org/1999/xlink" width="14px" height="12px" xmlns="http://www.w3.org/2000/svg">
  <g transform="matrix(1 0 0 1 -163 -234 )">
    <path d="M 9.98046875 1.54296875  C 9.05598958333333 1.18098958333333  8.0625 1  7 1  C 5.9375 1  4.94401041666667 1.18098958333333  4.01953125 1.54296875  C 3.09505208333333 1.90494791666667  2.36067708333333 2.39322916666667  1.81640625 3.0078125  C 1.27213541666667 3.62239583333333  1 4.28645833333333  1 5  C 1 5.58333333333333  1.18619791666667 6.13932291666667  1.55859375 6.66796875  C 1.93098958333333 7.19661458333333  2.45572916666667 7.65364583333333  3.1328125 8.0390625  L 3.8125 8.4296875  L 3.6015625 9.1796875  C 3.4765625 9.65364583333333  3.29427083333333 10.1015625  3.0546875 10.5234375  C 3.84635416666667 10.1953125  4.5625 9.75  5.203125 9.1875  L 5.5390625 8.890625  L 5.984375 8.9375  C 6.34375 8.97916666666667  6.68229166666667 9  7 9  C 8.0625 9  9.05598958333333 8.81901041666666  9.98046875 8.45703125  C 10.9049479166667 8.09505208333333  11.6393229166667 7.60677083333333  12.18359375 6.9921875  C 12.7278645833333 6.37760416666667  13 5.71354166666667  13 5  C 13 4.28645833333333  12.7278645833333 3.62239583333333  12.18359375 3.0078125  C 11.6393229166667 2.39322916666667  10.9049479166667 1.90494791666667  9.98046875 1.54296875  Z M 13.0625 2.48828125  C 13.6875 3.25651041666667  14 4.09375  14 5  C 14 5.90625  13.6875 6.74348958333333  13.0625 7.51171875  C 12.4375 8.27994791666666  11.5885416666667 8.88671875  10.515625 9.33203125  C 9.44270833333333 9.77734375  8.27083333333333 10  7 10  C 6.63541666666667 10  6.2578125 9.97916666666667  5.8671875 9.9375  C 4.8359375 10.8489583333333  3.63802083333333 11.4791666666667  2.2734375 11.828125  C 2.01822916666667 11.9010416666667  1.72135416666667 11.9583333333333  1.3828125 12  L 1.34375 12  C 1.265625 12  1.1953125 11.97265625  1.1328125 11.91796875  C 1.0703125 11.86328125  1.02864583333333 11.7916666666667  1.0078125 11.703125  L 1.0078125 11.6953125  C 0.9921875 11.6744791666667  0.990885416666667 11.6432291666667  1.00390625 11.6015625  C 1.01692708333333 11.5598958333333  1.02213541666667 11.5338541666667  1.01953125 11.5234375  C 1.01692708333333 11.5130208333333  1.02864583333333 11.48828125  1.0546875 11.44921875  L 1.1015625 11.37890625  C 1.1015625 11.37890625  1.11979166666667 11.3567708333333  1.15625 11.3125  C 1.19270833333333 11.2682291666667  1.21354166666667 11.2447916666667  1.21875 11.2421875  C 1.25520833333333 11.2005208333333  1.3359375 11.1106770833333  1.4609375 10.97265625  C 1.5859375 10.8346354166667  1.67578125 10.7356770833333  1.73046875 10.67578125  C 1.78515625 10.6158854166667  1.86588541666667 10.5130208333333  1.97265625 10.3671875  C 2.07942708333333 10.2213541666667  2.1640625 10.0885416666667  2.2265625 9.96875  C 2.2890625 9.84895833333333  2.359375 9.6953125  2.4375 9.5078125  C 2.515625 9.3203125  2.58333333333333 9.12239583333333  2.640625 8.9140625  C 1.82291666666667 8.45052083333333  1.17838541666667 7.87760416666667  0.70703125 7.1953125  C 0.235677083333333 6.51302083333333  0 5.78125  0 5  C 0 4.09375  0.3125 3.25651041666667  0.9375 2.48828125  C 1.5625 1.72005208333333  2.41145833333333 1.11328125  3.484375 0.66796875  C 4.55729166666667 0.22265625  5.72916666666667 0  7 0  C 8.27083333333333 0  9.44270833333333 0.22265625  10.515625 0.66796875  C 11.5885416666667 1.11328125  12.4375 1.72005208333333  13.0625 2.48828125  Z " fill-rule="nonzero" fill="#999999" stroke="none" transform="matrix(1 0 0 1 163 234 )" />
  </g>
</svg>