<?xml version="1.0" encoding="utf-8"?>
<svg version="1.1" xmlns:xlink="http://www.w3.org/1999/xlink" width="58px" height="58px" xmlns="http://www.w3.org/2000/svg">
  <g transform="matrix(1 0 0 1 -11 -9 )">
    <path d="M 11 9  L 69 9  L 69 67  L 11 67  L 11 9  " fill-rule="nonzero" fill="#cccccc" stroke="none" />
    <path d="M 15 13  L 65 13  L 65 63  L 15 63  L 15 13  " fill-rule="nonzero" fill="#ffffff" stroke="none" />
    <path d="M 45.51 26.4  C 43.074 26.4  41.16 24.486  41.16 22.05  C 41.16 19.614  43.074 17.7  45.51 17.7  C 47.946 17.7  49.86 19.614  49.86 22.05  C 49.86 24.486  47.946 26.4  45.51 26.4  " fill-rule="nonzero" fill="#cccccc" stroke="none" />
    <path d="M 17 62  L 17 36.15  L 28.75 24.4  L 45.2 33.8  L 54.6 31.45  L 64 33.8  L 64 62  L 17 62  " fill-rule="nonzero" fill="#169bd5" stroke="none" />
  </g>
</svg>