<?xml version="1.0" encoding="utf-8"?>
<svg version="1.1" xmlns:xlink="http://www.w3.org/1999/xlink" width="5px" height="6px" xmlns="http://www.w3.org/2000/svg">
  <g transform="matrix(1 0 0 1 -262 -237 )">
    <path d="M 4.88284978841146 2.93502728515625  C 4.88284978841146 1.34116580078125  3.80225415039063 0.0444510351562428  2.47425288085937 0.0444510156249862  C 1.14626827799479 0.0444510156249862  0.0656726399739611 1.34116578125  0.0656726399739611 2.93502728515625  C 0.0656726399739611 4.52860880859376  1.14626827799479 5.82534357421875  2.47425288085937 5.82534355468749  C 3.80223748372396 5.82534353515624  4.88284978841146 4.5286087890625  4.88284978841146 2.93502728515625  Z M 3.96910213216146 2.93502728515625  C 3.96911879882812 3.92415650390626  3.29854389648437 4.72884638671874  2.47425288085937 4.72884636718751  C 1.64997853190104 4.72884636718751  0.979403629557293 3.924156484375  0.979403645833333 2.93502728515625  C 0.979403645833333 1.94589806640624  1.64997854817709 1.14092822265624  2.47425288085937 1.14092822265624  C 3.29852722981771 1.14092822265624  3.96910213216146 1.94589806640624  3.96910213216146 2.93502728515625  Z " fill-rule="nonzero" fill="#999999" stroke="none" transform="matrix(1 0 0 1 262 237 )" />
  </g>
</svg>