<?xml version="1.0" encoding="utf-8"?>
<svg version="1.1" xmlns:xlink="http://www.w3.org/1999/xlink" width="14px" height="12px" xmlns="http://www.w3.org/2000/svg">
  <g transform="matrix(1 0 0 1 -66 -234 )">
    <path d="M 11.53125 6.4375  C 12.5104166666667 5.45833333333333  13 4.53125  13 3.65625  C 13 3.234375  12.9440104166667 2.86197916666667  12.83203125 2.5390625  C 12.7200520833333 2.21614583333333  12.5768229166667 1.95963541666667  12.40234375 1.76953125  C 12.2278645833333 1.57942708333333  12.015625 1.42447916666667  11.765625 1.3046875  C 11.515625 1.18489583333333  11.2708333333333 1.10416666666667  11.03125 1.0625  C 10.7916666666667 1.02083333333333  10.5364583333333 1  10.265625 1  C 9.99479166666667 1  9.703125 1.06640625  9.390625 1.19921875  C 9.078125 1.33203125  8.79036458333333 1.49869791666667  8.52734375 1.69921875  C 8.26432291666667 1.89973958333333  8.0390625 2.08723958333333  7.8515625 2.26171875  C 7.6640625 2.43619791666667  7.5078125 2.59635416666667  7.3828125 2.7421875  C 7.2890625 2.85677083333333  7.16145833333333 2.9140625  7 2.9140625  C 6.83854166666667 2.9140625  6.7109375 2.85677083333333  6.6171875 2.7421875  C 6.4921875 2.59635416666667  6.3359375 2.43619791666667  6.1484375 2.26171875  C 5.9609375 2.08723958333333  5.73567708333333 1.89973958333333  5.47265625 1.69921875  C 5.20963541666667 1.49869791666667  4.921875 1.33203125  4.609375 1.19921875  C 4.296875 1.06640625  4.00520833333333 1  3.734375 1  C 3.46354166666667 1  3.20833333333333 1.02083333333333  2.96875 1.0625  C 2.72916666666667 1.10416666666667  2.484375 1.18489583333333  2.234375 1.3046875  C 1.984375 1.42447916666667  1.77213541666667 1.57942708333333  1.59765625 1.76953125  C 1.42317708333333 1.95963541666667  1.27994791666667 2.21614583333333  1.16796875 2.5390625  C 1.05598958333333 2.86197916666667  1 3.234375  1 3.65625  C 1 4.53125  1.48697916666667 5.45572916666667  2.4609375 6.4296875  L 7 10.8046875  L 11.53125 6.4375  Z M 13.0078125 0.96875  C 13.6692708333333 1.61458333333333  14 2.51041666666667  14 3.65625  C 14 4.80729166666667  13.4036458333333 5.97916666666667  12.2109375 7.171875  L 7.34375 11.859375  C 7.25 11.953125  7.13541666666667 12  7 12  C 6.86458333333333 12  6.75 11.953125  6.65625 11.859375  L 1.78125 7.15625  C 1.72916666666667 7.11458333333333  1.65755208333333 7.046875  1.56640625 6.953125  C 1.47526041666667 6.859375  1.33072916666667 6.68880208333333  1.1328125 6.44140625  C 0.934895833333333 6.19401041666667  0.7578125 5.94010416666667  0.6015625 5.6796875  C 0.4453125 5.41927083333333  0.305989583333333 5.10416666666667  0.18359375 4.734375  C 0.0611979166666667 4.36458333333333  0 4.00520833333333  0 3.65625  C 0 2.51041666666667  0.330729166666667 1.61458333333333  0.9921875 0.96875  C 1.65364583333333 0.322916666666667  2.56770833333333 0  3.734375 0  C 4.05729166666667 0  4.38671875 0.0559895833333326  4.72265625 0.16796875  C 5.05859375 0.279947916666666  5.37109375 0.430989583333333  5.66015625 0.62109375  C 5.94921875 0.811197916666666  6.19791666666667 0.989583333333332  6.40625 1.15625  C 6.61458333333333 1.32291666666667  6.8125 1.5  7 1.6875  C 7.1875 1.5  7.38541666666667 1.32291666666667  7.59375 1.15625  C 7.80208333333333 0.989583333333332  8.05078125 0.811197916666666  8.33984375 0.62109375  C 8.62890625 0.430989583333333  8.94140625 0.279947916666666  9.27734375 0.16796875  C 9.61328125 0.0559895833333326  9.94270833333333 0  10.265625 0  C 11.4322916666667 0  12.3463541666667 0.322916666666667  13.0078125 0.96875  Z " fill-rule="nonzero" fill="#999999" stroke="none" transform="matrix(1 0 0 1 66 234 )" />
  </g>
</svg>