<?xml version="1.0" encoding="utf-8"?>
<svg version="1.1" xmlns:xlink="http://www.w3.org/1999/xlink" width="15px" height="3px" xmlns="http://www.w3.org/2000/svg">
  <g transform="matrix(1 0 0 1 -351 -237 )">
    <path d="M 3.79261363636364 0.21875  C 3.99147727272727 0.364583333333332  4.09090909090909 0.541666666666666  4.09090909090909 0.75  L 4.09090909090909 2.25  C 4.09090909090909 2.45833333333333  3.99147727272727 2.63541666666667  3.79261363636364 2.78125  C 3.59375 2.92708333333333  3.35227272727273 3  3.06818181818182 3  L 1.02272727272727 3  C 0.738636363636364 3  0.497159090909091 2.92708333333333  0.298295454545455 2.78125  C 0.0994318181818182 2.63541666666667  0 2.45833333333333  0 2.25  L 0 0.75  C 0 0.541666666666666  0.0994318181818182 0.364583333333332  0.298295454545455 0.21875  C 0.497159090909091 0.0729166666666661  0.738636363636364 0  1.02272727272727 0  L 3.06818181818182 0  C 3.35227272727273 0  3.59375 0.0729166666666661  3.79261363636364 0.21875  Z M 9.24715909090909 0.21875  C 9.44602272727273 0.364583333333332  9.54545454545455 0.541666666666666  9.54545454545455 0.75  L 9.54545454545455 2.25  C 9.54545454545455 2.45833333333333  9.44602272727273 2.63541666666667  9.24715909090909 2.78125  C 9.04829545454546 2.92708333333333  8.80681818181818 3  8.52272727272727 3  L 6.47727272727273 3  C 6.19318181818182 3  5.95170454545455 2.92708333333333  5.75284090909091 2.78125  C 5.55397727272727 2.63541666666667  5.45454545454546 2.45833333333333  5.45454545454546 2.25  L 5.45454545454546 0.75  C 5.45454545454546 0.541666666666666  5.55397727272727 0.364583333333332  5.75284090909091 0.21875  C 5.95170454545455 0.0729166666666661  6.19318181818182 0  6.47727272727273 0  L 8.52272727272727 0  C 8.80681818181818 0  9.04829545454546 0.0729166666666661  9.24715909090909 0.21875  Z M 14.7017045454545 0.21875  C 14.9005681818182 0.364583333333332  15 0.541666666666666  15 0.75  L 15 2.25  C 15 2.45833333333333  14.9005681818182 2.63541666666667  14.7017045454545 2.78125  C 14.5028409090909 2.92708333333333  14.2613636363636 3  13.9772727272727 3  L 11.9318181818182 3  C 11.6477272727273 3  11.40625 2.92708333333333  11.2073863636364 2.78125  C 11.0085227272727 2.63541666666667  10.9090909090909 2.45833333333333  10.9090909090909 2.25  L 10.9090909090909 0.75  C 10.9090909090909 0.541666666666666  11.0085227272727 0.364583333333332  11.2073863636364 0.21875  C 11.40625 0.0729166666666661  11.6477272727273 0  11.9318181818182 0  L 13.9772727272727 0  C 14.2613636363636 0  14.5028409090909 0.0729166666666661  14.7017045454545 0.21875  Z " fill-rule="nonzero" fill="#999999" stroke="none" transform="matrix(1 0 0 1 351 237 )" />
  </g>
</svg>