<?xml version="1.0" encoding="utf-8"?>
<svg version="1.1" xmlns:xlink="http://www.w3.org/1999/xlink" width="37px" height="36px" xmlns="http://www.w3.org/2000/svg">
  <g transform="matrix(1 0 0 1 -6 -7 )">
    <path d="M 11.3147321428571 1.42633928571429  C 13.5997023809524 0.475446428571428  15.9947916666667 0  18.5 0  C 21.0052083333333 0  23.4002976190476 0.475446428571428  25.6852678571429 1.42633928571429  C 27.9702380952381 2.37723214285714  29.9386160714286 3.65625  31.5904017857143 5.26339285714286  C 33.2421875 6.87053571428572  34.5567336309524 8.78571428571428  35.5340401785714 11.0089285714286  C 36.5113467261905 13.2321428571429  37 15.5625  37 18  C 37 20.4241071428571  36.5147879464286 22.7477678571429  35.5443638392857 24.9709821428571  C 34.5739397321429 27.1941964285714  33.2628348214286 29.109375  31.6110491071429 30.7165178571429  C 29.9592633928571 32.3236607142857  27.9908854166667 33.6060267857143  25.7059151785714 34.5636160714286  C 23.4209449404762 35.5212053571429  21.0189732142857 36  18.5 36  C 15.9810267857143 36  13.5790550595238 35.5245535714286  11.2940848214286 34.5736607142857  C 9.00911458333333 33.6227678571429  7.04417782738095 32.3404017857143  5.39927455357143 30.7265625  C 3.7543712797619 29.1127232142857  2.44326636904762 27.1975446428571  1.46595982142857 24.9810267857143  C 0.488653273809524 22.7645089285714  0 20.4375  0 18  C 0 15.5625  0.488653273809524 13.2321428571429  1.46595982142857 11.0089285714286  C 2.44326636904762 8.78571428571428  3.7578125 6.87053571428572  5.40959821428571 5.26339285714286  C 7.06138392857143 3.65625  9.02976190476191 2.37723214285714  11.3147321428571 1.42633928571429  Z M 24.9626116071429 20.5714285714286  C 28.2661830357143 20.5714285714286  30.3722098214286 22.7611607142857  31.2806919642857 27.140625  C 33.3316592261905 24.3950892857143  34.3571428571429 21.3482142857143  34.3571428571429 18  C 34.3571428571429 15.9107142857143  33.9373139880952 13.9151785714286  33.09765625 12.0133928571429  C 32.2579985119048 10.1116071428571  31.1292782738095 8.47098214285714  29.7114955357143 7.09151785714286  C 28.2937127976191 5.71205357142857  26.6075148809524 4.61383928571428  24.6529017857143 3.796875  C 22.6982886904762 2.97991071428571  20.6473214285714 2.57142857142857  18.5 2.57142857142857  C 16.3526785714286 2.57142857142857  14.3017113095238 2.97991071428571  12.3470982142857 3.796875  C 10.3924851190476 4.61383928571428  8.70628720238095 5.71205357142857  7.28850446428571 7.09151785714286  C 5.87072172619048 8.47098214285714  4.74200148809524 10.1116071428571  3.90234375 12.0133928571429  C 3.06268601190476 13.9151785714286  2.64285714285714 15.9107142857143  2.64285714285714 18  C 2.64285714285714 21.3482142857143  3.66834077380952 24.3950892857143  5.71930803571429 27.140625  C 6.62779017857143 22.7611607142857  8.73381696428572 20.5714285714286  12.0373883928571 20.5714285714286  C 13.840587797619 22.2857142857143  15.9947916666667 23.1428571428571  18.5 23.1428571428571  C 21.0052083333333 23.1428571428571  23.159412202381 22.2857142857143  24.9626116071429 20.5714285714286  Z M 24.1057477678571 19.5970982142857  C 25.654296875 18.0904017857143  26.4285714285714 16.2723214285714  26.4285714285714 14.1428571428571  C 26.4285714285714 12.0133928571429  25.654296875 10.1953125  24.1057477678571 8.68861607142857  C 22.5571986607143 7.18191964285714  20.6886160714286 6.42857142857143  18.5 6.42857142857143  C 16.3113839285714 6.42857142857143  14.4428013392857 7.18191964285714  12.8942522321429 8.68861607142857  C 11.345703125 10.1953125  10.5714285714286 12.0133928571429  10.5714285714286 14.1428571428571  C 10.5714285714286 16.2723214285714  11.345703125 18.0904017857143  12.8942522321429 19.5970982142857  C 14.4428013392857 21.1037946428571  16.3113839285714 21.8571428571429  18.5 21.8571428571429  C 20.6886160714286 21.8571428571429  22.5571986607143 21.1037946428571  24.1057477678571 19.5970982142857  Z " fill-rule="nonzero" fill="#aaaaaa" stroke="none" transform="matrix(1 0 0 1 6 7 )" />
  </g>
</svg>