<?xml version="1.0" encoding="utf-8"?>
<svg version="1.1" xmlns:xlink="http://www.w3.org/1999/xlink" width="87px" height="78px" xmlns="http://www.w3.org/2000/svg">
  <g transform="matrix(1 0 0 1 -6 -139 )">
    <path d="M 6 139  L 93 139  L 93 217  L 6 217  L 6 139  " fill-rule="nonzero" fill="#cccccc" stroke="none" />
    <path d="M 11 144  L 88 144  L 88 212  L 11 212  L 11 144  " fill-rule="nonzero" fill="#ffffff" stroke="none" />
    <path d="M 57.09 162.4  C 53.814 162.4  51.24 159.826  51.24 156.55  C 51.24 153.274  53.814 150.7  57.09 150.7  C 60.366 150.7  62.94 153.274  62.94 156.55  C 62.94 159.826  60.366 162.4  57.09 162.4  " fill-rule="nonzero" fill="#cccccc" stroke="none" />
    <path d="M 13 210  L 13 174.8  L 31.25 158.8  L 56.8 175.572413793103  L 71.4 168.4  L 86 175.572413793103  L 86 210  L 13 210  " fill-rule="nonzero" fill="#169bd5" stroke="none" />
  </g>
</svg>