<?xml version="1.0" encoding="utf-8"?>
<svg version="1.1" xmlns:xlink="http://www.w3.org/1999/xlink" width="17px" height="16px" xmlns="http://www.w3.org/2000/svg">
  <g transform="matrix(1 0 0 1 -98 -107 )">
    <path d="M 15.8600260416667 3.984375  C 16.6200086805556 5.21006944444444  17 6.54861111111111  17 8  C 17 9.45138888888889  16.6200086805556 10.7899305555556  15.8600260416667 12.015625  C 15.1000434027778 13.2413194444444  14.0689019097222 14.2118055555556  12.7666015625 14.9270833333333  C 11.4643012152778 15.6423611111111  10.0421006944444 16  8.5 16  C 6.95789930555556 16  5.53569878472222 15.6423611111111  4.2333984375 14.9270833333333  C 2.93109809027778 14.2118055555556  1.89995659722222 13.2413194444444  1.13997395833333 12.015625  C 0.379991319444444 10.7899305555556  0 9.45138888888889  0 8  C 0 6.54861111111111  0.379991319444444 5.21006944444444  1.13997395833333 3.984375  C 1.89995659722222 2.75868055555556  2.93109809027778 1.78819444444444  4.2333984375 1.07291666666667  C 5.53569878472222 0.357638888888888  6.95789930555556 0  8.5 0  C 10.0421006944444 0  11.4643012152778 0.357638888888888  12.7666015625 1.07291666666667  C 14.0689019097222 1.78819444444444  15.1000434027778 2.75868055555556  15.8600260416667 3.984375  Z " fill-rule="nonzero" fill="#000000" stroke="none" fill-opacity="0.368627450980392" transform="matrix(1 0 0 1 98 107 )" />
  </g>
</svg>