<?xml version="1.0" encoding="utf-8"?>
<svg version="1.1" xmlns:xlink="http://www.w3.org/1999/xlink" width="24px" height="19px" xmlns="http://www.w3.org/2000/svg">
  <g transform="matrix(1 0 0 1 -320 -23 )">
    <path d="M 23.703125 15.48203125  C 23.9010416666667 15.6700520833333  24 15.8927083333333  24 16.15  L 24 18.05  C 24 18.3072916666667  23.9010416666667 18.5299479166667  23.703125 18.71796875  C 23.5052083333333 18.9059895833333  23.2708333333333 19  23 19  L 1 19  C 0.729166666666667 19  0.494791666666667 18.9059895833333  0.296875 18.71796875  C 0.0989583333333333 18.5299479166667  0 18.3072916666667  0 18.05  L 0 16.15  C 0 15.8927083333333  0.0989583333333333 15.6700520833333  0.296875 15.48203125  C 0.494791666666667 15.2940104166667  0.729166666666667 15.2  1 15  L 23 15  C 23.2708333333333 15.2  23.5052083333333 15.2940104166667  23.703125 15.48203125  Z M 23.703125 7.88203125  C 23.9010416666667 8.07005208333333  24 8.29270833333333  24 8.55  L 24 10.45  C 24 10.7072916666667  23.9010416666667 10.9299479166667  23.703125 11.11796875  C 23.5052083333333 11.3059895833333  23.2708333333333 11.4  23 11.4  L 1 11.4  C 0.729166666666667 11.4  0.494791666666667 11.3059895833333  0.296875 11.11796875  C 0.0989583333333333 10.9299479166667  0 10.7072916666667  0 10.45  L 0 8.55  C 0 8.29270833333333  0.0989583333333333 8.07005208333333  0.296875 7.88203125  C 0.494791666666667 7.69401041666667  0.729166666666667 7.6  1 7.6  L 23 7.6  C 23.2708333333333 7.6  23.5052083333333 7.69401041666667  23.703125 7.88203125  Z M 23.703125 0.282031250000001  C 23.9010416666667 0.470052083333332  24 0.692708333333332  24 0.950000000000001  L 24 2.85  C 24 3.10729166666667  23.9010416666667 3.32994791666667  23.703125 3.51796875  C 23.5052083333333 3.70598958333333  23.2708333333333 3.8  23 4  L 1 4  C 0.729166666666667 3.8  0.494791666666667 3.70598958333333  0.296875 3.51796875  C 0.0989583333333333 3.32994791666667  0 3.10729166666667  0 2.85  L 0 0.950000000000001  C 0 0.692708333333332  0.0989583333333333 0.470052083333332  0.296875 0.282031250000001  C 0.494791666666667 0.0940104166666655  0.729166666666667 0  1 0  L 23 0  C 23.2708333333333 0  23.5052083333333 0.0940104166666655  23.703125 0.282031250000001  Z " fill-rule="nonzero" fill="#ffffff" stroke="none" transform="matrix(1 0 0 1 320 23 )" />
  </g>
</svg>