<?xml version="1.0" encoding="utf-8"?>
<svg version="1.1" xmlns:xlink="http://www.w3.org/1999/xlink" width="23px" height="22px" xmlns="http://www.w3.org/2000/svg">
  <g transform="matrix(1 0 0 1 -1191 -259 )">
    <path d="M 16.576171875 13.2916666666667  C 16.576171875 13.4157986111111  16.5262586805556 13.5256076388889  16.4264322916667 13.62109375  L 14.240234375 15.7122395833333  C 14.1404079861111 15.8077256944444  14.0256076388889 15.85546875  13.8958333333333 15.85546875  C 13.7660590277778 15.85546875  13.6512586805556 15.8077256944444  13.5514322916667 15.7122395833333  L 11.5 13.75  L 9.44856770833333 15.7122395833333  C 9.34874131944444 15.8077256944444  9.23394097222222 15.85546875  9.10416666666667 15.85546875  C 8.97439236111111 15.85546875  8.85959201388889 15.8077256944444  8.759765625 15.7122395833333  L 6.57356770833333 13.62109375  C 6.47374131944444 13.5256076388889  6.423828125 13.4157986111111  6.423828125 13.2916666666667  C 6.423828125 13.1675347222222  6.47374131944444 13.0577256944444  6.57356770833333 12.9622395833333  L 8.625 11  L 6.57356770833333 9.03776041666667  C 6.47374131944444 8.94227430555555  6.423828125 8.83246527777778  6.423828125 8.70833333333333  C 6.423828125 8.58420138888889  6.47374131944444 8.47439236111111  6.57356770833333 8.37890625  L 8.759765625 6.28776041666667  C 8.85959201388889 6.19227430555555  8.97439236111111 6.14453125  9.10416666666667 6.14453125  C 9.23394097222222 6.14453125  9.34874131944444 6.19227430555555  9.44856770833333 6.28776041666667  L 11.5 8.25  L 13.5514322916667 6.28776041666667  C 13.6512586805556 6.19227430555555  13.7660590277778 6.14453125  13.8958333333333 6.14453125  C 14.0256076388889 6.14453125  14.1404079861111 6.19227430555555  14.240234375 6.28776041666667  L 16.4264322916667 8.37890625  C 16.5262586805556 8.47439236111111  16.576171875 8.58420138888889  16.576171875 8.70833333333333  C 16.576171875 8.83246527777778  16.5262586805556 8.94227430555555  16.4264322916667 9.03776041666667  L 14.375 11  L 16.4264322916667 12.9622395833333  C 16.5262586805556 13.0577256944444  16.576171875 13.1675347222222  16.576171875 13.2916666666667  Z M 18.552734375 14.91015625  C 19.2814670138889 13.7165798611111  19.6458333333333 12.4131944444444  19.6458333333333 11  C 19.6458333333333 9.58680555555555  19.2814670138889 8.28342013888889  18.552734375 7.08984375  C 17.8240017361111 5.89626736111111  16.8357204861111 4.95095486111111  15.587890625 4.25390625  C 14.3400607638889 3.55685763888889  12.9774305555556 3.20833333333333  11.5 3.20833333333333  C 10.0225694444444 3.20833333333333  8.65993923611111 3.55685763888889  7.412109375 4.25390625  C 6.16427951388889 4.95095486111111  5.17599826388889 5.89626736111111  4.447265625 7.08984375  C 3.71853298611111 8.28342013888889  3.35416666666667 9.58680555555555  3.35416666666667 11  C 3.35416666666667 12.4131944444444  3.71853298611111 13.7165798611111  4.447265625 14.91015625  C 5.17599826388889 16.1037326388889  6.16427951388889 17.0490451388889  7.412109375 17.74609375  C 8.65993923611111 18.4431423611111  10.0225694444444 18.7916666666667  11.5 18.7916666666667  C 12.9774305555556 18.7916666666667  14.3400607638889 18.4431423611111  15.587890625 17.74609375  C 16.8357204861111 17.0490451388889  17.8240017361111 16.1037326388889  18.552734375 14.91015625  Z M 21.4576822916667 5.478515625  C 22.4858940972222 7.16384548611111  23 9.00434027777778  23 11  C 23 12.9956597222222  22.4858940972222 14.8361545138889  21.4576822916667 16.521484375  C 20.4294704861111 18.2068142361111  19.0343967013889 19.5412326388889  17.2724609375 20.5247395833333  C 15.5105251736111 21.5082465277778  13.5863715277778 22  11.5 22  C 9.41362847222222 22  7.48947482638889 21.5082465277778  5.7275390625 20.5247395833333  C 3.96560329861111 19.5412326388889  2.57052951388889 18.2068142361111  1.54231770833333 16.521484375  C 0.514105902777778 14.8361545138889  0 12.9956597222222  0 11  C 0 9.00434027777778  0.514105902777778 7.16384548611111  1.54231770833333 5.478515625  C 2.57052951388889 3.79318576388889  3.96560329861111 2.45876736111111  5.7275390625 1.47526041666667  C 7.48947482638889 0.49175347222222  9.41362847222222 0  11.5 0  C 13.5863715277778 0  15.5105251736111 0.49175347222222  17.2724609375 1.47526041666667  C 19.0343967013889 2.45876736111111  20.4294704861111 3.79318576388889  21.4576822916667 5.478515625  Z " fill-rule="nonzero" fill="#000000" stroke="none" transform="matrix(1 0 0 1 1191 259 )" />
  </g>
</svg>