<?xml version="1.0" encoding="utf-8"?>
<svg version="1.1" xmlns:xlink="http://www.w3.org/1999/xlink" width="29px" height="29px" xmlns="http://www.w3.org/2000/svg">
  <g transform="matrix(1 0 0 1 -1161 -365 )">
    <path d="M 23.5419034090909 13.3671875  C 23.6654829545455 13.4907670454545  23.7272727272727 13.6486742424242  23.7272727272727 13.8409090909091  L 23.7272727272727 15.1590909090909  C 23.7272727272727 15.3513257575758  23.6654829545455 15.5092329545455  23.5419034090909 15.6328125  C 23.4183238636364 15.7563920454545  23.2604166666667 15.8181818181818  23.0681818181818 15.8181818181818  L 15.8181818181818 15.8181818181818  L 15.8181818181818 23.0681818181818  C 15.8181818181818 23.2604166666667  15.7563920454545 23.4183238636364  15.6328125 23.5419034090909  C 15.5092329545455 23.6654829545455  15.3513257575758 23.7272727272727  15.1590909090909 23.7272727272727  L 13.8409090909091 23.7272727272727  C 13.6486742424242 23.7272727272727  13.4907670454545 23.6654829545455  13.3671875 23.5419034090909  C 13.2436079545455 23.4183238636364  13.1818181818182 23.2604166666667  13.1818181818182 23.0681818181818  L 13.1818181818182 15.8181818181818  L 5.93181818181818 15.8181818181818  C 5.73958333333333 15.8181818181818  5.58167613636364 15.7563920454545  5.45809659090909 15.6328125  C 5.33451704545455 15.5092329545455  5.27272727272727 15.3513257575758  5.27272727272727 15.1590909090909  L 5.27272727272727 13.8409090909091  C 5.27272727272727 13.6486742424242  5.33451704545455 13.4907670454545  5.45809659090909 13.3671875  C 5.58167613636364 13.2436079545455  5.73958333333333 13.1818181818182  5.93181818181818 13.1818181818182  L 13.1818181818182 13.1818181818182  L 13.1818181818182 5.93181818181818  C 13.1818181818182 5.73958333333333  13.2436079545455 5.58167613636364  13.3671875 5.45809659090909  C 13.4907670454545 5.33451704545455  13.6486742424242 5.27272727272727  13.8409090909091 5.27272727272727  L 15.1590909090909 5.27272727272727  C 15.3513257575758 5.27272727272727  15.5092329545455 5.33451704545455  15.6328125 5.45809659090909  C 15.7563920454545 5.58167613636364  15.8181818181818 5.73958333333333  15.8181818181818 5.93181818181818  L 15.8181818181818 13.1818181818182  L 23.0681818181818 13.1818181818182  C 23.2604166666667 13.1818181818182  23.4183238636364 13.2436079545455  23.5419034090909 13.3671875  Z M 25.3955965909091 25.3955965909091  C 26.0409564393939 24.7502367424242  26.3636363636364 23.9744318181818  26 23.0681818181818  L 26 5.93181818181818  C 26.3636363636364 5.02556818181818  26.0409564393939 4.24976325757576  25.3955965909091 3.60440340909091  C 24.7502367424242 2.95904356060606  23.9744318181818 2.63636363636364  23.0681818181818 3  L 5.93181818181818 3  C 5.02556818181818 2.63636363636364  4.24976325757576 2.95904356060606  3.60440340909091 3.60440340909091  C 2.95904356060606 4.24976325757576  2.63636363636364 5.02556818181818  3 5.93181818181818  L 3 23.0681818181818  C 2.63636363636364 23.9744318181818  2.95904356060606 24.7502367424242  3.60440340909091 25.3955965909091  C 4.24976325757576 26.0409564393939  5.02556818181818 26.3636363636364  5.93181818181818 26  L 23.0681818181818 26  C 23.9744318181818 26.3636363636364  24.7502367424242 26.0409564393939  25.3955965909091 25.3955965909091  Z M 27.2595880681818 1.74041193181818  C 28.4198626893939 2.9006865530303  29 4.29782196969697  29 5.93181818181818  L 29 23.0681818181818  C 29 24.702178030303  28.4198626893939 26.0993134469697  27.2595880681818 27.2595880681818  C 26.0993134469697 28.4198626893939  24.702178030303 29  23.0681818181818 29  L 5.93181818181818 29  C 4.29782196969697 29  2.9006865530303 28.4198626893939  1.74041193181818 27.2595880681818  C 0.580137310606061 26.0993134469697  0 24.702178030303  0 23.0681818181818  L 0 5.93181818181818  C 0 4.29782196969697  0.580137310606061 2.9006865530303  1.74041193181818 1.74041193181818  C 2.9006865530303 0.580137310606058  4.29782196969697 0  5.93181818181818 0  L 23.0681818181818 0  C 24.702178030303 0  26.0993134469697 0.580137310606058  27.2595880681818 1.74041193181818  Z " fill-rule="nonzero" fill="#aaaaaa" stroke="none" transform="matrix(1 0 0 1 1161 365 )" />
  </g>
</svg>