<?xml version="1.0" encoding="utf-8"?>
<svg version="1.1" xmlns:xlink="http://www.w3.org/1999/xlink" width="18px" height="18px" viewBox="991 506  18 18" xmlns="http://www.w3.org/2000/svg">
  <path d="M 1000 506  C 1005.04 506  1009 509.96  1009 515  C 1009 520.04  1005.04 524  1000 524  C 994.96 524  991 520.04  991 515  C 991 509.96  994.96 506  1000 506  Z " fill-rule="nonzero" fill="#ffffff" stroke="none" />
  <path d="M 1000 506.5  C 1004.76 506.5  1008.5 510.24  1008.5 515  C 1008.5 519.76  1004.76 523.5  1000 523.5  C 995.24 523.5  991.5 519.76  991.5 515  C 991.5 510.24  995.24 506.5  1000 506.5  Z " stroke-width="1" stroke="#aaaaaa" fill="none" />
  <path d="M 1000 519.5  C 997.48 519.5  995.5 517.52  995.5 515  C 995.5 512.48  997.48 510.5  1000 510.5  C 1002.52 510.5  1004.5 512.48  1004.5 515  C 1004.5 517.52  1002.52 519.5  1000 519.5  " fill-rule="nonzero" fill="#aaaaaa" stroke="none" />
</svg>