<?xml version="1.0" encoding="utf-8"?>
<svg version="1.1" xmlns:xlink="http://www.w3.org/1999/xlink" width="18px" height="18px" xmlns="http://www.w3.org/2000/svg">
  <g transform="matrix(1 0 0 1 -10 -9 )">
    <path d="M 9.00001785714284 0.137107142857133  C 4.09667857142858 0.137107142857133  0.121785714285732 4.11201785714287  0.121785714285732 9.01535714285713  C 0.121785714285732 13.9186964285714  4.09667857142858 17.8935714285714  9 17.8935714285714  C 13.9033214285714 17.8935714285714  17.8782142857143 13.9186964285714  17.8782142857143 9.01535714285713  C 17.8782142857143 4.11201785714287  13.903375 0.137107142857133  9.00003571428572 0.137107142857133  Z M 10.151 9.01535714285713  L 12.8073571428572 11.6716964285714  C 13.1251785714285 11.9896071428572  13.1251785714285 12.5048571428572  12.8073571428572 12.8226964285714  C 12.4895357142857 13.1405  11.9741785714286 13.1405  11.6563571428571 12.8226964285714  L 9.00001785714284 10.1663392857143  L 6.34358928571429 12.8226785714286  C 6.02575000000001 13.1404821428572  5.51051785714285 13.1404821428572  5.19269642857141 12.8226785714286  C 4.87476785714284 12.5048392857143  4.87476785714284 11.9895892857143  5.19269642857141 11.6716785714286  L 7.84901785714288 9.01535714285713  L 5.19267857142857 6.35899999999998  C 4.87476785714284 6.04117857142858  4.87476785714284 5.52583928571431  5.19267857142857 5.20801785714286  C 5.51051785714285 4.89019642857144  6.02575000000001 4.89019642857144  6.34357142857141 5.20801785714286  L 9.00001785714284 7.86435714285717  L 11.6563571428571 5.20801785714286  C 11.9741785714286 4.89019642857144  12.4895357142857 4.89019642857144  12.8073571428572 5.20801785714286  C 13.1251785714285 5.52583928571431  13.1251785714285 6.04117857142858  12.8073571428572 6.35899999999998  L 10.151 9.01535714285713  Z " fill-rule="nonzero" fill="#ffffff" stroke="none" fill-opacity="0" transform="matrix(1 0 0 1 10 9 )" />
  </g>
</svg>