<?xml version="1.0" encoding="utf-8"?>
<svg version="1.1" xmlns:xlink="http://www.w3.org/1999/xlink" width="72px" height="67px" xmlns="http://www.w3.org/2000/svg">
  <g transform="matrix(1 0 0 1 -137 -135 )">
    <path d="M 72 5.49895230328877  C 71.9999275676832 2.3423160312958  69.1693672218853 0  66.0043593268307 0  L 5.75386167056574 0  C 2.58892620782783 0  0 2.3423160312958  0 5.49895230328877  L 0 60.6352940128735  C 0 63.7918581597153  2.58885377551105 66.375  5.75386167056574 66  L 66.4845119510919 66  C 69.6494474138297 66.375  72 63.7918581597153  72 60.6352940128735  L 72 5.49895230328877  Z M 14.3691490583748 16.9424352357561  C 14.3691490583748 12.0921541917473  18.3210074071809 8.1604455353466  23.1953500065382 8.1604455353466  C 28.0696201735787 8.1604455353466  32.0215509547016 12.0922263874019  32.0215509547016 16.9424352357561  C 32.0215509547016 21.7926440841103  28.0696926058955 25.7244249361656  23.1953500065382 25.7244249361656  C 18.3210074071809 25.7244249361656  14.3691490583748 21.7926440841103  14.3691490583748 16.9424352357561  Z M 64.9791351806178 59.4061300671223  C 64.9157379988142 59.3906185064022  8.13180181491867 59.4146433730795  8.10441418593219 59.4146433730795  C 7.44261936616626 59.4146433730795  6.77568036502865 59.187597557156  6.2339417917063 58.7231168718985  C 5.02693065615901 57.6919956888897  4.88636990413399 55.8807518098184  5.92188241309019 54.6770555862842  L 19.1525618407007 34.8187377623729  C 20.1350380337172 33.6749233926542  21.8357506725815 33.4836623682143  23.0513114412504 34.3800134409438  L 34.7252442921639 43.013308717203  L 55.6420611013814 19.3530020355153  C 56.6330144243989 18.1152525881523  61.8879579071553 12.2851467133384  64.9637024948951 18.8972511021718  C 64.9671078050373 18.8870062990634  64.9705856183001 27.6399208211408  64.9739909284424 36.5771702380463  C 64.9773962385845 45.8987453966374  64.9791351806178 59.4061300671223  64.9791351806178 59.4061300671223  Z " fill-rule="nonzero" fill="#fafbfc" stroke="none" transform="matrix(1 0 0 1 137 135 )" />
  </g>
</svg>