<?xml version="1.0" encoding="utf-8"?>
<svg version="1.1" xmlns:xlink="http://www.w3.org/1999/xlink" width="35px" height="35px" xmlns="http://www.w3.org/2000/svg">
  <g transform="matrix(1 0 0 1 -43 -43 )">
    <path d="M 35 2.89963586614098  C 34.999964789846 1.23511956452511  33.6239979550832 0  32.0854524505427 0  L 2.79701608985835 0  C 1.25850579547188 0  0 1.23511956452511  0 2.89963586614098  L 0 31.9734130388033  C 0 33.6378913083245  1.25847058531787 35  2.79701608985835 35  L 32.3188599762252 35  C 33.8573702706117 35  35 33.6378913083245  35 31.9734130388033  L 35 2.89963586614098  Z M 6.98500301448775 8.9338641544477  C 6.98500301448775 6.3762771632566  8.9060452673796 4.30305979264979  11.2755173642894 4.30305979264979  C 13.6449542510452 4.30305979264979  15.566031714091 6.37631523252831  15.566031714091 8.9338641544477  C 15.566031714091 11.491413076367  13.6449894611992 13.5646685162455  11.2755173642894 13.5646685162455  C 8.90604526737961 13.5646685162455  6.98500301448775 11.491413076367  6.98500301448775 8.9338641544477  Z M 31.5870796016892 31.3252663254129  C 31.5562615272014 31.3170869713609  3.95295921558547 31.3297554509647  3.93964578482814 31.3297554509647  C 3.61793996966416 31.3297554509647  3.29373351077782 31.2100326101765  3.03038837096833 30.9651087083457  C 2.44364684674396 30.4213913237083  2.37531870339848 29.4663098055539  2.87869283969661 28.8315923995472  L 9.3102731170073 18.3601630385394  C 9.78786571083478 17.7570217513055  10.6146010213938 17.6561684804144  11.2054986172745 18.1288206468253  L 16.8803270864685 22.6812174026683  L 27.0482241465049 10.2049728247538  C 27.5299375674161 9.5522989165398  30.084423982645 6.47804346466053  31.5795776016851 9.96465218193616  C 31.581232960782 9.95925002587151  31.5829235644514 14.5747228435394  31.5845789235483 19.287396735693  C 31.5862342826453 24.2027282694133  31.5870796016892 31.3252663254129  31.5870796016892 31.3252663254129  Z " fill-rule="nonzero" fill="#fafafa" stroke="none" transform="matrix(1 0 0 1 43 43 )" />
  </g>
</svg>