<?xml version="1.0" encoding="utf-8"?>
<svg version="1.1" xmlns:xlink="http://www.w3.org/1999/xlink" width="21px" height="20px" xmlns="http://www.w3.org/2000/svg">
  <g transform="matrix(1 0 0 1 -1130 -73 )">
    <path d="M 15.44921875 13.5416666666667  C 15.6223958333333 13.3767361111111  15.708984375 13.1770833333333  15.708984375 12.9427083333333  C 15.708984375 12.7170138888889  15.6223958333333 12.5217013888889  15.44921875 12.3567708333333  L 12.974609375 10  L 15.44921875 7.64322916666667  C 15.6223958333333 7.47829861111111  15.708984375 7.28298611111111  15.708984375 7.05729166666667  C 15.708984375 6.82291666666667  15.6223958333333 6.62326388888889  15.44921875 6.45833333333333  L 14.21875 5.28645833333333  C 14.0455729166667 5.12152777777778  13.8359375 5.0390625  13.58984375 5.0390625  C 13.3528645833333 5.0390625  13.1477864583333 5.12152777777778  12.974609375 5.28645833333333  L 10.5 7.64322916666667  L 8.025390625 5.28645833333333  C 7.85221354166667 5.12152777777778  7.64713541666667 5.0390625  7.41015625 5.0390625  C 7.1640625 5.0390625  6.95442708333333 5.12152777777778  6.78125 5.28645833333333  L 5.55078125 6.45833333333333  C 5.37760416666667 6.62326388888889  5.291015625 6.82291666666667  5.291015625 7.05729166666667  C 5.291015625 7.28298611111111  5.37760416666667 7.47829861111111  5.55078125 7.64322916666667  L 8.025390625 10  L 5.55078125 12.3567708333333  C 5.37760416666667 12.5217013888889  5.291015625 12.7170138888889  5.291015625 12.9427083333333  C 5.291015625 13.1770833333333  5.37760416666667 13.3767361111111  5.55078125 13.5416666666667  L 6.78125 14.7135416666667  C 6.95442708333333 14.8784722222222  7.1640625 14.9609375  7.41015625 14.9609375  C 7.64713541666667 14.9609375  7.85221354166667 14.8784722222222  8.025390625 14.7135416666667  L 10.5 12.3567708333333  L 12.974609375 14.7135416666667  C 13.1477864583333 14.8784722222222  13.3528645833333 14.9609375  13.58984375 14.9609375  C 13.8359375 14.9609375  14.0455729166667 14.8784722222222  14.21875 14.7135416666667  L 15.44921875 13.5416666666667  Z M 19.591796875 4.98046875  C 20.5305989583333 6.51258680555555  21 8.18576388888889  21 10  C 21 11.8142361111111  20.5305989583333 13.4874131944444  19.591796875 15.01953125  C 18.6529947916667 16.5516493055556  17.3792317708333 17.7647569444444  15.7705078125 18.6588541666667  C 14.1617838541667 19.5529513888889  12.4049479166667 20  10.5 20  C 8.59505208333333 20  6.83821614583333 19.5529513888889  5.2294921875 18.6588541666667  C 3.62076822916667 17.7647569444444  2.34700520833333 16.5516493055556  1.408203125 15.01953125  C 0.469401041666667 13.4874131944444  0 11.8142361111111  0 10  C 0 8.18576388888889  0.469401041666667 6.51258680555555  1.408203125 4.98046875  C 2.34700520833333 3.44835069444444  3.62076822916667 2.23524305555555  5.2294921875 1.34114583333333  C 6.83821614583333 0.447048611111109  8.59505208333333 0  10.5 0  C 12.4049479166667 0  14.1617838541667 0.447048611111109  15.7705078125 1.34114583333333  C 17.3792317708333 2.23524305555555  18.6529947916667 3.44835069444444  19.591796875 4.98046875  Z " fill-rule="nonzero" fill="#685e5e" stroke="none" transform="matrix(1 0 0 1 1130 73 )" />
  </g>
</svg>