<?xml version="1.0" encoding="utf-8"?>
<svg version="1.1" xmlns:xlink="http://www.w3.org/1999/xlink" width="30px" height="29px" xmlns="http://www.w3.org/2000/svg">
  <g transform="matrix(1 0 0 1 -1082 -122 )">
    <path d="M 20.9598214285714 25.5125558035714  C 22.8013392857143 24.5685453869048  24.3136160714286 23.2873883928571  25.4966517857143 21.6690848214286  C 25.2511160714286 19.996837797619  24.7628348214286 18.6077938988095  24.0318080357143 17.501953125  C 23.30078125 16.3961123511905  22.2712053571429 15.7568824404762  20.9430803571429 15.5842633928571  C 20.1953125 16.3826264880952  19.3052455357143 17.0056733630952  18.2728794642857 17.4534040178571  C 17.2405133928571 17.901134672619  16.1495535714286 18.125  15 18.125  C 13.8504464285714 18.125  12.7594866071429 17.901134672619  11.7271205357143 17.4534040178571  C 10.6947544642857 17.0056733630952  9.8046875 16.3826264880952  9.05691964285714 15.5842633928571  C 7.72879464285714 15.7568824404762  6.69921875 16.3961123511905  5.96819196428571 17.501953125  C 5.23716517857143 18.6077938988095  4.74888392857143 19.996837797619  4.50334821428571 21.6690848214286  C 5.68638392857143 23.2873883928571  7.19866071428571 24.5685453869048  9.04017857142857 25.5125558035714  C 10.8816964285714 26.4565662202381  12.8683035714286 26.9285714285714  15 26.9285714285714  C 17.1316964285714 26.9285714285714  19.1183035714286 26.4565662202381  20.9598214285714 25.5125558035714  Z M 19.5452008928571 14.7508370535714  C 20.80078125 13.537109375  21.4285714285714 12.0725446428571  21.4285714285714 10.3571428571429  C 21.4285714285714 8.64174107142857  20.80078125 7.17717633928571  19.5452008928571 5.96344866071429  C 18.2896205357143 4.74972098214286  16.7745535714286 4.14285714285714  15 4.14285714285714  C 13.2254464285714 4.14285714285714  11.7103794642857 4.74972098214286  10.4547991071429 5.96344866071429  C 9.19921875 7.17717633928571  8.57142857142857 8.64174107142857  8.57142857142857 10.3571428571429  C 8.57142857142857 12.0725446428571  9.19921875 13.537109375  10.4547991071429 14.7508370535714  C 11.7103794642857 15.9645647321429  13.2254464285714 16.5714285714286  15 16.5714285714286  C 16.7745535714286 16.5714285714286  18.2896205357143 15.9645647321429  19.5452008928571 14.7508370535714  Z M 28.8113839285714 8.86830357142857  C 29.6037946428571 10.6592261904762  30 12.5364583333333  30 14.5  C 30 16.4635416666667  29.6037946428571 18.3380766369048  28.8113839285714 20.1236049107143  C 28.0189732142857 21.9091331845238  26.9559151785714 23.451915922619  25.6222098214286 24.751953125  C 24.2885044642857 26.0519903273809  22.6953125 27.0850074404762  20.8426339285714 27.8510044642857  C 18.9899553571429 28.6170014880952  17.0424107142857 29  15 29  C 12.96875 29  11.0267857142857 28.6170014880952  9.17410714285714 27.8510044642857  C 7.32142857142857 27.0850074404762  5.72544642857143 26.0546875  4.38616071428571 24.7600446428571  C 3.046875 23.4654017857143  1.98102678571429 21.922619047619  1.18861607142857 20.1316964285714  C 0.396205357142857 18.3407738095238  0 16.4635416666667  0 14.5  C 0 12.5364583333333  0.396205357142857 10.6592261904762  1.18861607142857 8.86830357142857  C 1.98102678571429 7.07738095238095  3.046875 5.53459821428571  4.38616071428571 4.23995535714286  C 5.72544642857143 2.9453125  7.32142857142857 1.91499255952381  9.17410714285714 1.14899553571429  C 11.0267857142857 0.382998511904762  12.96875 0  15 0  C 17.03125 0  18.9732142857143 0.382998511904762  20.8258928571429 1.14899553571429  C 22.6785714285714 1.91499255952381  24.2745535714286 2.9453125  25.6138392857143 4.23995535714286  C 26.953125 5.53459821428571  28.0189732142857 7.07738095238095  28.8113839285714 8.86830357142857  Z " fill-rule="nonzero" fill="#d7d7d7" stroke="none" transform="matrix(1 0 0 1 1082 122 )" />
  </g>
</svg>