<?xml version="1.0" encoding="utf-8"?>
<svg version="1.1" xmlns:xlink="http://www.w3.org/1999/xlink" width="10px" height="16px" xmlns="http://www.w3.org/2000/svg">
  <g transform="matrix(1 0 0 1 -18 -15 )">
    <path d="M 0.205479459751473 7.5882353021008  L 8.83561643219883 0.176470595154015  C 9.10958904520078 -0.058823531718005  9.52054792724658 -0.058823531718005  9.79452054024847 0.176470595154015  C 10.0684931532505 0.411764722026049  10.0684931532505 0.764705880164968  9.79452054024847 1.00000000703699  L 1.64383562182599 8.00000000804229  L 9.79452054024847 15.0000000090476  C 10.0684931532505 15.2352941359196  10.0684931532505 15.5882352940585  9.79452054024847 15.8235294209305  C 9.65753423374758 15.9411764843666  9.45205479272465 16  9.31506848622371 16  C 9.17808217972276 16  8.97260273869983 15.9411764843666  8.83561643219883 15.8235294209305  L 0.205479459751473 8.41176471398376  C -0.068493153250472 8.17647058711171  -0.068493153250472 7.82352942897282  0.205479459751473 7.5882353021008  Z " fill-rule="nonzero" fill="#666666" stroke="none" transform="matrix(1 0 0 1 18 15 )" />
  </g>
</svg>