<?xml version="1.0" encoding="utf-8"?>
<svg version="1.1" xmlns:xlink="http://www.w3.org/1999/xlink" width="29px" height="27px" xmlns="http://www.w3.org/2000/svg">
  <g transform="matrix(1 0 0 1 -15 -8 )">
    <path d="M 15 8  L 44 8  L 44 35  L 15 35  L 15 8  " fill-rule="nonzero" fill="#cccccc" stroke="none" />
    <path d="M 17 10  L 42 10  L 42 33  L 17 33  L 17 10  " fill-rule="nonzero" fill="#ffffff" stroke="none" />
    <path d="M 32.105 16.1  C 30.971 16.1  30.08 15.209  30.08 14.075  C 30.08 12.941  30.971 12.05  32.105 12.05  C 33.239 12.05  34.13 12.941  34.13 14.075  C 34.13 15.209  33.239 16.1  32.105 16.1  " fill-rule="nonzero" fill="#cccccc" stroke="none" />
    <path d="M 18 33  L 18 20.9  L 24 15.4  L 32.4 20.7103448275862  L 37.2 18.7  L 42 20.7103448275862  L 42 33  L 18 33  " fill-rule="nonzero" fill="#169bd5" stroke="none" />
  </g>
</svg>