<?xml version="1.0" encoding="utf-8"?>
<svg version="1.1" xmlns:xlink="http://www.w3.org/1999/xlink" width="28px" height="27px" xmlns="http://www.w3.org/2000/svg">
  <g transform="matrix(1 0 0 1 -164 -8 )">
    <path d="M 20.5989583333333 15.7939453125  C 20.7447916666667 16.0693359375  20.7690972222222 16.353515625  20.671875 16.646484375  C 20.2222222222222 18.064453125  19.3836805555556 19.20703125  18.15625 20.07421875  C 16.9288194444444 20.94140625  15.5434027777778 21.375  14 21.375  C 12.4565972222222 21.375  11.0711805555556 20.94140625  9.84375 20.07421875  C 8.61631944444444 19.20703125  7.77777777777778 18.064453125  7.328125 16.646484375  C 7.23090277777778 16.353515625  7.25520833333333 16.0693359375  7.40104166666667 15.7939453125  C 7.546875 15.5185546875  7.77777777777778 15.333984375  8.09375 15.240234375  C 8.39756944444444 15.146484375  8.69227430555556 15.169921875  8.97786458333333 15.310546875  C 9.26345486111111 15.451171875  9.45486111111111 15.673828125  9.55208333333333 15.978515625  C 9.85590277777778 16.916015625  10.41796875 17.6748046875  11.23828125 18.2548828125  C 12.05859375 18.8349609375  12.9791666666667 19.125  14 19.125  C 15.0208333333333 19.125  15.94140625 18.8349609375  16.76171875 18.2548828125  C 17.58203125 17.6748046875  18.1440972222222 16.916015625  18.4479166666667 15.978515625  C 18.5451388888889 15.673828125  18.7395833333333 15.451171875  19.03125 15.310546875  C 19.3229166666667 15.169921875  19.6206597222222 15.146484375  19.9244791666667 15.240234375  C 20.2282986111111 15.333984375  20.453125 15.5185546875  20.5989583333333 15.7939453125  Z M 10.9830729166667 7.4091796875  C 11.4388020833333 7.8486328125  11.6666666666667 8.37890625  11.6666666666667 9  C 11.6666666666667 9.62109375  11.4388020833333 10.1513671875  10.9830729166667 10.5908203125  C 10.52734375 11.0302734375  9.97743055555556 11.25  9.33333333333333 11.25  C 8.68923611111111 11.25  8.13932291666667 11.0302734375  7.68359375 10.5908203125  C 7.22786458333333 10.1513671875  7 9.62109375  7 9  C 7 8.37890625  7.22786458333333 7.8486328125  7.68359375 7.4091796875  C 8.13932291666667 6.9697265625  8.68923611111111 6.75  9.33333333333333 6.75  C 9.97743055555556 6.75  10.52734375 6.9697265625  10.9830729166667 7.4091796875  Z M 20.31640625 7.4091796875  C 20.7721354166667 7.8486328125  21 8.37890625  21 9  C 21 9.62109375  20.7721354166667 10.1513671875  20.31640625 10.5908203125  C 19.8606770833333 11.0302734375  19.3107638888889 11.25  18.6666666666667 11.25  C 18.0225694444444 11.25  17.47265625 11.0302734375  17.0169270833333 10.5908203125  C 16.5611979166667 10.1513671875  16.3333333333333 9.62109375  16.3333333333333 9  C 16.3333333333333 8.37890625  16.5611979166667 7.8486328125  17.0169270833333 7.4091796875  C 17.47265625 6.9697265625  18.0225694444444 6.75  18.6666666666667 6.75  C 19.3107638888889 6.75  19.8606770833333 6.9697265625  20.31640625 7.4091796875  Z M 24.7369791666667 17.8681640625  C 25.3567708333333 16.4794921875  25.6666666666667 15.0234375  25.6666666666667 13.5  C 25.6666666666667 11.9765625  25.3567708333333 10.5205078125  24.7369791666667 9.1318359375  C 24.1171875 7.7431640625  23.2877604166667 6.5478515625  22.2486979166667 5.5458984375  C 21.2096354166667 4.5439453125  19.9700520833333 3.744140625  18.5299479166667 3.146484375  C 17.08984375 2.548828125  15.5798611111111 2.25  14 2.25  C 12.4201388888889 2.25  10.91015625 2.548828125  9.47005208333333 3.146484375  C 8.02994791666667 3.744140625  6.79036458333333 4.5439453125  5.75130208333333 5.5458984375  C 4.71223958333333 6.5478515625  3.8828125 7.7431640625  3.26302083333333 9.1318359375  C 2.64322916666667 10.5205078125  2.33333333333333 11.9765625  2.33333333333333 13.5  C 2.33333333333333 15.0234375  2.64322916666667 16.4794921875  3.26302083333333 17.8681640625  C 3.8828125 19.2568359375  4.71223958333333 20.4521484375  5.75130208333333 21.4541015625  C 6.79036458333333 22.4560546875  8.02994791666667 23.255859375  9.47005208333333 23.853515625  C 10.91015625 24.451171875  12.4201388888889 24.75  14 24.75  C 15.5798611111111 24.75  17.08984375 24.451171875  18.5299479166667 23.853515625  C 19.9700520833333 23.255859375  21.2096354166667 22.4560546875  22.2486979166667 21.4541015625  C 23.2877604166667 20.4521484375  24.1171875 19.2568359375  24.7369791666667 17.8681640625  Z M 26.1223958333333 6.7236328125  C 27.3741319444444 8.7919921875  28 11.05078125  28 13.5  C 28 15.94921875  27.3741319444444 18.2080078125  26.1223958333333 20.2763671875  C 24.8706597222222 22.3447265625  23.1723090277778 23.982421875  21.02734375 25.189453125  C 18.8823784722222 26.396484375  16.5399305555556 27  14 27  C 11.4600694444444 27  9.11762152777778 26.396484375  6.97265625 25.189453125  C 4.82769097222222 23.982421875  3.12934027777778 22.3447265625  1.87760416666667 20.2763671875  C 0.625868055555555 18.2080078125  0 15.94921875  0 13.5  C 0 11.05078125  0.625868055555555 8.7919921875  1.87760416666667 6.7236328125  C 3.12934027777778 4.6552734375  4.82769097222222 3.017578125  6.97265625 1.810546875  C 9.11762152777778 0.603515624999998  11.4600694444444 0  14 0  C 16.5399305555556 0  18.8823784722222 0.603515624999998  21.02734375 1.810546875  C 23.1723090277778 3.017578125  24.8706597222222 4.6552734375  26.1223958333333 6.7236328125  Z " fill-rule="nonzero" fill="#000000" stroke="none" transform="matrix(1 0 0 1 164 8 )" />
  </g>
</svg>