<?xml version="1.0" encoding="utf-8"?>
<svg version="1.1" xmlns:xlink="http://www.w3.org/1999/xlink" width="25px" height="27px" xmlns="http://www.w3.org/2000/svg">
  <g transform="matrix(1 0 0 1 -297 -8 )">
    <path d="M 24.2606026785714 12.200625  C 24.7535342261905 13.708125  25 15.58125  25 17.82  C 25 19.6875  24.409412202381 22.224375  23.2282366071429 25.430625  C 23.2003348214286 25.509375  23.1515066964286 25.644375  23.0817522321429 25.835625  C 23.0119977678571 26.026875  22.94921875 26.195625  22.8934151785714 26.341875  C 22.8376116071429 26.488125  22.7771577380952 26.611875  22.7120535714286 26.713125  C 22.6004464285714 26.904375  22.4702380952381 27  22.3214285714286 27  C 22.1819196428571 27  22.0726376488095 26.94375  21.9935825892857 26.83125  C 21.9145275297619 26.71875  21.875 26.578125  21.875 26.409375  C 21.875 26.308125  21.8866257440476 26.1590625  21.9098772321429 25.9621875  C 21.9331287202381 25.7653125  21.9447544642857 25.633125  21.9447544642857 25.565625  C 21.9912574404762 24.800625  22.0145089285714 24.10875  22.0145089285714 23.49  C 22.0145089285714 22.35375  21.9331287202381 21.335625  21.7703683035714 20.435625  C 21.6076078869048 19.535625  21.382068452381 18.7565625  21.09375 18.0984375  C 20.8054315476191 17.4403125  20.4334077380952 16.8721875  19.9776785714286 16.3940625  C 19.5219494047619 15.9159375  19.0313430059524 15.525  18.505859375 15.22125  C 17.9803757440476 14.9175  17.3618861607143 14.6784375  16.650390625 14.5040625  C 15.9388950892857 14.3296875  15.2227492559524 14.20875  14.501953125 14.14125  C 13.7811569940476 14.07375  12.9650297619048 14.04  12.0535714285714 14.04  L 8.92857142857143 14.04  L 8.92857142857143 18.36  C 8.92857142857143 18.6525  8.84021577380953 18.905625  8.66350446428571 19.119375  C 8.48679315476191 19.333125  8.27752976190476 19.44  8.03571428571429 19.44  C 7.79389880952381 19.44  7.58463541666667 19.333125  7.40792410714286 19.119375  L 0.265066964285714 10.479375  C 0.0883556547619048 10.265625  0 10.0125  0 9.72  C 0 9.4275  0.0883556547619048 9.174375  0.265066964285714 8.960625  L 7.40792410714286 0.320624999999999  C 7.58463541666667 0.106874999999999  7.79389880952381 0  8.03571428571429 0  C 8.27752976190476 0  8.48679315476191 0.106874999999999  8.66350446428571 0.320624999999999  C 8.84021577380953 0.534374999999997  8.92857142857143 0.787499999999997  8.92857142857143 1.08  L 8.92857142857143 5.4  L 12.0535714285714 5.4  C 18.6848958333333 5.4  22.75390625 7.666875  24.2606026785714 12.200625  Z " fill-rule="nonzero" fill="#000000" stroke="none" transform="matrix(1 0 0 1 297 8 )" />
  </g>
</svg>