<?xml version="1.0" encoding="utf-8"?>
<svg version="1.1" xmlns:xlink="http://www.w3.org/1999/xlink" width="29px" height="27px" xmlns="http://www.w3.org/2000/svg">
  <g transform="matrix(1 0 0 1 -333 -8 )">
    <path d="M 28.6925223214286 8.960625  C 28.8975074404762 9.174375  29 9.4275  29 9.72  C 29 10.0125  28.8975074404762 10.265625  28.6925223214286 10.479375  L 20.4068080357143 19.119375  C 20.2018229166667 19.333125  19.9590773809524 19.44  19.6785714285714 19.44  C 19.3980654761905 19.44  19.1553199404762 19.333125  18.9503348214286 19.119375  C 18.745349702381 18.905625  18.6428571428571 18.6525  18.6428571428571 18.36  L 18.6428571428571 14.04  L 15.0178571428571 14.04  C 13.9605654761905 14.04  13.0138578869048 14.07375  12.177734375 14.14125  C 11.3416108630952 14.20875  10.5108816964286 14.3296875  9.685546875 14.5040625  C 8.86021205357143 14.6784375  8.14276413690476 14.9175  7.533203125 15.22125  C 6.92364211309524 15.525  6.35453869047619 15.9159375  5.82589285714286 16.3940625  C 5.29724702380952 16.8721875  4.86569940476191 17.4403125  4.53125 18.0984375  C 4.1968005952381 18.7565625  3.93517485119048 19.535625  3.74637276785714 20.435625  C 3.55757068452381 21.335625  3.46316964285714 22.35375  3.46316964285714 23.49  C 3.46316964285714 24.10875  3.49014136904762 24.800625  3.54408482142857 25.565625  C 3.54408482142857 25.633125  3.55757068452381 25.7653125  3.58454241071429 25.9621875  C 3.61151413690476 26.1590625  3.625 26.308125  3.625 26.409375  C 3.625 26.578125  3.57914806547619 26.71875  3.48744419642857 26.83125  C 3.39574032738095 26.94375  3.26897321428571 27  3.10714285714286 27  C 2.93452380952381 27  2.78348214285714 26.904375  2.65401785714286 26.713125  C 2.57849702380952 26.611875  2.50837053571429 26.488125  2.44363839285714 26.341875  C 2.37890625 26.195625  2.30608258928571 26.026875  2.22516741071429 25.835625  C 2.14425223214286 25.644375  2.08761160714286 25.509375  2.05524553571429 25.430625  C 0.685081845238095 22.224375  0 19.6875  0 17.82  C 0 15.58125  0.285900297619048 13.708125  0.857700892857143 12.200625  C 2.60546875 7.666875  7.32552083333333 5.4  15.0178571428571 5.4  L 18.6428571428571 5.4  L 18.6428571428571 1.08  C 18.6428571428571 0.787499999999997  18.745349702381 0.534374999999997  18.9503348214286 0.320624999999999  C 19.1553199404762 0.106874999999999  19.3980654761905 0  19.6785714285714 0  C 19.9590773809524 0  20.2018229166667 0.106874999999999  20.4068080357143 0.320624999999999  L 28.6925223214286 8.960625  Z " fill-rule="nonzero" fill="#000000" stroke="none" transform="matrix(1 0 0 1 333 8 )" />
  </g>
</svg>