<?xml version="1.0" encoding="utf-8"?>
<svg version="1.1" xmlns:xlink="http://www.w3.org/1999/xlink" width="9px" height="12px" xmlns="http://www.w3.org/2000/svg">
  <g transform="matrix(1 0 0 1 -116 -142 )">
    <path d="M 8.84536082474227 5.72344689378758  C 8.94845360824742 5.80360721442886  9 5.89579158316633  9 6  C 9 6.10420841683367  8.94845360824742 6.19639278557114  8.84536082474227 6.27655310621242  L 1.63917525773196 11.8797595190381  C 1.5360824742268 11.9599198396794  1.41752577319588 12  1.28350515463918 12  C 1.14948453608247 12  1.03092783505155 11.9599198396794  0.927835051546392 11.8797595190381  L 0.154639175257732 11.2785571142285  C 0.0515463917525774 11.1983967935872  0 11.1062124248497  0 11.002004008016  C 0 10.8977955911824  0.0515463917525774 10.8056112224449  0.154639175257732 10.7254509018036  L 6.2319587628866 6  L 0.154639175257732 1.27454909819639  C 0.0515463917525774 1.19438877755511  0 1.10220440881763  0 0.997995991983968  C 0 0.893787575150299  0.0515463917525774 0.801603206412824  0.154639175257732 0.721442885771542  L 0.927835051546392 0.120240480961924  C 1.03092783505155 0.0400801603206409  1.14948453608247 0  1.28350515463918 0  C 1.41752577319588 0  1.5360824742268 0.0400801603206409  1.63917525773196 0.120240480961924  L 8.84536082474227 5.72344689378758  Z " fill-rule="nonzero" fill="#7f7f7f" stroke="none" transform="matrix(1 0 0 1 116 142 )" />
  </g>
</svg>