<?xml version="1.0" encoding="utf-8"?>
<svg version="1.1" xmlns:xlink="http://www.w3.org/1999/xlink" width="4px" height="8px" xmlns="http://www.w3.org/2000/svg">
  <g transform="matrix(1 0 0 1 -69 -85 )">
    <path d="M 3.93127147766323 3.81563126252505  C 3.97709049255441 3.8690714762859  4 3.93052772211089  4 4  C 4 4.06947227788911  3.97709049255441 4.13092852371409  3.93127147766323 4.18436873747495  L 0.728522336769759 7.91983967935872  C 0.68270332187858 7.97327989311957  0.630011454753723 8  0.570446735395189 8  C 0.510882016036655 8  0.458190148911798 7.97327989311957  0.412371134020619 7.91983967935872  L 0.0687285223367698 7.51903807615231  C 0.0229095074455899 7.46559786239145  0 7.40414161656647  0 7.33466933867735  C 0 7.26519706078824  0.0229095074455899 7.20374081496326  0.0687285223367698 7.1503006012024  L 2.76975945017182 4  L 0.0687285223367698 0.849699398797595  C 0.0229095074455899 0.79625918503674  0 0.734802939211757  0 0.665330661322646  C 0 0.595858383433533  0.0229095074455899 0.534402137608549  0.0687285223367698 0.480961923847695  L 0.412371134020619 0.0801603206412826  C 0.458190148911798 0.0267201068804273  0.510882016036655 0  0.570446735395189 0  C 0.630011454753723 0  0.68270332187858 0.0267201068804273  0.728522336769759 0.0801603206412826  L 3.93127147766323 3.81563126252505  Z " fill-rule="nonzero" fill="#7f7f7f" stroke="none" transform="matrix(1 0 0 1 69 85 )" />
  </g>
</svg>