<?xml version="1.0" encoding="utf-8"?>
<svg version="1.1" xmlns:xlink="http://www.w3.org/1999/xlink" width="12px" height="11px" xmlns="http://www.w3.org/2000/svg">
  <g transform="matrix(1 0 0 1 -212 -216 )">
    <path d="M 9.88392857142857 5.90104166666667  C 10.7232142857143 5.00347222222222  11.1428571428571 4.15364583333333  11.1428571428571 3.3515625  C 11.1428571428571 2.96484375  11.0948660714286 2.62348090277778  10.9988839285714 2.32747395833333  C 10.9029017857143 2.03146701388889  10.7801339285714 1.79633246527778  10.6305803571429 1.6220703125  C 10.4810267857143 1.44780815972222  10.2991071428571 1.30577256944444  10.0848214285714 1.19596354166667  C 9.87053571428572 1.08615451388889  9.66071428571429 1.01215277777778  9.45535714285714 0.973958333333333  C 9.25 0.935763888888887  9.03125 0.916666666666667  8.79910714285714 0.916666666666667  C 8.56696428571429 0.916666666666667  8.31696428571428 0.9775390625  8.04910714285714 1.09928385416667  C 7.78125 1.22102864583333  7.53459821428571 1.37380642361111  7.30915178571428 1.5576171875  C 7.08370535714286 1.74142795138889  6.890625 1.91330295138889  6.72991071428572 2.0732421875  C 6.56919642857143 2.23318142361111  6.43526785714286 2.37999131944444  6.328125 2.513671875  C 6.24776785714286 2.61870659722222  6.13839285714286 2.67122395833333  6 2.67122395833333  C 5.86160714285714 2.67122395833333  5.75223214285714 2.61870659722222  5.671875 2.513671875  C 5.56473214285714 2.37999131944444  5.43080357142857 2.23318142361111  5.27008928571429 2.0732421875  C 5.109375 1.91330295138889  4.91629464285714 1.74142795138889  4.69084821428571 1.5576171875  C 4.46540178571429 1.37380642361111  4.21875 1.22102864583333  3.95089285714286 1.09928385416667  C 3.68303571428571 0.9775390625  3.43303571428572 0.916666666666667  3.20089285714286 0.916666666666667  C 2.96875 0.916666666666667  2.75 0.935763888888887  2.54464285714286 0.973958333333333  C 2.33928571428571 1.01215277777778  2.12946428571429 1.08615451388889  1.91517857142857 1.19596354166667  C 1.70089285714286 1.30577256944444  1.51897321428571 1.44780815972222  1.36941964285714 1.6220703125  C 1.21986607142857 1.79633246527778  1.09709821428571 2.03146701388889  1.00111607142857 2.32747395833333  C 0.905133928571429 2.62348090277778  0.857142857142857 2.96484375  0.857142857142857 3.3515625  C 0.857142857142857 4.15364583333333  1.27455357142857 5.00108506944444  2.109375 5.89388020833333  L 6 9.904296875  L 9.88392857142857 5.90104166666667  Z M 11.1495535714286 0.888020833333333  C 11.7165178571429 1.48003472222222  12 2.30121527777778  12 3.3515625  C 12 4.40668402777778  11.4888392857143 5.48090277777778  10.4665178571429 6.57421875  L 6.29464285714286 10.87109375  C 6.21428571428572 10.95703125  6.11607142857143 11  6 11  C 5.88392857142857 11  5.78571428571429 10.95703125  5.70535714285714 10.87109375  L 1.52678571428571 6.55989583333333  C 1.48214285714286 6.52170138888889  1.42075892857143 6.45963541666667  1.34263392857143 6.37369791666667  C 1.26450892857143 6.28776041666667  1.140625 6.13140190972222  0.970982142857143 5.90462239583333  C 0.801339285714286 5.67784288194444  0.649553571428571 5.44509548611111  0.515625 5.20638020833333  C 0.381696428571429 4.96766493055556  0.262276785714286 4.67881944444444  0.157366071428571 4.33984375  C 0.0524553571428571 4.00086805555555  0 3.67144097222222  0 3.3515625  C 0 2.30121527777778  0.283482142857143 1.48003472222222  0.850446428571429 0.888020833333333  C 1.41741071428571 0.296006944444444  2.20089285714286 0  3.20089285714286 0  C 3.47767857142857 0  3.76004464285714 0.0513237847222215  4.04799107142857 0.153971354166667  C 4.3359375 0.25661892361111  4.60379464285714 0.395073784722222  4.8515625 0.5693359375  C 5.09933035714286 0.743598090277777  5.3125 0.907118055555554  5.49107142857143 1.05989583333333  C 5.66964285714286 1.21267361111111  5.83928571428571 1.375  6 1.546875  C 6.16071428571428 1.375  6.33035714285714 1.21267361111111  6.50892857142857 1.05989583333333  C 6.6875 0.907118055555554  6.90066964285714 0.743598090277777  7.1484375 0.5693359375  C 7.39620535714286 0.395073784722222  7.6640625 0.25661892361111  7.95200892857143 0.153971354166667  C 8.23995535714286 0.0513237847222215  8.52232142857143 0  8.79910714285714 0  C 9.79910714285714 0  10.5825892857143 0.296006944444444  11.1495535714286 0.888020833333333  Z " fill-rule="nonzero" fill="#999999" stroke="none" transform="matrix(1 0 0 1 212 216 )" />
  </g>
</svg>