<?xml version="1.0" encoding="utf-8"?>
<svg version="1.1" xmlns:xlink="http://www.w3.org/1999/xlink" width="13px" height="11px" xmlns="http://www.w3.org/2000/svg">
  <g transform="matrix(1 0 0 1 -283 -216 )">
    <path d="M 8.87220982142857 6.166015625  C 8.95926339285714 6.33311631944444  9.09709821428571 6.41666666666667  9.28571428571429 6.41666666666667  L 11.4983258928571 6.41666666666667  C 11.4741443452381 6.4453125  11.449962797619 6.47037760416667  11.42578125 6.49186197916667  C 11.401599702381 6.51334635416667  11.3798363095238 6.53125  11.3604910714286 6.54557291666667  L 11.3387276785714 6.57421875  L 6.81919642857143 10.87109375  C 6.73214285714286 10.95703125  6.62574404761905 11  6.5 11  C 6.37425595238095 11  6.26785714285714 10.95703125  6.18080357142857 10.87109375  L 1.65401785714286 6.55989583333333  C 1.62983630952381 6.55034722222222  1.57905505952381 6.50260416666667  1.50167410714286 6.41666666666667  L 4.17857142857143 6.41666666666667  C 4.28497023809524 6.41666666666667  4.38048735119048 6.38444010416667  4.46512276785714 6.31998697916667  C 4.54975818452381 6.25553385416667  4.60416666666667 6.17317708333333  4.62834821428571 6.07291666666667  L 5.13616071428571 4.060546875  L 6.51450892857143 8.83723958333333  C 6.54352678571429 8.93272569444444  6.5991443452381 9.01150173611111  6.68136160714286 9.07356770833333  C 6.76357886904762 9.13563368055556  6.85788690476191 9.16666666666667  6.96428571428571 9.16666666666667  C 7.06584821428572 9.16666666666667  7.1577380952381 9.13563368055556  7.23995535714286 9.07356770833333  C 7.32217261904762 9.01150173611111  7.37779017857143 8.93272569444444  7.40680803571429 8.83723958333333  L 8.46595982142857 5.36393229166667  L 8.87220982142857 6.166015625  Z M 12.0786830357143 0.888020833333333  C 12.6928943452381 1.48003472222222  13 2.30121527777778  13 3.3515625  C 13 4.04383680555555  12.7509300595238 4.75998263888889  12.2527901785714 5.5  L 9.57589285714286 5.5  L 8.77064732142857 3.91731770833333  C 8.73195684523809 3.83615451388889  8.67029389880952 3.77170138888889  8.58565848214286 3.72395833333333  C 8.50102306547619 3.67621527777778  8.41276041666667 3.65711805555555  8.32087053571429 3.66666666666667  C 8.10323660714286 3.69053819444444  7.96781994047619 3.80034722222222  7.91462053571429 3.99609375  L 6.97879464285714 7.07552083333333  L 5.55691964285714 2.16276041666667  C 5.52790178571429 2.06727430555555  5.47107514880952 1.98849826388889  5.38643973214286 1.92643229166667  C 5.30180431547619 1.86436631944444  5.20628720238095 1.83333333333333  5.09988839285714 1.83333333333333  C 4.99348958333333 1.83333333333333  4.89918154761905 1.86555989583333  4.81696428571429 1.93001302083333  C 4.73474702380952 1.99446614583333  4.68154761904762 2.07682291666667  4.65736607142857 2.17708333333333  L 3.81584821428571 5.5  L 0.747209821428571 5.5  C 0.24906994047619 4.75998263888889  0 4.04383680555555  0 3.3515625  C 0 2.30121527777778  0.307105654761905 1.48003472222222  0.921316964285714 0.888020833333333  C 1.53552827380952 0.296006944444444  2.38430059523809 0  3.46763392857143 0  C 3.76748511904762 0  4.07338169642857 0.0513237847222215  4.38532366071429 0.153971354166667  C 4.697265625 0.25661892361111  4.98744419642857 0.395073784722222  5.255859375 0.5693359375  C 5.52427455357143 0.743598090277777  5.75520833333333 0.907118055555554  5.94866071428571 1.05989583333333  C 6.1421130952381 1.21267361111111  6.32589285714286 1.375  6.5 1.546875  C 6.67410714285714 1.375  6.85788690476191 1.21267361111111  7.05133928571429 1.05989583333333  C 7.24479166666667 0.907118055555554  7.47572544642857 0.743598090277777  7.744140625 0.5693359375  C 8.01255580357143 0.395073784722222  8.302734375 0.25661892361111  8.61467633928571 0.153971354166667  C 8.92661830357143 0.0513237847222215  9.23251488095238 0  9.53236607142857 0  C 10.6156994047619 0  11.4644717261905 0.296006944444444  12.0786830357143 0.888020833333333  Z " fill-rule="nonzero" fill="#000000" stroke="none" transform="matrix(1 0 0 1 283 216 )" />
  </g>
</svg>