<?xml version="1.0" encoding="utf-8"?>
<svg version="1.1" xmlns:xlink="http://www.w3.org/1999/xlink" width="11px" height="11px" xmlns="http://www.w3.org/2000/svg">
  <g transform="matrix(1 0 0 1 -212 -84 )">
    <path d="M 9.06026785714286 5.90104166666667  C 9.8296130952381 5.00347222222222  10.2142857142857 4.15364583333333  10.2142857142857 3.3515625  C 10.2142857142857 2.96484375  10.1702938988095 2.62348090277778  10.0823102678571 2.32747395833333  C 9.99432663690476 2.03146701388889  9.88178943452381 1.79633246527778  9.74469866071428 1.6220703125  C 9.60760788690476 1.44780815972222  9.44084821428572 1.30577256944444  9.24441964285714 1.19596354166667  C 9.04799107142857 1.08615451388889  8.85565476190476 1.01215277777778  8.66741071428572 0.973958333333333  C 8.47916666666667 0.935763888888887  8.27864583333333 0.916666666666667  8.06584821428572 0.916666666666667  C 7.8530505952381 0.916666666666667  7.62388392857143 0.9775390625  7.37834821428571 1.09928385416667  C 7.1328125 1.22102864583333  6.90671502976191 1.37380642361111  6.70005580357143 1.5576171875  C 6.49339657738095 1.74142795138889  6.31640625 1.91330295138889  6.16908482142857 2.0732421875  C 6.02176339285714 2.23318142361111  5.89899553571429 2.37999131944444  5.80078125 2.513671875  C 5.72712053571429 2.61870659722222  5.62686011904762 2.67122395833333  5.5 2.67122395833333  C 5.37313988095238 2.67122395833333  5.27287946428571 2.61870659722222  5.19921875 2.513671875  C 5.10100446428571 2.37999131944444  4.97823660714286 2.23318142361111  4.83091517857143 2.0732421875  C 4.68359375 1.91330295138889  4.50660342261905 1.74142795138889  4.29994419642857 1.5576171875  C 4.0932849702381 1.37380642361111  3.8671875 1.22102864583333  3.62165178571429 1.09928385416667  C 3.37611607142857 0.9775390625  3.14694940476191 0.916666666666667  2.93415178571429 0.916666666666667  C 2.72135416666667 0.916666666666667  2.52083333333333 0.935763888888887  2.33258928571429 0.973958333333333  C 2.14434523809524 1.01215277777778  1.95200892857143 1.08615451388889  1.75558035714286 1.19596354166667  C 1.55915178571429 1.30577256944444  1.39239211309524 1.44780815972222  1.25530133928571 1.6220703125  C 1.11821056547619 1.79633246527778  1.00567336309524 2.03146701388889  0.917689732142857 2.32747395833333  C 0.829706101190476 2.62348090277778  0.785714285714286 2.96484375  0.785714285714286 3.3515625  C 0.785714285714286 4.15364583333333  1.16834077380952 5.00108506944444  1.93359375 5.89388020833333  L 5.5 9.904296875  L 9.06026785714286 5.90104166666667  Z M 10.2204241071429 0.888020833333333  C 10.7401413690476 1.48003472222222  11 2.30121527777778  11 3.3515625  C 11 4.40668402777778  10.5314360119048 5.48090277777778  9.59430803571428 6.57421875  L 5.77008928571429 10.87109375  C 5.69642857142857 10.95703125  5.60639880952381 11  5.5 11  C 5.39360119047619 11  5.30357142857143 10.95703125  5.22991071428571 10.87109375  L 1.39955357142857 6.55989583333333  C 1.35863095238095 6.52170138888889  1.30236235119048 6.45963541666667  1.23074776785714 6.37369791666667  C 1.15913318452381 6.28776041666667  1.04557291666667 6.13140190972222  0.890066964285714 5.90462239583333  C 0.734561011904762 5.67784288194444  0.595424107142857 5.44509548611111  0.47265625 5.20638020833333  C 0.349888392857143 4.96766493055556  0.240420386904762 4.67881944444444  0.144252232142857 4.33984375  C 0.0480840773809524 4.00086805555555  0 3.67144097222222  0 3.3515625  C 0 2.30121527777778  0.259858630952381 1.48003472222222  0.779575892857143 0.888020833333333  C 1.2992931547619 0.296006944444444  2.01748511904762 0  2.93415178571429 0  C 3.18787202380952 0  3.44670758928571 0.0513237847222215  3.71065848214286 0.153971354166667  C 3.974609375 0.25661892361111  4.22014508928571 0.395073784722222  4.447265625 0.5693359375  C 4.67438616071429 0.743598090277777  4.86979166666667 0.907118055555554  5.03348214285714 1.05989583333333  C 5.19717261904762 1.21267361111111  5.35267857142857 1.375  5.5 1.546875  C 5.64732142857143 1.375  5.80282738095238 1.21267361111111  5.96651785714286 1.05989583333333  C 6.13020833333333 0.907118055555554  6.32561383928571 0.743598090277777  6.552734375 0.5693359375  C 6.77985491071429 0.395073784722222  7.025390625 0.25661892361111  7.28934151785714 0.153971354166667  C 7.55329241071429 0.0513237847222215  7.81212797619048 0  8.06584821428572 0  C 8.98251488095238 0  9.7007068452381 0.296006944444444  10.2204241071429 0.888020833333333  Z " fill-rule="nonzero" fill="#999999" stroke="none" transform="matrix(1 0 0 1 212 84 )" />
  </g>
</svg>