<?xml version="1.0" encoding="utf-8"?>
<svg version="1.1" xmlns:xlink="http://www.w3.org/1999/xlink" width="18px" height="17px" xmlns="http://www.w3.org/2000/svg">
  <g transform="matrix(1 0 0 1 -306 -31 )">
    <path d="M 12.72084375 0.277756347656251  C 11.2495078125 0.277756347656251  9.88146093750004 1.0158427734375  8.98101416015624 2.232955078125  C 8.08108154296872 1.01555712890625  6.7133203125 0.277756347656251  5.2411845703125 0.277756347656251  C 2.58886083984373 0.277756347656251  0.431006835937524 2.63695166015624  0.431006835937524 5.5370625  C 0.431006835937524 7.26717333984375  1.20386572265625 8.480876953125  1.82512353515619 9.45604833984375  C 3.63070166015621 12.288556640625  8.17056445312494 15.8135244140625  8.36284130859372 15.9621357421875  C 8.54807226562497 16.1053388671875  8.76464794921878 16.176978515625  8.98072851562495 16.176978515625  C 9.19730419921876 16.176978515625  9.41357519531255 16.1053579101563  9.59861572265618 15.9621357421875  C 9.79114013671875 15.8135244140625  14.3312504882812 12.288556640625  16.136314453125 9.45604833984375  C 16.757876953125 8.480876953125  17.5309833984375 7.26717333984375  17.5309833984375 5.53706249999999  C 17.5309643554688 2.636970703125  15.3731103515625 0.277756347656251  12.7208056640625 0.277756347656251  Z M 15.258052734375 8.7866689453125  C 13.5393486328124 11.4837055664063  8.98072851562495 15.006369140625  8.98072851562495 15.006369140625  C 8.98072851562495 15.006369140625  4.42262255859373 11.4836865234375  2.70338525390628 8.7866689453125  C 2.06933056640628 7.79096923828125  1.50158349609382 6.84460986328125  1.50158349609382 5.53704345703125  C 1.50158349609382 3.27915673828124  3.17568896484374 1.4480419921875  5.24116552734375 1.4480419921875  C 6.76755468750002 1.4480419921875  8.07793945312494 2.4494736328125  8.65926416015628 3.88316162109375  L 8.65926416015628 3.8760205078125  L 8.66082568359371 3.8760205078125  C 8.70412939453126 4.02552685546875  8.83040332031248 4.13452880859375  8.9807094726562 4.13452880859375  C 9.13154882812501 4.13452880859375  9.25782275390628 4.0255458984375  9.30085986328123 3.8760205078125  L 9.30527783203127 3.8760205078125  C 9.88793554687499 2.4466171875  11.1964921875 1.44806103515625  12.7208056640625 1.44806103515625  C 14.785787109375 1.44806103515625  16.4603876953125 3.27917578125  16.4603876953125 5.5370625  C 16.4603876953125 6.84460986328125  15.8926025390625 7.79096923828125  15.2580146484376 8.78668798828124  Z " fill-rule="nonzero" fill="#666666" stroke="none" transform="matrix(1 0 0 1 306 31 )" />
  </g>
</svg>