<?xml version="1.0" encoding="utf-8"?>
<svg version="1.1" xmlns:xlink="http://www.w3.org/1999/xlink" width="45px" height="45px" xmlns="http://www.w3.org/2000/svg">
  <g transform="matrix(1 0 0 1 -12 -17 )">
    <path d="M 44.8340689285714 22.5380827566964  C 44.8340689285714 34.8563367020089  34.8369098604911 44.8440907198661  22.5040600948661 44.8440907198661  C 10.1723410044643 44.8440907198661  0.178728097098201 34.8562853236607  0.178728097098201 22.5380827566964  C 0.178728097098201 13.0828191629464  6.06397791294643 5.00475319754464  14.3755769029018 1.75836570870535  C 16.8868799497768 0.745292561383931  19.6304826395089 0.185820468749995  22.5046254073661 0.185820468749995  C 25.3823143359375 0.185820468749995  28.1235529185268 0.744727248883926  30.6372200725446 1.75836570870535  C 38.9483051785714 5.00475319754464  44.8340689285714 13.0828705412946  44.8340689285714 22.5380827566964  Z M 13.9225926395089 17.8338608035714  C 13.9225926395089 21.5929007477679  15.8486239285714 24.8474598549107  18.6484513560268 26.4405112332589  C 19.8095898214286 27.1012289564732  21.1169948102679 27.4822620870536  22.5040600948661 27.4822620870536  C 23.8424555189732 27.4822620870536  25.1042743024553 27.1258466183036  26.2349876450893 26.5101497377232  C 29.1009587946428 24.9475234821429  31.0890737109375 21.6531856305804  31.0890737109375 17.8344775446429  C 31.0890737109375 12.5174881808036  27.2387584988839 8.18962247209821  22.5041114732143 8.18962247209821  C 17.7723424888393 8.189057109375  13.9225926395089 12.5169741964286  13.9225926395089 17.8338608035714  Z M 22.5947700502232 43.3985907756696  C 29.1179187723214 43.3985907756696  34.9369734877232 40.3986361941964  38.7510046875 35.7038192410714  C 38.3004359095982 32.0003872935268  34.6917225837054 28.8476905580357  29.5843682310268 27.2750939397321  C 27.6554074720982 29.0103516964286  25.1909241127232 30.0544666573661  22.5034434040178 30.0544666573661  C 19.7562945535714 30.0544666573661  17.2415481026786 28.9541783872768  15.293828671875 27.1434231863839  C 10.3256485212054 28.5614274776786  6.6866129296875 31.4537636551339  5.8333743080357 34.9195509542411  C 9.61811106026786 40.06092796875  15.7181352287946 43.3985907756696  22.5947700502232 43.3985907756696  Z " fill-rule="nonzero" fill="#d6d6d6" stroke="none" transform="matrix(1 0 0 1 12 17 )" />
  </g>
</svg>