<?xml version="1.0" encoding="utf-8"?>
<svg version="1.1" xmlns:xlink="http://www.w3.org/1999/xlink" width="12px" height="11px" xmlns="http://www.w3.org/2000/svg">
  <g transform="matrix(1 0 0 1 -277 -84 )">
    <path d="M 8.18973214285714 6.166015625  C 8.27008928571428 6.33311631944444  8.39732142857143 6.41666666666667  8.57142857142857 6.41666666666667  L 10.6138392857143 6.41666666666667  C 10.5915178571429 6.4453125  10.5691964285714 6.47037760416667  10.546875 6.49186197916667  C 10.5245535714286 6.51334635416667  10.5044642857143 6.53125  10.4866071428571 6.54557291666667  L 10.4665178571429 6.57421875  L 6.29464285714286 10.87109375  C 6.21428571428572 10.95703125  6.11607142857143 11  6 11  C 5.88392857142857 11  5.78571428571429 10.95703125  5.70535714285714 10.87109375  L 1.52678571428571 6.55989583333333  C 1.50446428571429 6.55034722222222  1.45758928571429 6.50260416666667  1.38616071428571 6.41666666666667  L 3.85714285714286 6.41666666666667  C 3.95535714285714 6.41666666666667  4.04352678571429 6.38444010416667  4.12165178571429 6.31998697916667  C 4.19977678571429 6.25553385416667  4.25 6.17317708333333  4.27232142857143 6.07291666666667  L 4.74107142857143 4.060546875  L 6.01339285714286 8.83723958333333  C 6.04017857142857 8.93272569444444  6.09151785714286 9.01150173611111  6.16741071428572 9.07356770833333  C 6.24330357142857 9.13563368055556  6.33035714285714 9.16666666666667  6.42857142857143 9.16666666666667  C 6.52232142857143 9.16666666666667  6.60714285714286 9.13563368055556  6.68303571428572 9.07356770833333  C 6.75892857142857 9.01150173611111  6.81026785714286 8.93272569444444  6.83705357142857 8.83723958333333  L 7.81473214285714 5.36393229166667  L 8.18973214285714 6.166015625  Z M 11.1495535714286 0.888020833333333  C 11.7165178571429 1.48003472222222  12 2.30121527777778  12 3.3515625  C 12 4.04383680555555  11.7700892857143 4.75998263888889  11.3102678571429 5.5  L 8.83928571428572 5.5  L 8.09598214285714 3.91731770833333  C 8.06026785714286 3.83615451388889  8.00334821428572 3.77170138888889  7.92522321428572 3.72395833333333  C 7.84709821428572 3.67621527777778  7.765625 3.65711805555555  7.68080357142857 3.66666666666667  C 7.47991071428572 3.69053819444444  7.35491071428572 3.80034722222222  7.30580357142857 3.99609375  L 6.44196428571428 7.07552083333333  L 5.12946428571429 2.16276041666667  C 5.10267857142857 2.06727430555555  5.05022321428572 1.98849826388889  4.97209821428571 1.92643229166667  C 4.89397321428571 1.86436631944444  4.80580357142857 1.83333333333333  4.70758928571429 1.83333333333333  C 4.609375 1.83333333333333  4.52232142857143 1.86555989583333  4.44642857142857 1.93001302083333  C 4.37053571428572 1.99446614583333  4.32142857142857 2.07682291666667  4.29910714285714 2.17708333333333  L 3.52232142857143 5.5  L 0.689732142857143 5.5  C 0.229910714285714 4.75998263888889  0 4.04383680555555  0 3.3515625  C 0 2.30121527777778  0.283482142857143 1.48003472222222  0.850446428571429 0.888020833333333  C 1.41741071428571 0.296006944444444  2.20089285714286 0  3.20089285714286 0  C 3.47767857142857 0  3.76004464285714 0.0513237847222215  4.04799107142857 0.153971354166667  C 4.3359375 0.25661892361111  4.60379464285714 0.395073784722222  4.8515625 0.5693359375  C 5.09933035714286 0.743598090277777  5.3125 0.907118055555554  5.49107142857143 1.05989583333333  C 5.66964285714286 1.21267361111111  5.83928571428571 1.375  6 1.546875  C 6.16071428571428 1.375  6.33035714285714 1.21267361111111  6.50892857142857 1.05989583333333  C 6.6875 0.907118055555554  6.90066964285714 0.743598090277777  7.1484375 0.5693359375  C 7.39620535714286 0.395073784722222  7.6640625 0.25661892361111  7.95200892857143 0.153971354166667  C 8.23995535714286 0.0513237847222215  8.52232142857143 0  8.79910714285714 0  C 9.79910714285714 0  10.5825892857143 0.296006944444444  11.1495535714286 0.888020833333333  Z " fill-rule="nonzero" fill="#000000" stroke="none" transform="matrix(1 0 0 1 277 84 )" />
  </g>
</svg>