<?xml version="1.0" encoding="utf-8"?>
<svg version="1.1" xmlns:xlink="http://www.w3.org/1999/xlink" width="28px" height="28px" xmlns="http://www.w3.org/2000/svg">
  <g transform="matrix(1 0 0 1 -15 -10 )">
    <path d="M 27.9015625 13.98359375  C 27.89609375 6.26718749999998  21.65078125 0.00546874999997726  13.95078125 0.00546874999997726  C 6.2453125 0.00546874999997726  0 6.26718749999998  0 13.98359375  C 0 21.70546875  6.2453125 27.96171875  13.95078125 27.96171875  C 21.65625 27.96171875  27.9015625 21.70546875  27.9015625 13.98359375  Z M 27.20703125 13.98359375  C 27.2015625 21.30625  21.27890625 27.2453125  13.97265625 27.2453125  C 6.66640625 27.2453125  0.73828125 21.30625  0.73828125 13.98359375  C 0.73828125 6.66093749999999  6.6609375 0.721875000000011  13.97265625 0.721875000000011  C 21.27890625 0.721875000000011  27.20703125 6.66093749999999  27.20703125 13.98359375  Z " fill-rule="nonzero" fill="#999999" stroke="none" transform="matrix(1 0 0 1 15 10 )" />
  </g>
</svg>