<?xml version="1.0" encoding="utf-8"?>
<svg version="1.1" xmlns:xlink="http://www.w3.org/1999/xlink" width="7px" height="10px" xmlns="http://www.w3.org/2000/svg">
  <g transform="matrix(1 0 0 1 -23 -19 )">
    <path d="M 6.825 5.0625  C 6.83014705882353 3.33333333333337  6.27941176470588 1.74479166666663  5.34264705882353 0.453125  C 5.02352941176471 0.0104166666666856  4.39044117647059 -0.0416666666666856  3.99926470588235 0.34375  L 3.97867647058823 0.359375  C 3.65441176470588 0.677083333333371  3.61323529411765 1.18229166666669  3.88088235294118 1.55208333333331  C 4.60147058823529 2.54166666666669  5.02352941176471 3.76041666666669  5.02352941176471 5.08333333333331  C 5.02352941176471 6.30729166666669  4.65808823529412 7.44270833333331  4.03529411764706 8.390625  C 3.78308823529412 8.77083333333331  3.85514705882353 9.28645833333331  4.2 9.58333333333337  C 4.60661764705883 9.93229166666669  5.22426470588236 9.84895833333331  5.52279411764706 9.40104166666663  C 6.34632352941176 8.16145833333331  6.825 6.66666666666663  6.825 5.0625  Z M 1.47205882352941 2.9375  C 0.684558823529411 2.9375  0.0463235294117652 3.84895833333331  0.0463235294117652 4.97916666666669  C 0.0463235294117652 6.10416666666669  0.684558823529411 7.02083333333331  1.47205882352941 7.02083333333331  C 2.25955882352941 7.02083333333331  2.89779411764706 6.109375  2.89779411764706 4.97916666666669  C 2.89779411764706 3.85416666666663  2.25955882352941 2.9375  1.47205882352941 2.9375  Z " fill-rule="nonzero" fill="#999999" stroke="none" transform="matrix(1 0 0 1 23 19 )" />
  </g>
</svg>