<?xml version="1.0" encoding="utf-8"?>
<svg version="1.1" xmlns:xlink="http://www.w3.org/1999/xlink" width="15px" height="19px" xmlns="http://www.w3.org/2000/svg">
  <g transform="matrix(1 0 0 1 -30 -33 )">
    <path d="M 7.38043795620441 0.00231990383305103  C 4.87313868613139 0.00231990383305103  2.83313868613139 2.19555698759499  2.83313868613139 4.89035728006149  C 2.83313868613139 7.58515757252795  4.87313868613139 9.77839465628989  7.38043795620441 9.77839465628989  C 9.88773722627737 9.77839465628989  11.9277372262774 7.58562155329457  11.9277372262774 4.89035728006149  C 11.9277372262774 2.19462902606177  9.88773722627737 0.00231990383305103  7.38043795620441 0.00231990383305103  Z M 9.25401459854015 10.2493351343983  L 5.84671532846716 10.2493351343983  C 2.68072992700732 10.2493351343983  0.105547445255453 13.0160524456892  0.105547445255453 16.417031464935  L 0.105547445255453 16.7831122897897  C 0.105547445255453 18.561550568203  2.63956204379564 18.561550568203  5.84671532846716 18.561550568203  L 9.25401459854015 18.561550568203  C 12.3354744525548 18.561550568203  14.9960583941606 18.561550568203  14.9960583941606 16.7831122897897  L 14.9960583941606 16.417031464935  C 14.9960583941606 13.0165164264558  12.4204379562044 10.2493351343983  9.25401459854015 10.2493351343983  Z " fill-rule="nonzero" fill="#fafafa" stroke="none" transform="matrix(1 0 0 1 30 33 )" />
  </g>
</svg>