<?xml version="1.0" encoding="utf-8"?>
<svg version="1.1" xmlns:xlink="http://www.w3.org/1999/xlink" width="6px" height="17px" xmlns="http://www.w3.org/2000/svg">
  <g transform="matrix(1 0 0 1 -29 -16 )">
    <path d="M 2.125 0.299679487179446  C 1.6625 -0.108974358974308  0.900000000000002 -0.0817307692307736  0.475000000000001 0.354166666666686  L 0.400000000000002 0.430448717948707  C 0.0187500000000007 0.817307692307736  0.0500000000000007 1.39487179487179  0.462500000000002 1.75448717948723  C 2.4375 3.48717948717945  3.6625 5.87916666666666  3.6625 8.5217948717949  C 3.6625 11.1208333333333  2.475 13.4801282051282  0.550000000000001 15.2073717948718  C 0.150000000000002 15.5669871794872  0.118750000000002 16.1336538461538  0.493750000000002 16.5205128205128  C 0.918750000000003 16.961858974359  1.6875 16.9891025641026  2.15 16.5804487179487  C 4.50625 14.488141025641  5.9625 11.6166666666667  5.9625 8.45096153846157  C 5.9625 5.27435897435902  4.5 2.39743589743591  2.125 0.299679487179446  Z " fill-rule="nonzero" fill="#999999" stroke="none" transform="matrix(1 0 0 1 29 16 )" />
  </g>
</svg>