<?xml version="1.0" encoding="utf-8"?>
<svg version="1.1" xmlns:xlink="http://www.w3.org/1999/xlink" width="18px" height="18px" viewBox="14 190  18 18" xmlns="http://www.w3.org/2000/svg">
  <path d="M 23 190  C 28.04 190  32 193.96  32 199  C 32 204.04  28.04 208  23 208  C 17.96 208  14 204.04  14 199  C 14 193.96  17.96 190  23 190  Z " fill-rule="nonzero" fill="#ffffff" stroke="none" />
  <path d="M 23 190.5  C 27.76 190.5  31.5 194.24  31.5 199  C 31.5 203.76  27.76 207.5  23 207.5  C 18.24 207.5  14.5 203.76  14.5 199  C 14.5 194.24  18.24 190.5  23 190.5  Z " stroke-width="1" stroke="#aaaaaa" fill="none" />
  <path d="M 23 203.5  C 20.48 203.5  18.5 201.52  18.5 199  C 18.5 196.48  20.48 194.5  23 194.5  C 25.52 194.5  27.5 196.48  27.5 199  C 27.5 201.52  25.52 203.5  23 203.5  " fill-rule="nonzero" fill="#aaaaaa" stroke="none" />
</svg>