<?xml version="1.0" encoding="utf-8"?>
<svg version="1.1" xmlns:xlink="http://www.w3.org/1999/xlink" width="18px" height="18px" viewBox="133 190  18 18" xmlns="http://www.w3.org/2000/svg">
  <path d="M 142 190  C 147.04 190  151 193.96  151 199  C 151 204.04  147.04 208  142 208  C 136.96 208  133 204.04  133 199  C 133 193.96  136.96 190  142 190  Z " fill-rule="nonzero" fill="#ffffff" stroke="none" />
  <path d="M 142 190.5  C 146.76 190.5  150.5 194.24  150.5 199  C 150.5 203.76  146.76 207.5  142 207.5  C 137.24 207.5  133.5 203.76  133.5 199  C 133.5 194.24  137.24 190.5  142 190.5  Z " stroke-width="1" stroke="#aaaaaa" fill="none" />
  <path d="M 142 203.5  C 139.48 203.5  137.5 201.52  137.5 199  C 137.5 196.48  139.48 194.5  142 194.5  C 144.52 194.5  146.5 196.48  146.5 199  C 146.5 201.52  144.52 203.5  142 203.5  " fill-rule="nonzero" fill="#aaaaaa" stroke="none" />
</svg>