<?xml version="1.0" encoding="utf-8"?>
<svg version="1.1" xmlns:xlink="http://www.w3.org/1999/xlink" width="18px" height="18px" viewBox="246 190  18 18" xmlns="http://www.w3.org/2000/svg">
  <path d="M 255 190  C 260.04 190  264 193.96  264 199  C 264 204.04  260.04 208  255 208  C 249.96 208  246 204.04  246 199  C 246 193.96  249.96 190  255 190  Z " fill-rule="nonzero" fill="#ffffff" stroke="none" />
  <path d="M 255 190.5  C 259.76 190.5  263.5 194.24  263.5 199  C 263.5 203.76  259.76 207.5  255 207.5  C 250.24 207.5  246.5 203.76  246.5 199  C 246.5 194.24  250.24 190.5  255 190.5  Z " stroke-width="1" stroke="#aaaaaa" fill="none" />
  <path d="M 255 203.5  C 252.48 203.5  250.5 201.52  250.5 199  C 250.5 196.48  252.48 194.5  255 194.5  C 257.52 194.5  259.5 196.48  259.5 199  C 259.5 201.52  257.52 203.5  255 203.5  " fill-rule="nonzero" fill="#aaaaaa" stroke="none" />
</svg>