<?xml version="1.0" encoding="utf-8"?>
<svg version="1.1" xmlns:xlink="http://www.w3.org/1999/xlink" width="18px" height="18px" viewBox="14 264  18 18" xmlns="http://www.w3.org/2000/svg">
  <path d="M 23 264  C 28.04 264  32 267.96  32 273  C 32 278.04  28.04 282  23 282  C 17.96 282  14 278.04  14 273  C 14 267.96  17.96 264  23 264  Z " fill-rule="nonzero" fill="#ffffff" stroke="none" />
  <path d="M 23 264.5  C 27.76 264.5  31.5 268.24  31.5 273  C 31.5 277.76  27.76 281.5  23 281.5  C 18.24 281.5  14.5 277.76  14.5 273  C 14.5 268.24  18.24 264.5  23 264.5  Z " stroke-width="1" stroke="#aaaaaa" fill="none" />
  <path d="M 23 277.5  C 20.48 277.5  18.5 275.52  18.5 273  C 18.5 270.48  20.48 268.5  23 268.5  C 25.52 268.5  27.5 270.48  27.5 273  C 27.5 275.52  25.52 277.5  23 277.5  " fill-rule="nonzero" fill="#aaaaaa" stroke="none" />
</svg>