<?xml version="1.0" encoding="utf-8"?>
<svg version="1.1" xmlns:xlink="http://www.w3.org/1999/xlink" width="18px" height="18px" viewBox="14 416  18 18" xmlns="http://www.w3.org/2000/svg">
  <path d="M 23 416  C 28.04 416  32 419.96  32 425  C 32 430.04  28.04 434  23 434  C 17.96 434  14 430.04  14 425  C 14 419.96  17.96 416  23 416  Z " fill-rule="nonzero" fill="#f0f0f0" stroke="none" />
  <path d="M 23 416.5  C 27.76 416.5  31.5 420.24  31.5 425  C 31.5 429.76  27.76 433.5  23 433.5  C 18.24 433.5  14.5 429.76  14.5 425  C 14.5 420.24  18.24 416.5  23 416.5  Z " stroke-width="1" stroke="#aaaaaa" fill="none" />
  <path d="M 23 429.5  C 20.48 429.5  18.5 427.52  18.5 425  C 18.5 422.48  20.48 420.5  23 420.5  C 25.52 420.5  27.5 422.48  27.5 425  C 27.5 427.52  25.52 429.5  23 429.5  " fill-rule="nonzero" fill="#aaaaaa" stroke="none" />
</svg>