<?xml version="1.0" encoding="utf-8"?>
<svg version="1.1" xmlns:xlink="http://www.w3.org/1999/xlink" width="18px" height="18px" viewBox="246 416  18 18" xmlns="http://www.w3.org/2000/svg">
  <path d="M 255 416  C 260.04 416  264 419.96  264 425  C 264 430.04  260.04 434  255 434  C 249.96 434  246 430.04  246 425  C 246 419.96  249.96 416  255 416  Z " fill-rule="nonzero" fill="#f0f0f0" stroke="none" />
  <path d="M 255 416.5  C 259.76 416.5  263.5 420.24  263.5 425  C 263.5 429.76  259.76 433.5  255 433.5  C 250.24 433.5  246.5 429.76  246.5 425  C 246.5 420.24  250.24 416.5  255 416.5  Z " stroke-width="1" stroke="#aaaaaa" fill="none" />
  <path d="M 255 429.5  C 252.48 429.5  250.5 427.52  250.5 425  C 250.5 422.48  252.48 420.5  255 420.5  C 257.52 420.5  259.5 422.48  259.5 425  C 259.5 427.52  257.52 429.5  255 429.5  " fill-rule="nonzero" fill="#aaaaaa" stroke="none" />
</svg>