<?xml version="1.0" encoding="utf-8"?>
<svg version="1.1" xmlns:xlink="http://www.w3.org/1999/xlink" width="18px" height="18px" viewBox="14 575  18 18" xmlns="http://www.w3.org/2000/svg">
  <path d="M 23 575  C 28.04 575  32 578.96  32 584  C 32 589.04  28.04 593  23 593  C 17.96 593  14 589.04  14 584  C 14 578.96  17.96 575  23 575  Z " fill-rule="nonzero" fill="#ffffff" stroke="none" />
  <path d="M 23 575.5  C 27.76 575.5  31.5 579.24  31.5 584  C 31.5 588.76  27.76 592.5  23 592.5  C 18.24 592.5  14.5 588.76  14.5 584  C 14.5 579.24  18.24 575.5  23 575.5  Z " stroke-width="1" stroke="#aaaaaa" fill="none" />
  <path d="M 23 588.5  C 20.48 588.5  18.5 586.52  18.5 584  C 18.5 581.48  20.48 579.5  23 579.5  C 25.52 579.5  27.5 581.48  27.5 584  C 27.5 586.52  25.52 588.5  23 588.5  " fill-rule="nonzero" fill="#aaaaaa" stroke="none" />
</svg>