<?xml version="1.0" encoding="utf-8"?>
<svg version="1.1" xmlns:xlink="http://www.w3.org/1999/xlink" width="18px" height="18px" viewBox="246 575  18 18" xmlns="http://www.w3.org/2000/svg">
  <path d="M 255 575  C 260.04 575  264 578.96  264 584  C 264 589.04  260.04 593  255 593  C 249.96 593  246 589.04  246 584  C 246 578.96  249.96 575  255 575  Z " fill-rule="nonzero" fill="#ffffff" stroke="none" />
  <path d="M 255 575.5  C 259.76 575.5  263.5 579.24  263.5 584  C 263.5 588.76  259.76 592.5  255 592.5  C 250.24 592.5  246.5 588.76  246.5 584  C 246.5 579.24  250.24 575.5  255 575.5  Z " stroke-width="1" stroke="#aaaaaa" fill="none" />
  <path d="M 255 588.5  C 252.48 588.5  250.5 586.52  250.5 584  C 250.5 581.48  252.48 579.5  255 579.5  C 257.52 579.5  259.5 581.48  259.5 584  C 259.5 586.52  257.52 588.5  255 588.5  " fill-rule="nonzero" fill="#aaaaaa" stroke="none" />
</svg>