<?xml version="1.0" encoding="utf-8"?>
<svg version="1.1" xmlns:xlink="http://www.w3.org/1999/xlink" width="18px" height="18px" viewBox="246 495  18 18" xmlns="http://www.w3.org/2000/svg">
  <path d="M 255 495  C 260.04 495  264 498.96  264 504  C 264 509.04  260.04 513  255 513  C 249.96 513  246 509.04  246 504  C 246 498.96  249.96 495  255 495  Z " fill-rule="nonzero" fill="#f0f0f0" stroke="none" />
  <path d="M 255 495.5  C 259.76 495.5  263.5 499.24  263.5 504  C 263.5 508.76  259.76 512.5  255 512.5  C 250.24 512.5  246.5 508.76  246.5 504  C 246.5 499.24  250.24 495.5  255 495.5  Z " stroke-width="1" stroke="#aaaaaa" fill="none" />
  <path d="M 255 508.5  C 252.48 508.5  250.5 506.52  250.5 504  C 250.5 501.48  252.48 499.5  255 499.5  C 257.52 499.5  259.5 501.48  259.5 504  C 259.5 506.52  257.52 508.5  255 508.5  " fill-rule="nonzero" fill="#aaaaaa" stroke="none" />
</svg>