<?xml version="1.0" encoding="utf-8"?>
<svg version="1.1" xmlns:xlink="http://www.w3.org/1999/xlink" width="18px" height="18px" viewBox="126 268  18 18" xmlns="http://www.w3.org/2000/svg">
  <path d="M 135 268  C 140.04 268  144 271.96  144 277  C 144 282.04  140.04 286  135 286  C 129.96 286  126 282.04  126 277  C 126 271.96  129.96 268  135 268  Z " fill-rule="nonzero" fill="#ffffff" stroke="none" />
  <path d="M 135 268.5  C 139.76 268.5  143.5 272.24  143.5 277  C 143.5 281.76  139.76 285.5  135 285.5  C 130.24 285.5  126.5 281.76  126.5 277  C 126.5 272.24  130.24 268.5  135 268.5  Z " stroke-width="1" stroke="#aaaaaa" fill="none" />
  <path d="M 135 281.5  C 132.48 281.5  130.5 279.52  130.5 277  C 130.5 274.48  132.48 272.5  135 272.5  C 137.52 272.5  139.5 274.48  139.5 277  C 139.5 279.52  137.52 281.5  135 281.5  " fill-rule="nonzero" fill="#aaaaaa" stroke="none" />
</svg>