<?xml version="1.0" encoding="utf-8"?>
<svg version="1.1" xmlns:xlink="http://www.w3.org/1999/xlink" width="18px" height="18px" viewBox="29 410  18 18" xmlns="http://www.w3.org/2000/svg">
  <path d="M 38 410  C 43.04 410  47 413.96  47 419  C 47 424.04  43.04 428  38 428  C 32.96 428  29 424.04  29 419  C 29 413.96  32.96 410  38 410  Z " fill-rule="nonzero" fill="#ffffff" stroke="none" />
  <path d="M 38 410.5  C 42.76 410.5  46.5 414.24  46.5 419  C 46.5 423.76  42.76 427.5  38 427.5  C 33.24 427.5  29.5 423.76  29.5 419  C 29.5 414.24  33.24 410.5  38 410.5  Z " stroke-width="1" stroke="#aaaaaa" fill="none" />
  <path d="M 38 423.5  C 35.48 423.5  33.5 421.52  33.5 419  C 33.5 416.48  35.48 414.5  38 414.5  C 40.52 414.5  42.5 416.48  42.5 419  C 42.5 421.52  40.52 423.5  38 423.5  " fill-rule="nonzero" fill="#aaaaaa" stroke="none" />
</svg>